Modular-C-Bold.ufo
<glyph name="exclam" format="1">
  <advance width="240"/>
  <unicode hex="0021"/>
  <outline>
    <contour>
      <point x="54" y="511" type="line"/>
      <point x="54" y="370" type="line"/>
      <point x="82" y="160" type="line"/>
      <point x="158" y="160" type="line"/>
      <point x="184" y="370" type="line"/>
      <point x="184" y="511" type="line"/>
    </contour>
    <contour>
      <point x="156" y="-6"/>
      <point x="187" y="25"/>
      <point x="187" y="62" type="curve" smooth="yes"/>
      <point x="187" y="100"/>
      <point x="156" y="130"/>
      <point x="120" y="130" type="curve" smooth="yes"/>
      <point x="82" y="130"/>
      <point x="51" y="100"/>
      <point x="51" y="62" type="curve" smooth="yes"/>
      <point x="51" y="26"/>
      <point x="82" y="-6"/>
      <point x="120" y="-6" type="curve" smooth="yes"/>
    </contour>
  </outline>
</glyph>
<glyph name="quotedbl" format="1">
  <advance width="300"/>
  <unicode hex="0022"/>
  <outline>
    <contour>
      <point x="168" y="511" type="line"/>
      <point x="168" y="456" type="line"/>
      <point x="191" y="314" type="line"/>
      <point x="261" y="314" type="line"/>
      <point x="284" y="456" type="line"/>
      <point x="284" y="511" type="line"/>
    </contour>
    <contour>
      <point x="16" y="511" type="line"/>
      <point x="16" y="456" type="line"/>
      <point x="39" y="314" type="line"/>
      <point x="109" y="314" type="line"/>
      <point x="132" y="456" type="line"/>
      <point x="132" y="511" type="line"/>
    </contour>
  </outline>
</glyph>
<glyph name="dollar" format="1">
  <advance width="441"/>
  <unicode hex="0024"/>
  <outline>
    <contour>
      <point x="228" y="199" type="line"/>
      <point x="272" y="189"/>
      <point x="289" y="160"/>
      <point x="289" y="114" type="curve" smooth="yes"/>
      <point x="289" y="72"/>
      <point x="271" y="46"/>
      <point x="218" y="46" type="curve" smooth="yes"/>
      <point x="165" y="46"/>
      <point x="150" y="91"/>
      <point x="150" y="153" type="curve"/>
      <point x="37" y="144" type="line"/>
      <point x="37" y="44"/>
      <point x="81" y="-5"/>
      <point x="218" y="-5" type="curve" smooth="yes"/>
      <point x="362" y="-5"/>
      <point x="416" y="53"/>
      <point x="416" y="140" type="curve" smooth="yes"/>
      <point x="416" y="233"/>
      <point x="369" y="291"/>
      <point x="271" y="304" type="curve" smooth="yes"/>
      <point x="216" y="310" type="line" smooth="yes"/>
      <point x="176" y="315"/>
      <point x="165" y="345"/>
      <point x="165" y="393" type="curve" smooth="yes"/>
      <point x="165" y="437"/>
      <point x="179" y="464"/>
      <point x="221" y="464" type="curve" smooth="yes"/>
      <point x="275" y="464"/>
      <point x="288" y="426"/>
      <point x="288" y="358" type="curve"/>
      <point x="402" y="366" type="line"/>
      <point x="402" y="466"/>
      <point x="357" y="515"/>
      <point x="221" y="515" type="curve" smooth="yes"/>
      <point x="87" y="515"/>
      <point x="36" y="456"/>
      <point x="36" y="364" type="curve" smooth="yes"/>
      <point x="36" y="271"/>
      <point x="79" y="221"/>
      <point x="176" y="207" type="curve" smooth="yes"/>
    </contour>
    <contour>
      <point x="266" y="493" type="line"/>
      <point x="266" y="590" type="line"/>
      <point x="180" y="590" type="line"/>
      <point x="180" y="493" type="line"/>
    </contour>
    <contour>
      <point x="180" y="19" type="line"/>
      <point x="180" y="-79" type="line"/>
      <point x="266" y="-79" type="line"/>
      <point x="266" y="19" type="line"/>
    </contour>
  </outline>
</glyph>
<glyph name="quotesingle" format="1">
  <advance width="148"/>
  <unicode hex="0027"/>
  <outline>
    <contour>
      <point x="16" y="511" type="line"/>
      <point x="16" y="456" type="line"/>
      <point x="39" y="314" type="line"/>
      <point x="109" y="314" type="line"/>
      <point x="132" y="456" type="line"/>
      <point x="132" y="511" type="line"/>
    </contour>
  </outline>
</glyph>
<glyph name="asterisk" format="1">
  <advance width="393"/>
  <unicode hex="002A"/>
  <outline>
    <contour>
      <point x="138" y="545" type="line"/>
      <point x="138" y="470" type="line"/>
      <point x="178" y="404" type="line"/>
      <point x="215" y="404" type="line"/>
      <point x="254" y="470" type="line"/>
      <point x="254" y="545" type="line"/>
    </contour>
    <contour>
      <point x="15" y="379" type="line"/>
      <point x="88" y="355" type="line"/>
      <point x="160" y="364" type="line"/>
      <point x="171" y="399" type="line"/>
      <point x="119" y="448" type="line"/>
      <point x="46" y="471" type="line"/>
    </contour>
    <contour>
      <point x="137" y="198" type="line"/>
      <point x="183" y="263" type="line"/>
      <point x="191" y="334" type="line"/>
      <point x="162" y="357" type="line"/>
      <point x="95" y="329" type="line"/>
      <point x="50" y="263" type="line"/>
    </contour>
    <contour>
      <point x="343" y="263" type="line"/>
      <point x="296" y="329" type="line"/>
      <point x="231" y="356" type="line"/>
      <point x="201" y="334" type="line"/>
      <point x="209" y="263" type="line"/>
      <point x="255" y="198" type="line"/>
    </contour>
    <contour>
      <point x="346" y="471" type="line"/>
      <point x="273" y="448" type="line"/>
      <point x="222" y="399" type="line"/>
      <point x="233" y="363" type="line"/>
      <point x="305" y="355" type="line"/>
      <point x="378" y="379" type="line"/>
    </contour>
  </outline>
</glyph>
<glyph name="plus" format="1">
  <advance width="406"/>
  <unicode hex="002B"/>
  <outline>
    <contour>
      <point x="56" y="182" type="line"/>
      <point x="162" y="182" type="line"/>
      <point x="162" y="75" type="line"/>
      <point x="244" y="75" type="line"/>
      <point x="244" y="182" type="line"/>
      <point x="350" y="182" type="line"/>
      <point x="350" y="264" type="line"/>
      <point x="244" y="264" type="line"/>
      <point x="244" y="370" type="line"/>
      <point x="162" y="370" type="line"/>
      <point x="162" y="264" type="line"/>
      <point x="56" y="264" type="line"/>
    </contour>
  </outline>
</glyph>
<glyph name="comma" format="1">
  <advance width="168"/>
  <unicode hex="002C"/>
  <outline>
    <contour>
      <point x="50" y="130"/>
      <point x="24" y="103"/>
      <point x="24" y="69" type="curve" smooth="yes"/>
      <point x="24" y="40"/>
      <point x="42" y="18"/>
      <point x="42" y="-5" type="curve" smooth="yes"/>
      <point x="42" y="-28"/>
      <point x="36" y="-43"/>
      <point x="17" y="-63" type="curve"/>
      <point x="39" y="-90" type="line"/>
      <point x="97" y="-56"/>
      <point x="144" y="-6"/>
      <point x="144" y="62" type="curve" smooth="yes"/>
      <point x="144" y="103"/>
      <point x="116" y="130"/>
      <point x="84" y="130" type="curve" smooth="yes"/>
    </contour>
  </outline>
</glyph>
<glyph name="hyphen" format="1">
  <advance width="324"/>
  <unicode hex="002D"/>
  <outline>
    <contour>
      <point x="39" y="182" type="line"/>
      <point x="285" y="182" type="line"/>
      <point x="285" y="264" type="line"/>
      <point x="39" y="264" type="line"/>
    </contour>
  </outline>
</glyph>
<glyph name="period" format="1">
  <advance width="168"/>
  <unicode hex="002E"/>
  <outline>
    <contour>
      <point x="122" y="-6"/>
      <point x="152" y="25"/>
      <point x="152" y="62" type="curve" smooth="yes"/>
      <point x="152" y="100"/>
      <point x="122" y="130"/>
      <point x="84" y="130" type="curve" smooth="yes"/>
      <point x="46" y="130"/>
      <point x="17" y="100"/>
      <point x="17" y="62" type="curve" smooth="yes"/>
      <point x="17" y="26"/>
      <point x="46" y="-6"/>
      <point x="84" y="-6" type="curve" smooth="yes"/>
    </contour>
  </outline>
</glyph>
<glyph name="slash" format="1">
  <advance width="304"/>
  <unicode hex="002F"/>
  <outline>
    <contour>
      <point x="4" y="-74" type="line"/>
      <point x="134" y="-74" type="line"/>
      <point x="300" y="543" type="line"/>
      <point x="170" y="543" type="line"/>
    </contour>
  </outline>
</glyph>
<glyph name="zero" format="1">
  <advance width="461"/>
  <unicode hex="0030"/>
  <outline>
    <contour>
      <point x="396" y="-10"/>
      <point x="433" y="105"/>
      <point x="433" y="255" type="curve" smooth="yes"/>
      <point x="433" y="405"/>
      <point x="396" y="522"/>
      <point x="230" y="522" type="curve" smooth="yes"/>
      <point x="68" y="522"/>
      <point x="30" y="405"/>
      <point x="30" y="255" type="curve" smooth="yes"/>
      <point x="30" y="105"/>
      <point x="68" y="-10"/>
      <point x="230" y="-10" type="curve" smooth="yes"/>
    </contour>
    <contour>
      <point x="173" y="41"/>
      <point x="161" y="145"/>
      <point x="161" y="255" type="curve" smooth="yes"/>
      <point x="161" y="400"/>
      <point x="173" y="470"/>
      <point x="230" y="470" type="curve" smooth="yes"/>
      <point x="291" y="470"/>
      <point x="303" y="400"/>
      <point x="303" y="255" type="curve" smooth="yes"/>
      <point x="303" y="145"/>
      <point x="291" y="41"/>
      <point x="230" y="41" type="curve" smooth="yes"/>
    </contour>
  </outline>
</glyph>
<glyph name="one" format="1">
  <advance width="461"/>
  <unicode hex="0031"/>
  <outline>
    <contour>
      <point x="76" y="0" type="line"/>
      <point x="408" y="0" type="line"/>
      <point x="408" y="51" type="line"/>
      <point x="76" y="51" type="line"/>
    </contour>
    <contour>
      <point x="310" y="51" type="line"/>
      <point x="310" y="511" type="line"/>
      <point x="259" y="511" type="line"/>
      <point x="181" y="460" type="line"/>
      <point x="181" y="51" type="line"/>
    </contour>
    <contour>
      <point x="73" y="406" type="line"/>
      <point x="205" y="409" type="line"/>
      <point x="259" y="511" type="line"/>
      <point x="211" y="481"/>
      <point x="128" y="458"/>
      <point x="73" y="455" type="curve"/>
    </contour>
  </outline>
</glyph>
<glyph name="two" format="1">
  <advance width="461"/>
  <unicode hex="0032"/>
  <outline>
    <contour>
      <point x="153" y="339" type="line"/>
      <point x="155" y="429"/>
      <point x="175" y="469"/>
      <point x="218" y="469" type="curve" smooth="yes"/>
      <point x="257" y="469"/>
      <point x="278" y="440"/>
      <point x="278" y="388" type="curve" smooth="yes"/>
      <point x="278" y="327"/>
      <point x="268" y="287"/>
      <point x="206" y="232" type="curve" smooth="yes"/>
      <point x="38" y="82" type="line"/>
      <point x="38" y="0" type="line"/>
      <point x="418" y="0" type="line"/>
      <point x="418" y="100" type="line"/>
      <point x="174" y="100" type="line"/>
      <point x="323" y="232" type="line" smooth="yes"/>
      <point x="393" y="294"/>
      <point x="407" y="338"/>
      <point x="407" y="388" type="curve" smooth="yes"/>
      <point x="407" y="470"/>
      <point x="338" y="521"/>
      <point x="218" y="521" type="curve" smooth="yes"/>
      <point x="104" y="521"/>
      <point x="48" y="468"/>
      <point x="41" y="356" type="curve"/>
    </contour>
  </outline>
</glyph>
<glyph name="six" format="1">
  <advance width="461"/>
  <unicode hex="0036"/>
  <outline>
    <contour>
      <point x="413" y="364" type="line"/>
      <point x="409" y="471"/>
      <point x="349" y="521"/>
      <point x="233" y="521" type="curve" smooth="yes"/>
      <point x="72" y="521"/>
      <point x="31" y="396"/>
      <point x="31" y="231" type="curve" smooth="yes"/>
      <point x="31" y="106"/>
      <point x="83" y="-10"/>
      <point x="232" y="-10" type="curve" smooth="yes"/>
      <point x="365" y="-10"/>
      <point x="426" y="46"/>
      <point x="426" y="156" type="curve" smooth="yes"/>
      <point x="426" y="251"/>
      <point x="375" y="304"/>
      <point x="257" y="304" type="curve" smooth="yes"/>
      <point x="219" y="304"/>
      <point x="177" y="299"/>
      <point x="122" y="278" type="curve"/>
      <point x="122" y="224" type="line"/>
      <point x="158" y="243"/>
      <point x="188" y="252"/>
      <point x="218" y="252" type="curve" smooth="yes"/>
      <point x="283" y="252"/>
      <point x="300" y="208"/>
      <point x="300" y="156" type="curve" smooth="yes"/>
      <point x="300" y="81"/>
      <point x="280" y="41"/>
      <point x="232" y="41" type="curve" smooth="yes"/>
      <point x="178" y="41"/>
      <point x="159" y="85"/>
      <point x="159" y="248" type="curve" smooth="yes"/>
      <point x="159" y="396"/>
      <point x="167" y="470"/>
      <point x="233" y="470" type="curve" smooth="yes"/>
      <point x="280" y="470"/>
      <point x="301" y="424"/>
      <point x="302" y="353" type="curve"/>
    </contour>
  </outline>
</glyph>
<glyph name="eight" format="1">
  <advance width="461"/>
  <unicode hex="0038"/>
  <outline>
    <contour>
      <point x="201" y="272" type="line"/>
      <point x="93" y="256"/>
      <point x="32" y="217"/>
      <point x="32" y="133" type="curve" smooth="yes"/>
      <point x="32" y="53"/>
      <point x="106" y="-10"/>
      <point x="231" y="-10" type="curve" smooth="yes"/>
      <point x="356" y="-10"/>
      <point x="430" y="53"/>
      <point x="430" y="133" type="curve" smooth="yes"/>
      <point x="430" y="219"/>
      <point x="361" y="269"/>
      <point x="250" y="282" type="curve" smooth="yes"/>
      <point x="234" y="285" type="line" smooth="yes"/>
      <point x="180" y="291"/>
      <point x="170" y="328"/>
      <point x="170" y="379" type="curve" smooth="yes"/>
      <point x="170" y="429"/>
      <point x="186" y="470"/>
      <point x="231" y="470" type="curve" smooth="yes"/>
      <point x="276" y="470"/>
      <point x="292" y="429"/>
      <point x="292" y="379" type="curve" smooth="yes"/>
      <point x="292" y="330"/>
      <point x="281" y="284"/>
      <point x="251" y="276" type="curve"/>
      <point x="257" y="236" type="line"/>
      <point x="362" y="251"/>
      <point x="423" y="291"/>
      <point x="423" y="379" type="curve" smooth="yes"/>
      <point x="423" y="457"/>
      <point x="361" y="521"/>
      <point x="231" y="521" type="curve" smooth="yes"/>
      <point x="101" y="521"/>
      <point x="39" y="457"/>
      <point x="39" y="379" type="curve" smooth="yes"/>
      <point x="39" y="295"/>
      <point x="100" y="254"/>
      <point x="215" y="236" type="curve" smooth="yes"/>
      <point x="232" y="234" type="line" smooth="yes"/>
      <point x="269" y="229"/>
      <point x="299" y="186"/>
      <point x="299" y="133" type="curve" smooth="yes"/>
      <point x="299" y="80"/>
      <point x="277" y="41"/>
      <point x="230" y="41" type="curve" smooth="yes"/>
      <point x="184" y="41"/>
      <point x="162" y="80"/>
      <point x="162" y="133" type="curve" smooth="yes"/>
      <point x="162" y="189"/>
      <point x="176" y="231"/>
      <point x="207" y="238" type="curve"/>
    </contour>
  </outline>
</glyph>
<glyph name="equal" format="1">
  <advance width="406"/>
  <unicode hex="003D"/>
  <outline>
    <contour>
      <point x="56" y="262" type="line"/>
      <point x="350" y="262" type="line"/>
      <point x="350" y="344" type="line"/>
      <point x="56" y="344" type="line"/>
    </contour>
    <contour>
      <point x="56" y="102" type="line"/>
      <point x="350" y="102" type="line"/>
      <point x="350" y="184" type="line"/>
      <point x="56" y="184" type="line"/>
    </contour>
  </outline>
</glyph>
<glyph name="question" format="1">
  <advance width="364"/>
  <unicode hex="003F"/>
  <outline>
    <contour>
      <point x="129" y="360" type="line"/>
      <point x="130" y="428"/>
      <point x="143" y="470"/>
      <point x="183" y="470" type="curve" smooth="yes"/>
      <point x="209" y="470"/>
      <point x="230" y="466"/>
      <point x="230" y="403" type="curve" smooth="yes"/>
      <point x="230" y="323"/>
      <point x="205" y="273"/>
      <point x="117" y="232" type="curve"/>
      <point x="125" y="160" type="line"/>
      <point x="204" y="160" type="line"/>
      <point x="212" y="232" type="line"/>
      <point x="288" y="252"/>
      <point x="353" y="300"/>
      <point x="353" y="382" type="curve" smooth="yes"/>
      <point x="353" y="453"/>
      <point x="300" y="521"/>
      <point x="183" y="521" type="curve" smooth="yes"/>
      <point x="81" y="521"/>
      <point x="24" y="471"/>
      <point x="18" y="374" type="curve"/>
    </contour>
    <contour>
      <point x="203" y="-6"/>
      <point x="234" y="25"/>
      <point x="234" y="62" type="curve" smooth="yes"/>
      <point x="234" y="100"/>
      <point x="203" y="130"/>
      <point x="166" y="130" type="curve" smooth="yes"/>
      <point x="129" y="130"/>
      <point x="99" y="100"/>
      <point x="99" y="62" type="curve" smooth="yes"/>
      <point x="99" y="26"/>
      <point x="129" y="-6"/>
      <point x="166" y="-6" type="curve" smooth="yes"/>
    </contour>
  </outline>
</glyph>
<glyph name="A" format="1">
  <advance width="470"/>
  <unicode hex="0041"/>
  <outline>
    <contour>
      <point x="86" y="140" type="line"/>
      <point x="343" y="140" type="line"/>
      <point x="343" y="202" type="line"/>
      <point x="86" y="202" type="line"/>
    </contour>
    <contour>
      <point x="190" y="511" type="line"/>
      <point x="341" y="0" type="line"/>
      <point x="466" y="0" type="line"/>
      <point x="311" y="511" type="line"/>
    </contour>
    <contour>
      <point x="159" y="511" type="line"/>
      <point x="4" y="0" type="line"/>
      <point x="79" y="0" type="line"/>
      <point x="229" y="511" type="line"/>
    </contour>
    <contour>
      <point x="453" y="7" type="move" name="ogonek"/>
    </contour>
    <contour>
      <point x="235" y="511" type="move" name="top"/>
    </contour>
  </outline>
</glyph>
<glyph name="E" format="1">
  <advance width="392"/>
  <unicode hex="0045"/>
  <outline>
    <contour>
      <point x="57" y="448" type="line"/>
      <point x="363" y="448" type="line"/>
      <point x="363" y="511" type="line"/>
      <point x="57" y="511" type="line"/>
    </contour>
    <contour>
      <point x="57" y="448" type="line"/>
      <point x="57" y="0" type="line"/>
      <point x="187" y="0" type="line"/>
      <point x="187" y="448" type="line"/>
    </contour>
    <contour>
      <point x="57" y="0" type="line"/>
      <point x="377" y="0" type="line"/>
      <point x="377" y="63" type="line"/>
      <point x="57" y="63" type="line"/>
    </contour>
    <contour>
      <point x="187" y="229" type="line"/>
      <point x="343" y="229" type="line"/>
      <point x="343" y="291" type="line"/>
      <point x="187" y="291" type="line"/>
    </contour>
    <contour>
      <point x="422" y="7" type="move" name="ogonek"/>
    </contour>
    <contour>
      <point x="196" y="0" type="move" name="bottom"/>
    </contour>
    <contour>
      <point x="210" y="511" type="move" name="top"/>
    </contour>
  </outline>
</glyph>
<glyph name="F" format="1">
  <advance width="354"/>
  <unicode hex="0046"/>
  <outline>
    <contour>
      <point x="57" y="438" type="line"/>
      <point x="349" y="438" type="line"/>
      <point x="349" y="511" type="line"/>
      <point x="57" y="511" type="line"/>
    </contour>
    <contour>
      <point x="57" y="438" type="line"/>
      <point x="57" y="0" type="line"/>
      <point x="187" y="0" type="line"/>
      <point x="187" y="438" type="line"/>
    </contour>
    <contour>
      <point x="57" y="223" type="line"/>
      <point x="319" y="223" type="line"/>
      <point x="319" y="295" type="line"/>
      <point x="57" y="295" type="line"/>
    </contour>
  </outline>
</glyph>
<glyph name="J" format="1">
  <advance width="353"/>
  <unicode hex="004A"/>
  <outline>
    <contour>
      <point x="306" y="511" type="line"/>
      <point x="176" y="511" type="line"/>
      <point x="176" y="128" type="line" smooth="yes"/>
      <point x="176" y="70"/>
      <point x="166" y="44"/>
      <point x="142" y="44" type="curve" smooth="yes"/>
      <point x="117" y="44"/>
      <point x="107" y="75"/>
      <point x="107" y="158" type="curve"/>
      <point x="-6" y="158" type="line"/>
      <point x="-6" y="57"/>
      <point x="-1" y="-10"/>
      <point x="139" y="-10" type="curve" smooth="yes"/>
      <point x="292" y="-10"/>
      <point x="306" y="60"/>
      <point x="306" y="128" type="curve" smooth="yes"/>
    </contour>
    <contour>
      <point x="241" y="511" type="move" name="top"/>
    </contour>
  </outline>
</glyph>
<glyph name="K" format="1">
  <advance width="452"/>
  <unicode hex="004B"/>
  <outline>
    <contour>
      <point x="57" y="511" type="line"/>
      <point x="57" y="0" type="line"/>
      <point x="187" y="0" type="line"/>
      <point x="187" y="511" type="line"/>
    </contour>
    <contour>
      <point x="467" y="0" type="line"/>
      <point x="297" y="275" type="line"/>
      <point x="160" y="275" type="line"/>
      <point x="329" y="0" type="line"/>
    </contour>
    <contour>
      <point x="129" y="229" type="line"/>
      <point x="264" y="229" type="line"/>
      <point x="264" y="292" type="line"/>
      <point x="129" y="292" type="line"/>
    </contour>
    <contour>
      <point x="374" y="511" type="line"/>
      <point x="224" y="271" type="line"/>
      <point x="298" y="271" type="line"/>
      <point x="451" y="511" type="line"/>
    </contour>
    <contour>
      <point x="227" y="511" type="move" name="top"/>
    </contour>
    <contour>
      <point x="227" y="0" type="move" name="bottom"/>
    </contour>
  </outline>
</glyph>
<glyph name="M" format="1">
  <advance width="630"/>
  <unicode hex="004D"/>
  <outline>
    <contour>
      <point x="59" y="511" type="line"/>
      <point x="46" y="0" type="line"/>
      <point x="125" y="0" type="line"/>
      <point x="134" y="511" type="line"/>
    </contour>
    <contour>
      <point x="396" y="511" type="line"/>
      <point x="270" y="0" type="line"/>
      <point x="346" y="0" type="line"/>
      <point x="475" y="511" type="line"/>
    </contour>
    <contour>
      <point x="446" y="511" type="line"/>
      <point x="455" y="0" type="line"/>
      <point x="586" y="0" type="line"/>
      <point x="571" y="511" type="line"/>
    </contour>
    <contour>
      <point x="347" y="0" type="line"/>
      <point x="225" y="511" type="line"/>
      <point x="109" y="511" type="line"/>
      <point x="234" y="0" type="line"/>
    </contour>
  </outline>
</glyph>
<glyph name="O" format="1">
  <advance width="487"/>
  <unicode hex="004F"/>
  <outline>
    <contour>
      <point x="393" y="-10"/>
      <point x="461" y="74"/>
      <point x="461" y="255" type="curve" smooth="yes"/>
      <point x="461" y="437"/>
      <point x="392" y="521"/>
      <point x="243" y="521" type="curve" smooth="yes"/>
      <point x="95" y="521"/>
      <point x="26" y="438"/>
      <point x="26" y="255" type="curve" smooth="yes"/>
      <point x="26" y="73"/>
      <point x="94" y="-10"/>
      <point x="243" y="-10" type="curve" smooth="yes"/>
    </contour>
    <contour>
      <point x="183" y="42"/>
      <point x="156" y="109"/>
      <point x="156" y="255" type="curve" smooth="yes"/>
      <point x="156" y="402"/>
      <point x="183" y="469"/>
      <point x="243" y="469" type="curve" smooth="yes"/>
      <point x="303" y="469"/>
      <point x="331" y="400"/>
      <point x="331" y="255" type="curve" smooth="yes"/>
      <point x="331" y="111"/>
      <point x="303" y="42"/>
      <point x="243" y="42" type="curve" smooth="yes"/>
    </contour>
    <contour>
      <point x="244" y="511" type="move" name="top"/>
    </contour>
  </outline>
</glyph>
<glyph name="Q" format="1">
  <advance width="480"/>
  <unicode hex="0051"/>
  <outline>
    <contour>
      <point x="213" y="-8" type="line"/>
      <point x="411" y="-117" type="line"/>
      <point x="455" y="-34" type="line"/>
      <point x="257" y="35" type="line"/>
    </contour>
    <component base="O"/>
  </outline>
</glyph>
<glyph name="T" format="1">
  <advance width="375"/>
  <unicode hex="0054"/>
  <outline>
    <contour>
      <point x="-8" y="448" type="line"/>
      <point x="384" y="448" type="line"/>
      <point x="384" y="511" type="line"/>
      <point x="-8" y="511" type="line"/>
    </contour>
    <contour>
      <point x="123" y="448" type="line"/>
      <point x="123" y="0" type="line"/>
      <point x="253" y="0" type="line"/>
      <point x="253" y="448" type="line"/>
    </contour>
    <contour>
      <point x="188" y="255" type="move" name="center"/>
    </contour>
    <contour>
      <point x="188" y="0" type="move" name="bottom"/>
    </contour>
    <contour>
      <point x="188" y="511" type="move" name="top"/>
    </contour>
  </outline>
</glyph>
<glyph name="bracketleft" format="1">
  <advance width="253"/>
  <unicode hex="005B"/>
  <outline>
    <contour>
      <point x="46" y="-25" type="line"/>
      <point x="177" y="-25" type="line"/>
      <point x="177" y="536" type="line"/>
      <point x="46" y="536" type="line"/>
    </contour>
    <contour>
      <point x="165" y="484" type="line"/>
      <point x="245" y="484" type="line"/>
      <point x="245" y="536" type="line"/>
      <point x="165" y="536" type="line"/>
    </contour>
    <contour>
      <point x="165" y="-25" type="line"/>
      <point x="245" y="-25" type="line"/>
      <point x="245" y="26" type="line"/>
      <point x="165" y="26" type="line"/>
    </contour>
  </outline>
</glyph>
<glyph name="backslash" format="1">
  <advance width="304"/>
  <unicode hex="005C"/>
  <outline>
    <contour>
      <point x="134" y="543" type="line"/>
      <point x="4" y="543" type="line"/>
      <point x="170" y="-74" type="line"/>
      <point x="300" y="-74" type="line"/>
    </contour>
  </outline>
</glyph>
<glyph name="underscore" format="1">
  <advance width="386"/>
  <unicode hex="005F"/>
  <outline>
    <contour>
      <point x="39" y="-82" type="line"/>
      <point x="347" y="-82" type="line"/>
      <point x="347" y="0" type="line"/>
      <point x="39" y="0" type="line"/>
    </contour>
  </outline>
</glyph>
<glyph name="grave" format="1">
  <advance width="200"/>
  <unicode hex="0060"/>
  <outline>
    <contour>
      <point x="56" y="618" type="line"/>
      <point x="-18" y="533" type="line"/>
      <point x="124" y="438" type="line"/>
      <point x="149" y="467" type="line"/>
    </contour>
    <contour>
      <point x="95" y="400" type="move" name="_top"/>
    </contour>
  </outline>
</glyph>
<glyph name="a" format="1">
  <advance width="441"/>
  <unicode hex="0061"/>
  <outline>
    <contour>
      <point x="192" y="-10"/>
      <point x="235" y="5"/>
      <point x="270" y="46" type="curve"/>
      <point x="305" y="0" type="line"/>
      <point x="391" y="0" type="line"/>
      <point x="391" y="271" type="line" smooth="yes"/>
      <point x="391" y="361"/>
      <point x="329" y="410"/>
      <point x="217" y="410" type="curve"/>
      <point x="98" y="410"/>
      <point x="58" y="361"/>
      <point x="50" y="270" type="curve"/>
      <point x="157" y="258" type="line"/>
      <point x="160" y="321"/>
      <point x="180" y="346"/>
      <point x="216" y="346" type="curve"/>
      <point x="246" y="346"/>
      <point x="262" y="322"/>
      <point x="262" y="280" type="curve" smooth="yes"/>
      <point x="262" y="239" type="line"/>
      <point x="197" y="227" type="line" smooth="yes"/>
      <point x="91" y="208"/>
      <point x="32" y="176"/>
      <point x="32" y="99" type="curve" smooth="yes"/>
      <point x="32" y="33"/>
      <point x="77" y="-10"/>
      <point x="147" y="-10" type="curve" smooth="yes"/>
    </contour>
    <contour>
      <point x="165" y="57"/>
      <point x="148" y="76"/>
      <point x="148" y="106" type="curve" smooth="yes"/>
      <point x="148" y="146"/>
      <point x="170" y="169"/>
      <point x="216" y="178" type="curve" smooth="yes"/>
      <point x="262" y="187" type="line"/>
      <point x="262" y="90" type="line"/>
      <point x="248" y="74"/>
      <point x="223" y="57"/>
      <point x="195" y="57" type="curve" smooth="yes"/>
    </contour>
    <contour>
      <point x="416" y="7" type="move" name="ogonek"/>
    </contour>
    <contour>
      <point x="225" y="400" type="move" name="top"/>
    </contour>
  </outline>
</glyph>
<glyph name="d" format="1">
  <advance width="461"/>
  <unicode hex="0064"/>
  <outline>
    <contour>
      <point x="316" y="0" type="line"/>
      <point x="404" y="0" type="line"/>
      <point x="404" y="539" type="line"/>
      <point x="275" y="522" type="line"/>
      <point x="275" y="55" type="line"/>
    </contour>
    <contour>
      <point x="324" y="208" type="line"/>
      <point x="305" y="104"/>
      <point x="272" y="54"/>
      <point x="220" y="54" type="curve" smooth="yes"/>
      <point x="179" y="54"/>
      <point x="161" y="97"/>
      <point x="161" y="190" type="curve" smooth="yes"/>
      <point x="161" y="290"/>
      <point x="187" y="337"/>
      <point x="242" y="337" type="curve" smooth="yes"/>
      <point x="279" y="337"/>
      <point x="314" y="311"/>
      <point x="346" y="259" type="curve"/>
      <point x="358" y="326" type="line"/>
      <point x="316" y="379"/>
      <point x="260" y="410"/>
      <point x="202" y="410" type="curve" smooth="yes"/>
      <point x="88" y="410"/>
      <point x="32" y="337"/>
      <point x="32" y="190" type="curve" smooth="yes"/>
      <point x="32" y="58"/>
      <point x="83" y="-10"/>
      <point x="182" y="-10" type="curve" smooth="yes"/>
      <point x="247" y="-10"/>
      <point x="303" y="36"/>
      <point x="338" y="116" type="curve"/>
    </contour>
    <contour>
      <point x="240" y="200" type="move" name="center"/>
    </contour>
    <contour>
      <point x="447" y="400" type="move" name="topright"/>
    </contour>
  </outline>
</glyph>
<glyph name="f" format="1">
  <advance width="256"/>
  <unicode hex="0066"/>
  <outline>
    <contour>
      <point x="1" y="335" type="line"/>
      <point x="264" y="335" type="line"/>
      <point x="264" y="400" type="line"/>
      <point x="1" y="400" type="line"/>
    </contour>
    <contour>
      <point x="326" y="525" type="line"/>
      <point x="288" y="542"/>
      <point x="251" y="550"/>
      <point x="218" y="550" type="curve" smooth="yes"/>
      <point x="109" y="550"/>
      <point x="61" y="498"/>
      <point x="61" y="402" type="curve" smooth="yes"/>
      <point x="61" y="0" type="line"/>
      <point x="190" y="0" type="line"/>
      <point x="190" y="429" type="line" smooth="yes"/>
      <point x="190" y="452"/>
      <point x="202" y="473"/>
      <point x="229" y="473" type="curve" smooth="yes"/>
      <point x="252" y="473"/>
      <point x="273" y="458"/>
      <point x="289" y="433" type="curve"/>
    </contour>
  </outline>
</glyph>
<glyph name="g" format="1">
  <advance width="443"/>
  <unicode hex="0067"/>
  <outline>
    <contour>
      <point x="315" y="-169"/>
      <point x="415" y="-141"/>
      <point x="415" y="-51" type="curve" smooth="yes"/>
      <point x="415" y="13"/>
      <point x="366" y="62"/>
      <point x="280" y="62" type="curve" smooth="yes"/>
      <point x="129" y="62" type="line" smooth="yes"/>
      <point x="113" y="62"/>
      <point x="106" y="71"/>
      <point x="106" y="80" type="curve" smooth="yes"/>
      <point x="106" y="86"/>
      <point x="108" y="96"/>
      <point x="123" y="109" type="curve" smooth="yes"/>
      <point x="172" y="157" type="line"/>
      <point x="117" y="187" type="line"/>
      <point x="67" y="139" type="line" smooth="yes"/>
      <point x="37" y="110"/>
      <point x="33" y="93"/>
      <point x="33" y="68" type="curve" smooth="yes"/>
      <point x="33" y="31"/>
      <point x="57" y="10"/>
      <point x="83" y="3" type="curve"/>
      <point x="52" y="-4"/>
      <point x="24" y="-37"/>
      <point x="24" y="-68" type="curve" smooth="yes"/>
      <point x="24" y="-144"/>
      <point x="104" y="-169"/>
      <point x="211" y="-169" type="curve" smooth="yes"/>
    </contour>
    <contour>
      <point x="136" y="-86"/>
      <point x="136" y="-61" type="curve" smooth="yes"/>
      <point x="136" y="-37"/>
      <point x="149" y="-15"/>
      <point x="165" y="0" type="curve"/>
      <point x="239" y="0" type="line" smooth="yes"/>
      <point x="284" y="0"/>
      <point x="303" y="-25"/>
      <point x="303" y="-51" type="curve" smooth="yes"/>
      <point x="303" y="-84"/>
      <point x="284" y="-105"/>
      <point x="211" y="-105" type="curve" smooth="yes"/>
      <point x="156" y="-105"/>
    </contour>
    <contour>
      <point x="359" y="109"/>
      <point x="390" y="194"/>
      <point x="390" y="263" type="curve" smooth="yes"/>
      <point x="390" y="331"/>
      <point x="359" y="410"/>
      <point x="220" y="410" type="curve" smooth="yes"/>
      <point x="83" y="410"/>
      <point x="53" y="331"/>
      <point x="53" y="263" type="curve" smooth="yes"/>
      <point x="53" y="194"/>
      <point x="83" y="119"/>
      <point x="220" y="115" type="curve" smooth="yes"/>
    </contour>
    <contour>
      <point x="176" y="198"/>
      <point x="176" y="263" type="curve" smooth="yes"/>
      <point x="176" y="327"/>
      <point x="189" y="347"/>
      <point x="221" y="347" type="curve" smooth="yes"/>
      <point x="254" y="347"/>
      <point x="268" y="327"/>
      <point x="268" y="263" type="curve" smooth="yes"/>
      <point x="268" y="198"/>
      <point x="254" y="178"/>
      <point x="221" y="178" type="curve" smooth="yes"/>
      <point x="189" y="178"/>
    </contour>
    <contour>
      <point x="422" y="351" type="line"/>
      <point x="422" y="400" type="line"/>
      <point x="277" y="400" type="line"/>
      <point x="274" y="351" type="line"/>
    </contour>
    <contour>
      <point x="225" y="400" type="move" name="top"/>
    </contour>
  </outline>
</glyph>
<glyph name="l" format="1">
  <advance width="243"/>
  <unicode hex="006C"/>
  <outline>
    <contour>
      <point x="57" y="522" type="line"/>
      <point x="57" y="0" type="line"/>
      <point x="186" y="0" type="line"/>
      <point x="186" y="539" type="line"/>
    </contour>
    <contour>
      <point x="121" y="511" type="move" name="top"/>
    </contour>
    <contour>
      <point x="121" y="0" type="move" name="bottom"/>
    </contour>
    <contour>
      <point x="229" y="400" type="move" name="topright"/>
    </contour>
  </outline>
</glyph>
<glyph name="q" format="1">
  <advance width="461"/>
  <unicode hex="0071"/>
  <outline>
    <contour>
      <point x="344" y="96" type="line"/>
      <point x="312" y="70"/>
      <point x="277" y="54"/>
      <point x="240" y="54" type="curve" smooth="yes"/>
      <point x="180" y="54"/>
      <point x="161" y="107"/>
      <point x="161" y="200" type="curve" smooth="yes"/>
      <point x="161" y="282"/>
      <point x="182" y="337"/>
      <point x="242" y="337" type="curve" smooth="yes"/>
      <point x="279" y="337"/>
      <point x="313" y="314"/>
      <point x="346" y="259" type="curve"/>
      <point x="358" y="326" type="line"/>
      <point x="329" y="362"/>
      <point x="280" y="410"/>
      <point x="202" y="410" type="curve" smooth="yes"/>
      <point x="64" y="410"/>
      <point x="32" y="309"/>
      <point x="32" y="200" type="curve" smooth="yes"/>
      <point x="32" y="92"/>
      <point x="64" y="-10"/>
      <point x="202" y="-10" type="curve" smooth="yes"/>
      <point x="259" y="-10"/>
      <point x="318" y="21"/>
      <point x="358" y="44" type="curve"/>
    </contour>
    <contour>
      <point x="275" y="341" type="line"/>
      <point x="275" y="-149" type="line"/>
      <point x="404" y="-132" type="line"/>
      <point x="404" y="400" type="line"/>
      <point x="346" y="400" type="line"/>
    </contour>
  </outline>
</glyph>
<glyph name="r" format="1">
  <advance width="289"/>
  <unicode hex="0072"/>
  <outline>
    <contour>
      <point x="186" y="219" type="line"/>
      <point x="186" y="283"/>
      <point x="210" y="312"/>
      <point x="292" y="312" type="curve"/>
      <point x="292" y="403" type="line"/>
      <point x="190" y="403"/>
      <point x="139" y="294"/>
      <point x="139" y="219" type="curve"/>
    </contour>
    <contour>
      <point x="115" y="400" type="line"/>
      <point x="57" y="400" type="line"/>
      <point x="57" y="0" type="line"/>
      <point x="186" y="0" type="line"/>
      <point x="186" y="297" type="line"/>
    </contour>
    <contour>
      <point x="164" y="400" type="move" name="top"/>
    </contour>
    <contour>
      <point x="121" y="0" type="move" name="bottom"/>
    </contour>
  </outline>
</glyph>
<glyph name="u" format="1">
  <advance width="468"/>
  <unicode hex="0075"/>
  <outline>
    <contour>
      <point x="341" y="190" type="line"/>
      <point x="302" y="96"/>
      <point x="272" y="57"/>
      <point x="228" y="57" type="curve" smooth="yes"/>
      <point x="187" y="57"/>
      <point x="179" y="89"/>
      <point x="179" y="133" type="curve" smooth="yes"/>
      <point x="179" y="400" type="line"/>
      <point x="50" y="400" type="line"/>
      <point x="50" y="117" type="line" smooth="yes"/>
      <point x="50" y="52"/>
      <point x="77" y="-10"/>
      <point x="182" y="-10" type="curve" smooth="yes"/>
      <point x="280" y="-10"/>
      <point x="314" y="59"/>
      <point x="345" y="111" type="curve"/>
    </contour>
    <contour>
      <point x="328" y="0" type="line"/>
      <point x="411" y="0" type="line"/>
      <point x="411" y="400" type="line"/>
      <point x="282" y="400" type="line"/>
      <point x="282" y="56" type="line"/>
    </contour>
    <contour>
      <point x="438" y="7" type="move" name="ogonek"/>
    </contour>
    <contour>
      <point x="234" y="400" type="move" name="top"/>
    </contour>
  </outline>
</glyph>
<glyph name="v" format="1">
  <advance width="400"/>
  <unicode hex="0076"/>
  <outline>
    <contour>
      <point x="273" y="0" type="line"/>
      <point x="402" y="400" type="line"/>
      <point x="329" y="400" type="line"/>
      <point x="210" y="0" type="line"/>
    </contour>
    <contour>
      <point x="248" y="0" type="line"/>
      <point x="128" y="400" type="line"/>
      <point x="-1" y="400" type="line"/>
      <point x="128" y="0" type="line"/>
    </contour>
  </outline>
</glyph>
<glyph name="x" format="1">
  <advance width="395"/>
  <unicode hex="0078"/>
  <outline>
    <contour>
      <point x="390" y="0" type="line"/>
      <point x="142" y="400" type="line"/>
      <point x="1" y="400" type="line"/>
      <point x="249" y="0" type="line"/>
    </contour>
    <contour>
      <point x="68" y="0" type="line"/>
      <point x="191" y="165" type="line"/>
      <point x="162" y="216" type="line"/>
      <point x="-5" y="0" type="line"/>
    </contour>
    <contour>
      <point x="385" y="400" type="line"/>
      <point x="312" y="400" type="line"/>
      <point x="186" y="234" type="line"/>
      <point x="215" y="183" type="line"/>
    </contour>
  </outline>
</glyph>
<glyph name="bar" format="1">
  <advance width="245"/>
  <unicode hex="007C"/>
  <outline>
    <contour>
      <point x="54" y="-74" type="line"/>
      <point x="191" y="-74" type="line"/>
      <point x="191" y="543" type="line"/>
      <point x="54" y="543" type="line"/>
    </contour>
  </outline>
</glyph>
<glyph name="cent" format="1">
  <advance width="441"/>
  <unicode hex="00A2"/>
  <outline>
    <contour>
      <point x="349" y="27"/>
      <point x="403" y="87"/>
      <point x="410" y="177" type="curve"/>
      <point x="309" y="185" type="line"/>
      <point x="308" y="117"/>
      <point x="279" y="78"/>
      <point x="232" y="78" type="curve" smooth="yes"/>
      <point x="187" y="78"/>
      <point x="163" y="158"/>
      <point x="163" y="255" type="curve" smooth="yes"/>
      <point x="163" y="353"/>
      <point x="180" y="433"/>
      <point x="239" y="433" type="curve" smooth="yes"/>
      <point x="272" y="433"/>
      <point x="303" y="383"/>
      <point x="304" y="316" type="curve"/>
      <point x="404" y="321" type="line"/>
      <point x="398" y="411"/>
      <point x="348" y="484"/>
      <point x="239" y="484" type="curve" smooth="yes"/>
      <point x="81" y="484"/>
      <point x="34" y="374"/>
      <point x="34" y="255" type="curve" smooth="yes"/>
      <point x="34" y="137"/>
      <point x="80" y="27"/>
      <point x="232" y="27" type="curve" smooth="yes"/>
    </contour>
    <contour>
      <point x="266" y="455" type="line"/>
      <point x="266" y="567" type="line"/>
      <point x="181" y="567" type="line"/>
      <point x="181" y="455" type="line"/>
    </contour>
    <contour>
      <point x="181" y="54" type="line"/>
      <point x="181" y="-57" type="line"/>
      <point x="266" y="-57" type="line"/>
      <point x="266" y="54" type="line"/>
    </contour>
  </outline>
</glyph>
<glyph name="currency" format="1">
  <advance width="441"/>
  <unicode hex="00A4"/>
  <outline>
    <contour>
      <point x="346" y="83"/>
      <point x="393" y="168"/>
      <point x="393" y="255" type="curve" smooth="yes"/>
      <point x="393" y="345"/>
      <point x="347" y="428"/>
      <point x="228" y="428" type="curve" smooth="yes"/>
      <point x="101" y="428"/>
      <point x="55" y="345"/>
      <point x="55" y="255" type="curve" smooth="yes"/>
      <point x="55" y="168"/>
      <point x="101" y="83"/>
      <point x="219" y="83" type="curve" smooth="yes"/>
    </contour>
    <contour>
      <point x="165" y="139" type="line"/>
      <point x="104" y="201" type="line"/>
      <point x="6" y="101" type="line"/>
      <point x="66" y="41" type="line"/>
    </contour>
    <contour>
      <point x="436" y="101" type="line"/>
      <point x="335" y="201" type="line"/>
      <point x="276" y="141" type="line"/>
      <point x="375" y="41" type="line"/>
    </contour>
    <contour>
      <point x="163" y="373" type="line"/>
      <point x="66" y="470" type="line"/>
      <point x="6" y="410" type="line"/>
      <point x="102" y="314" type="line"/>
    </contour>
    <contour>
      <point x="169" y="198"/>
      <point x="169" y="255" type="curve" smooth="yes"/>
      <point x="169" y="313"/>
      <point x="181" y="377"/>
      <point x="228" y="377" type="curve" smooth="yes"/>
      <point x="268" y="377"/>
      <point x="279" y="313"/>
      <point x="279" y="255" type="curve" smooth="yes"/>
      <point x="279" y="198"/>
      <point x="267" y="134"/>
      <point x="219" y="134" type="curve" smooth="yes"/>
      <point x="181" y="134"/>
    </contour>
    <contour>
      <point x="436" y="410" type="line"/>
      <point x="374" y="470" type="line"/>
      <point x="272" y="368" type="line"/>
      <point x="333" y="307" type="line"/>
    </contour>
  </outline>
</glyph>
<glyph name="logicalnot" format="1">
  <advance width="406"/>
  <unicode hex="00AC"/>
  <outline>
    <contour>
      <point x="56" y="182" type="line"/>
      <point x="350" y="182" type="line"/>
      <point x="350" y="264" type="line"/>
      <point x="56" y="264" type="line"/>
    </contour>
    <contour>
      <point x="350" y="85" type="line"/>
      <point x="350" y="264" type="line"/>
      <point x="271" y="264" type="line"/>
      <point x="271" y="85" type="line"/>
    </contour>
  </outline>
</glyph>
<glyph name="macron" format="1">
  <advance width="248"/>
  <unicode hex="00AF"/>
  <outline>
    <contour>
      <point x="14" y="455" type="line"/>
      <point x="235" y="455" type="line"/>
      <point x="235" y="542" type="line"/>
      <point x="14" y="542" type="line"/>
    </contour>
    <contour>
      <point x="124" y="400" type="move" name="_top"/>
    </contour>
  </outline>
</glyph>
<glyph name="degree" format="1">
  <advance width="297"/>
  <unicode hex="00B0"/>
  <outline>
    <contour>
      <point x="236" y="262"/>
      <point x="282" y="314"/>
      <point x="282" y="391" type="curve" smooth="yes"/>
      <point x="282" y="477"/>
      <point x="228" y="521"/>
      <point x="147" y="521" type="curve" smooth="yes"/>
      <point x="60" y="521"/>
      <point x="15" y="469"/>
      <point x="15" y="391" type="curve" smooth="yes"/>
      <point x="15" y="305"/>
      <point x="68" y="262"/>
      <point x="147" y="262" type="curve" smooth="yes"/>
    </contour>
    <contour>
      <point x="113" y="346"/>
      <point x="113" y="391" type="curve" smooth="yes"/>
      <point x="113" y="453"/>
      <point x="128" y="470"/>
      <point x="147" y="470" type="curve" smooth="yes"/>
      <point x="175" y="470"/>
      <point x="184" y="439"/>
      <point x="184" y="391" type="curve" smooth="yes"/>
      <point x="184" y="332"/>
      <point x="168" y="314"/>
      <point x="147" y="314" type="curve" smooth="yes"/>
      <point x="120" y="314"/>
    </contour>
  </outline>
</glyph>
<glyph name="threesuperior" format="1">
  <advance width="321"/>
  <unicode hex="00B3"/>
  <outline>
    <contour>
      <point x="129" y="467" type="line"/>
      <point x="130" y="516"/>
      <point x="140" y="529"/>
      <point x="157" y="529" type="curve" smooth="yes"/>
      <point x="175" y="529"/>
      <point x="182" y="525"/>
      <point x="182" y="496" type="curve" smooth="yes"/>
      <point x="182" y="456"/>
      <point x="180" y="441"/>
      <point x="132" y="441" type="curve" smooth="yes"/>
      <point x="110" y="441" type="line"/>
      <point x="110" y="416" type="line"/>
      <point x="147" y="416" type="line" smooth="yes"/>
      <point x="211" y="416"/>
      <point x="276" y="433"/>
      <point x="276" y="496" type="curve" smooth="yes"/>
      <point x="276" y="536"/>
      <point x="235" y="566"/>
      <point x="157" y="566" type="curve" smooth="yes"/>
      <point x="88" y="566"/>
      <point x="51" y="546"/>
      <point x="46" y="477" type="curve"/>
    </contour>
    <contour>
      <point x="41" y="359" type="line"/>
      <point x="46" y="293"/>
      <point x="82" y="274"/>
      <point x="156" y="274" type="curve" smooth="yes"/>
      <point x="238" y="274"/>
      <point x="280" y="314"/>
      <point x="280" y="350" type="curve" smooth="yes"/>
      <point x="280" y="404"/>
      <point x="223" y="422"/>
      <point x="151" y="422" type="curve" smooth="yes"/>
      <point x="110" y="422" type="line"/>
      <point x="110" y="397" type="line"/>
      <point x="131" y="397" type="line" smooth="yes"/>
      <point x="149" y="397"/>
      <point x="187" y="408"/>
      <point x="187" y="350" type="curve" smooth="yes"/>
      <point x="187" y="321"/>
      <point x="176" y="312"/>
      <point x="156" y="312" type="curve" smooth="yes"/>
      <point x="137" y="312"/>
      <point x="125" y="326"/>
      <point x="124" y="370" type="curve"/>
    </contour>
  </outline>
</glyph>
<glyph name="paragraph" format="1">
  <advance width="372"/>
  <unicode hex="00B6"/>
  <outline>
    <contour>
      <point x="171" y="422" type="line"/>
      <point x="171" y="0" type="line"/>
      <point x="301" y="0" type="line"/>
      <point x="301" y="422" type="line"/>
    </contour>
    <contour>
      <point x="301" y="180" type="line"/>
      <point x="301" y="469" type="line"/>
      <point x="151" y="469" type="line" smooth="yes"/>
      <point x="47" y="469"/>
      <point x="1" y="398"/>
      <point x="1" y="324" type="curve" smooth="yes"/>
      <point x="1" y="249"/>
      <point x="47" y="180"/>
      <point x="151" y="180" type="curve"/>
    </contour>
  </outline>
</glyph>
<glyph name="onesuperior" format="1">
  <advance width="311"/>
  <unicode hex="00B9"/>
  <outline>
    <contour>
      <point x="207" y="316" type="line"/>
      <point x="207" y="561" type="line"/>
      <point x="168" y="561" type="line"/>
      <point x="112" y="530" type="line"/>
      <point x="112" y="316" type="line"/>
    </contour>
    <contour>
      <point x="262" y="280" type="line"/>
      <point x="262" y="316" type="line"/>
      <point x="50" y="316" type="line"/>
      <point x="50" y="280" type="line"/>
    </contour>
    <contour>
      <point x="128" y="495" type="line"/>
      <point x="168" y="561" type="line"/>
      <point x="135" y="545"/>
      <point x="82" y="529"/>
      <point x="49" y="528" type="curve"/>
      <point x="49" y="493" type="line"/>
    </contour>
  </outline>
</glyph>
<glyph name="Oslash" format="1">
  <advance width="487"/>
  <unicode hex="00D8"/>
  <outline>
    <component base="O"/>
    <component base="fraction" xOffset="140" yOffset="-39" yScale="1.15"/>
    <contour>
      <point x="244" y="511" type="move" name="top"/>
    </contour>
  </outline>
</glyph>
<glyph name="germandbls" format="1">
  <advance width="475"/>
  <unicode hex="00DF"/>
  <outline>
    <contour>
      <point x="193" y="352" type="line"/>
      <point x="193" y="434"/>
      <point x="201" y="467"/>
      <point x="242" y="467" type="curve" smooth="yes"/>
      <point x="281" y="467"/>
      <point x="294" y="434"/>
      <point x="294" y="352" type="curve" smooth="yes"/>
      <point x="294" y="314"/>
      <point x="282" y="289"/>
      <point x="245" y="289" type="curve" smooth="yes"/>
      <point x="222" y="289" type="line"/>
      <point x="222" y="259" type="line"/>
      <point x="263" y="259" type="line" smooth="yes"/>
      <point x="363" y="259"/>
      <point x="423" y="307"/>
      <point x="423" y="372" type="curve" smooth="yes"/>
      <point x="423" y="455"/>
      <point x="359" y="518"/>
      <point x="242" y="518" type="curve" smooth="yes"/>
      <point x="126" y="518"/>
      <point x="64" y="475"/>
      <point x="64" y="352" type="curve" smooth="yes"/>
      <point x="64" y="0" type="line"/>
      <point x="193" y="0" type="line"/>
    </contour>
    <contour>
      <point x="474" y="215"/>
      <point x="419" y="275"/>
      <point x="305" y="275" type="curve" smooth="yes"/>
      <point x="222" y="275" type="line"/>
      <point x="222" y="244" type="line"/>
      <point x="272" y="244" type="line" smooth="yes"/>
      <point x="310" y="244"/>
      <point x="345" y="232"/>
      <point x="345" y="131" type="curve" smooth="yes"/>
      <point x="345" y="77"/>
      <point x="350" y="41"/>
      <point x="331" y="41" type="curve" smooth="yes"/>
      <point x="316" y="41"/>
      <point x="310" y="68"/>
      <point x="311" y="142" type="curve"/>
      <point x="207" y="142" type="line"/>
      <point x="207" y="32"/>
      <point x="263" y="-10"/>
      <point x="335" y="-10" type="curve" smooth="yes"/>
      <point x="433" y="-10"/>
      <point x="474" y="51"/>
      <point x="474" y="118" type="curve" smooth="yes"/>
    </contour>
  </outline>
</glyph>
<glyph name="eth" format="1">
  <advance width="453"/>
  <unicode hex="00F0"/>
  <outline>
    <contour>
      <point x="371" y="-10"/>
      <point x="414" y="107"/>
      <point x="414" y="189" type="curve" smooth="yes"/>
      <point x="414" y="401"/>
      <point x="305" y="500"/>
      <point x="243" y="556" type="curve"/>
      <point x="182" y="489" type="line"/>
      <point x="233" y="444"/>
      <point x="276" y="398"/>
      <point x="304" y="328" type="curve"/>
      <point x="286" y="347"/>
      <point x="250" y="354"/>
      <point x="223" y="354" type="curve" smooth="yes"/>
      <point x="78" y="354"/>
      <point x="32" y="257"/>
      <point x="32" y="172" type="curve" smooth="yes"/>
      <point x="32" y="87"/>
      <point x="75" y="-10"/>
      <point x="223" y="-10" type="curve" smooth="yes"/>
    </contour>
    <contour>
      <point x="179" y="41"/>
      <point x="161" y="95"/>
      <point x="161" y="172" type="curve" smooth="yes"/>
      <point x="161" y="249"/>
      <point x="180" y="303"/>
      <point x="226" y="303" type="curve" smooth="yes"/>
      <point x="288" y="303"/>
      <point x="293" y="239"/>
      <point x="293" y="172" type="curve" smooth="yes"/>
      <point x="293" y="95"/>
      <point x="276" y="41"/>
      <point x="226" y="41" type="curve" smooth="yes"/>
    </contour>
    <component base="eslash" xOffset="179" yOffset="189"/>
  </outline>
</glyph>
<glyph name="divide" format="1">
  <advance width="406"/>
  <unicode hex="00F7"/>
  <outline>
    <contour>
      <point x="56" y="182" type="line"/>
      <point x="350" y="182" type="line"/>
      <point x="350" y="264" type="line"/>
      <point x="56" y="264" type="line"/>
    </contour>
    <contour>
      <point x="254" y="24"/>
      <point x="257" y="56"/>
      <point x="257" y="84" type="curve" smooth="yes"/>
      <point x="257" y="113"/>
      <point x="254" y="146"/>
      <point x="202" y="146" type="curve" smooth="yes"/>
      <point x="152" y="146"/>
      <point x="149" y="113"/>
      <point x="149" y="84" type="curve" smooth="yes"/>
      <point x="149" y="56"/>
      <point x="152" y="24"/>
      <point x="202" y="24" type="curve" smooth="yes"/>
    </contour>
    <contour>
      <point x="254" y="293"/>
      <point x="257" y="325"/>
      <point x="257" y="353" type="curve" smooth="yes"/>
      <point x="257" y="382"/>
      <point x="254" y="415"/>
      <point x="202" y="415" type="curve" smooth="yes"/>
      <point x="152" y="415"/>
      <point x="149" y="382"/>
      <point x="149" y="353" type="curve" smooth="yes"/>
      <point x="149" y="325"/>
      <point x="152" y="293"/>
      <point x="202" y="293" type="curve" smooth="yes"/>
    </contour>
  </outline>
</glyph>
<glyph name="oslash" format="1">
  <advance width="446"/>
  <unicode hex="00F8"/>
  <outline>
    <component base="o"/>
    <component base="fraction" xOffset="120" yOffset="-55"/>
    <contour>
      <point x="206" y="400" type="move" name="top"/>
    </contour>
  </outline>
</glyph>
<glyph name="kgreenlandic" format="1">
  <advance width="426"/>
  <unicode hex="0138"/>
  <outline>
    <contour>
      <point x="186" y="0" type="line"/>
      <point x="186" y="400" type="line"/>
      <point x="57" y="400" type="line"/>
      <point x="57" y="0" type="line"/>
    </contour>
    <contour>
      <point x="100" y="174" type="line"/>
      <point x="232" y="174" type="line"/>
      <point x="232" y="258" type="line"/>
      <point x="100" y="258" type="line"/>
    </contour>
    <contour>
      <point x="285" y="400" type="line"/>
      <point x="170" y="232" type="line"/>
      <point x="269" y="181" type="line"/>
      <point x="424" y="400" type="line"/>
    </contour>
    <contour>
      <point x="436" y="0" type="line"/>
      <point x="285" y="214" type="line"/>
      <point x="151" y="214" type="line"/>
      <point x="298" y="0" type="line"/>
    </contour>
  </outline>
</glyph>
<glyph name="Eng" format="1">
  <advance width="533"/>
  <unicode hex="014A"/>
  <outline>
    <contour>
      <point x="211" y="-145" type="line"/>
      <point x="249" y="-161"/>
      <point x="287" y="-169"/>
      <point x="318" y="-169" type="curve" smooth="yes"/>
      <point x="428" y="-169"/>
      <point x="476" y="-118"/>
      <point x="476" y="-22" type="curve" smooth="yes"/>
      <point x="476" y="0" type="line"/>
      <point x="340" y="0" type="line"/>
      <point x="347" y="-14" type="line"/>
      <point x="347" y="-48" type="line" smooth="yes"/>
      <point x="347" y="-73"/>
      <point x="334" y="-93"/>
      <point x="305" y="-93" type="curve" smooth="yes"/>
      <point x="281" y="-93"/>
      <point x="263" y="-78"/>
      <point x="248" y="-52" type="curve"/>
    </contour>
    <component base="N"/>
  </outline>
</glyph>
<glyph name="OE" format="1">
  <advance width="651"/>
  <unicode hex="0152"/>
  <outline>
    <contour>
      <point x="414" y="0"/>
      <point x="454" y="119"/>
      <point x="454" y="255" type="curve" smooth="yes"/>
      <point x="454" y="391"/>
      <point x="414" y="511"/>
      <point x="240" y="511" type="curve" smooth="yes"/>
      <point x="66" y="511"/>
      <point x="26" y="391"/>
      <point x="26" y="255" type="curve" smooth="yes"/>
      <point x="26" y="119"/>
      <point x="66" y="0"/>
      <point x="240" y="0" type="curve" smooth="yes"/>
    </contour>
    <contour>
      <point x="172" y="63"/>
      <point x="156" y="152"/>
      <point x="156" y="255" type="curve" smooth="yes"/>
      <point x="156" y="359"/>
      <point x="173" y="448"/>
      <point x="241" y="448" type="curve" smooth="yes"/>
      <point x="309" y="448"/>
      <point x="324" y="359"/>
      <point x="324" y="255" type="curve" smooth="yes"/>
      <point x="324" y="152"/>
      <point x="309" y="63"/>
      <point x="240" y="63" type="curve" smooth="yes"/>
    </contour>
    <contour>
      <point x="241" y="448" type="line"/>
      <point x="622" y="448" type="line"/>
      <point x="622" y="511" type="line"/>
      <point x="241" y="511" type="line"/>
    </contour>
    <contour>
      <point x="240" y="0" type="line"/>
      <point x="636" y="0" type="line"/>
      <point x="636" y="63" type="line"/>
      <point x="240" y="63" type="line"/>
    </contour>
    <contour>
      <point x="448" y="229" type="line"/>
      <point x="602" y="229" type="line"/>
      <point x="602" y="291" type="line"/>
      <point x="448" y="291" type="line"/>
    </contour>
    <contour>
      <point x="325" y="511" type="move" name="top"/>
    </contour>
  </outline>
</glyph>
<glyph name="circumflex" format="1">
  <advance width="265"/>
  <unicode hex="02C6"/>
  <outline>
    <contour>
      <point x="57" y="434" type="line"/>
      <point x="132" y="501" type="line"/>
      <point x="209" y="434" type="line"/>
      <point x="243" y="463" type="line"/>
      <point x="163" y="597" type="line"/>
      <point x="103" y="597" type="line"/>
      <point x="22" y="463" type="line"/>
    </contour>
    <contour>
      <point x="133" y="400" type="move" name="_top"/>
    </contour>
  </outline>
</glyph>
<glyph name="breve" format="1">
  <advance width="278"/>
  <unicode hex="02D8"/>
  <outline>
    <contour>
      <point x="198" y="575" type="line"/>
      <point x="198" y="538"/>
      <point x="180" y="516"/>
      <point x="138" y="516" type="curve" smooth="yes"/>
      <point x="97" y="516"/>
      <point x="77" y="538"/>
      <point x="77" y="575" type="curve"/>
      <point x="26" y="575" type="line"/>
      <point x="26" y="511"/>
      <point x="45" y="441"/>
      <point x="138" y="441" type="curve" smooth="yes"/>
      <point x="233" y="441"/>
      <point x="252" y="511"/>
      <point x="252" y="575" type="curve"/>
    </contour>
    <contour>
      <point x="140" y="400" type="move" name="_top"/>
    </contour>
  </outline>
</glyph>
<glyph name="ogonek" format="1">
  <advance width="212"/>
  <unicode hex="02DB"/>
  <outline>
    <contour>
      <point x="164" y="-154"/>
      <point x="203" y="-110"/>
      <point x="219" y="-79" type="curve"/>
      <point x="181" y="-54" type="line"/>
      <point x="168" y="-72"/>
      <point x="155" y="-94"/>
      <point x="128" y="-94" type="curve" smooth="yes"/>
      <point x="112" y="-94"/>
      <point x="99" y="-84"/>
      <point x="99" y="-69" type="curve" smooth="yes"/>
      <point x="99" y="-54"/>
      <point x="106" y="-39"/>
      <point x="137" y="-19" type="curve" smooth="yes"/>
      <point x="170" y="0" type="line"/>
      <point x="132" y="19" type="line"/>
      <point x="101" y="-2" type="line" smooth="yes"/>
      <point x="67" y="-22"/>
      <point x="39" y="-49"/>
      <point x="39" y="-87" type="curve" smooth="yes"/>
      <point x="39" y="-127"/>
      <point x="71" y="-154"/>
      <point x="113" y="-154" type="curve" smooth="yes"/>
    </contour>
    <contour>
      <point x="215" y="7" type="move" name="_ogonek"/>
    </contour>
  </outline>
</glyph>
<glyph name="anusvara-deva" format="1">
  <advance width="0"/>
  <unicode hex="0902"/>
  <outline>
    <contour>
      <point x="-173" y="740"/>
      <point x="-203" y="711"/>
      <point x="-203" y="675" type="curve" smooth="yes"/>
      <point x="-203" y="636"/>
      <point x="-173" y="605"/>
      <point x="-135" y="605" type="curve" smooth="yes"/>
      <point x="-97" y="605"/>
      <point x="-68" y="636"/>
      <point x="-68" y="675" type="curve" smooth="yes"/>
      <point x="-68" y="711"/>
      <point x="-97" y="740"/>
      <point x="-135" y="740" type="curve" smooth="yes"/>
    </contour>
    <contour>
      <point x="-135" y="500" type="move" name="_top"/>
    </contour>
  </outline>
</glyph>
<glyph name="a-deva" format="1">
  <advance width="718"/>
  <unicode hex="0905"/>
  <outline>
    <contour>
      <point x="126" y="510"/>
      <point x="38" y="461"/>
      <point x="38" y="400" type="curve" smooth="yes"/>
      <point x="38" y="355"/>
      <point x="71" y="330"/>
      <point x="111" y="330" type="curve" smooth="yes"/>
      <point x="140" y="330"/>
      <point x="172" y="343"/>
      <point x="198" y="370" type="curve"/>
      <point x="183" y="383"/>
      <point x="174" y="399"/>
      <point x="174" y="415" type="curve" smooth="yes"/>
      <point x="174" y="446"/>
      <point x="203" y="470"/>
      <point x="233" y="470" type="curve" smooth="yes"/>
      <point x="269" y="470"/>
      <point x="298" y="443"/>
      <point x="298" y="410" type="curve" smooth="yes"/>
      <point x="298" y="344"/>
      <point x="267" y="310"/>
      <point x="173" y="310" type="curve"/>
      <point x="138" y="250" type="line"/>
      <point x="156" y="257"/>
      <point x="178" y="260"/>
      <point x="203" y="260" type="curve" smooth="yes"/>
      <point x="275" y="260"/>
      <point x="333" y="207"/>
      <point x="333" y="140" type="curve" smooth="yes"/>
      <point x="333" y="83"/>
      <point x="292" y="35"/>
      <point x="243" y="35" type="curve" smooth="yes"/>
      <point x="202" y="35"/>
      <point x="164" y="78"/>
      <point x="164" y="130" type="curve" smooth="yes"/>
      <point x="164" y="152"/>
      <point x="167" y="167"/>
      <point x="173" y="190" type="curve"/>
      <point x="73" y="190"/>
      <point x="28" y="149"/>
      <point x="28" y="110" type="curve" smooth="yes"/>
      <point x="28" y="33"/>
      <point x="125" y="-10"/>
      <point x="243" y="-10" type="curve" smooth="yes"/>
      <point x="368" y="-10"/>
      <point x="469" y="57"/>
      <point x="469" y="140" type="curve" smooth="yes"/>
      <point x="469" y="228"/>
      <point x="409" y="275"/>
      <point x="313" y="300" type="curve"/>
      <point x="385" y="319"/>
      <point x="434" y="365"/>
      <point x="434" y="410" type="curve" smooth="yes"/>
      <point x="434" y="465"/>
      <point x="344" y="510"/>
      <point x="233" y="510" type="curve" smooth="yes"/>
    </contour>
    <contour>
      <point x="468" y="500" type="line"/>
      <point x="468" y="470" type="line"/>
      <point x="518" y="470" type="line"/>
      <point x="518" y="285" type="line"/>
      <point x="461" y="285"/>
      <point x="409" y="258"/>
      <point x="408" y="223" type="curve"/>
      <point x="387" y="190" type="line"/>
      <point x="424" y="224"/>
      <point x="462" y="238"/>
      <point x="486" y="238" type="curve" smooth="yes"/>
      <point x="497" y="238"/>
      <point x="507" y="235"/>
      <point x="518" y="230" type="curve"/>
      <point x="518" y="0" type="line"/>
      <point x="648" y="0" type="line"/>
      <point x="648" y="470" type="line"/>
      <point x="728" y="470" type="line"/>
      <point x="728" y="500" type="line"/>
    </contour>
    <contour>
      <point x="243" y="-110" type="move" name="nukta"/>
    </contour>
    <contour>
      <point x="583" y="0" type="move" name="bottom"/>
    </contour>
    <contour>
      <point x="583" y="500" type="move" name="top"/>
    </contour>
  </outline>
</glyph>
<glyph name="aa-deva" format="1">
  <advance width="988"/>
  <unicode hex="0906"/>
  <outline>
    <component base="a-deva"/>
    <component base="aaMatra-deva" xOffset="718"/>
    <contour>
      <point x="253" y="-110" type="move" name="nukta"/>
    </contour>
    <contour>
      <point x="718" y="0" type="move" name="bottom"/>
    </contour>
    <contour>
      <point x="718" y="500" type="move" name="top"/>
    </contour>
  </outline>
</glyph>
<glyph name="i-deva" format="1">
  <advance width="546"/>
  <unicode hex="0907"/>
  <outline>
    <contour>
      <point x="384" y="64"/>
      <point x="317" y="31"/>
      <point x="251" y="31" type="curve" smooth="yes"/>
      <point x="182" y="31"/>
      <point x="116" y="58"/>
      <point x="116" y="112" type="curve" smooth="yes"/>
      <point x="116" y="131"/>
      <point x="126" y="141"/>
      <point x="135" y="141" type="curve" smooth="yes"/>
      <point x="145" y="141"/>
      <point x="166" y="132"/>
      <point x="220" y="15" type="curve" smooth="yes"/>
      <point x="249" y="-48"/>
      <point x="300" y="-90"/>
      <point x="365" y="-90" type="curve" smooth="yes"/>
      <point x="422" y="-90"/>
      <point x="466" y="-74"/>
      <point x="486" y="-47" type="curve"/>
      <point x="415" y="-47"/>
      <point x="376" y="-37"/>
      <point x="342" y="29" type="curve" smooth="yes"/>
      <point x="290" y="130"/>
      <point x="239" y="182"/>
      <point x="128" y="182" type="curve" smooth="yes"/>
      <point x="67" y="182"/>
      <point x="19" y="149"/>
      <point x="19" y="108" type="curve" smooth="yes"/>
      <point x="19" y="30"/>
      <point x="115" y="-10"/>
      <point x="231" y="-10" type="curve" smooth="yes"/>
      <point x="355" y="-10"/>
      <point x="520" y="28"/>
      <point x="520" y="150" type="curve"/>
      <point x="520" y="317"/>
      <point x="215" y="294"/>
      <point x="215" y="365" type="curve" smooth="yes"/>
      <point x="215" y="378"/>
      <point x="240" y="390"/>
      <point x="264" y="390" type="curve" smooth="yes"/>
      <point x="297" y="390"/>
      <point x="328" y="375"/>
      <point x="353" y="350" type="curve"/>
      <point x="464" y="350" type="line"/>
      <point x="464" y="470" type="line"/>
      <point x="556" y="470" type="line"/>
      <point x="556" y="500" type="line"/>
      <point x="-10" y="500" type="line"/>
      <point x="-10" y="470" type="line"/>
      <point x="334" y="470" type="line"/>
      <point x="334" y="413" type="line"/>
      <point x="307" y="426"/>
      <point x="285" y="430"/>
      <point x="239" y="430" type="curve" smooth="yes"/>
      <point x="151" y="430"/>
      <point x="79" y="401"/>
      <point x="79" y="345" type="curve" smooth="yes"/>
      <point x="79" y="199"/>
      <point x="384" y="248"/>
      <point x="384" y="125" type="curve"/>
    </contour>
    <contour>
      <point x="399" y="500" type="move" name="top"/>
    </contour>
  </outline>
</glyph>
<glyph name="u-deva" format="1">
  <advance width="499"/>
  <unicode hex="0909"/>
  <outline>
    <contour>
      <point x="-10" y="500" type="line"/>
      <point x="-10" y="470" type="line"/>
      <point x="509" y="470" type="line"/>
      <point x="509" y="500" type="line"/>
    </contour>
    <contour>
      <point x="148" y="250" type="line"/>
      <point x="166" y="257"/>
      <point x="188" y="260"/>
      <point x="213" y="260" type="curve" smooth="yes"/>
      <point x="285" y="260"/>
      <point x="343" y="207"/>
      <point x="343" y="140" type="curve" smooth="yes"/>
      <point x="343" y="83"/>
      <point x="302" y="35"/>
      <point x="253" y="35" type="curve" smooth="yes"/>
      <point x="212" y="35"/>
      <point x="174" y="78"/>
      <point x="174" y="130" type="curve" smooth="yes"/>
      <point x="174" y="152"/>
      <point x="177" y="167"/>
      <point x="183" y="190" type="curve"/>
      <point x="83" y="190"/>
      <point x="38" y="149"/>
      <point x="38" y="110" type="curve" smooth="yes"/>
      <point x="38" y="33"/>
      <point x="135" y="-10"/>
      <point x="253" y="-10" type="curve" smooth="yes"/>
      <point x="378" y="-10"/>
      <point x="479" y="57"/>
      <point x="479" y="140" type="curve" smooth="yes"/>
      <point x="479" y="228"/>
      <point x="419" y="275"/>
      <point x="323" y="300" type="curve"/>
      <point x="395" y="317"/>
      <point x="444" y="359"/>
      <point x="444" y="400" type="curve" smooth="yes"/>
      <point x="444" y="456"/>
      <point x="339" y="492"/>
      <point x="208" y="492" type="curve"/>
      <point x="203" y="470" type="line"/>
      <point x="284" y="470"/>
      <point x="308" y="435"/>
      <point x="308" y="390" type="curve" smooth="yes"/>
      <point x="308" y="336"/>
      <point x="275" y="310"/>
      <point x="183" y="310" type="curve"/>
    </contour>
    <contour>
      <point x="305" y="500" type="move" name="top"/>
    </contour>
    <contour>
      <point x="265" y="0" type="move" name="bottom"/>
    </contour>
  </outline>
</glyph>
<glyph name="rVocalic-deva" format="1">
  <advance width="914"/>
  <unicode hex="090B"/>
  <outline>
    <contour>
      <point x="-10" y="500" type="line"/>
      <point x="-10" y="470" type="line"/>
      <point x="431" y="470" type="line"/>
      <point x="431" y="205" type="line"/>
      <point x="331" y="145" type="line"/>
      <point x="367" y="188"/>
      <point x="387" y="225"/>
      <point x="387" y="250" type="curve" smooth="yes"/>
      <point x="387" y="350"/>
      <point x="305" y="415"/>
      <point x="181" y="415" type="curve" smooth="yes"/>
      <point x="102" y="415"/>
      <point x="36" y="380"/>
      <point x="11" y="325" type="curve"/>
      <point x="101" y="250" type="line"/>
      <point x="101" y="317"/>
      <point x="139" y="370"/>
      <point x="186" y="370" type="curve" smooth="yes"/>
      <point x="222" y="370"/>
      <point x="251" y="307"/>
      <point x="251" y="230" type="curve" smooth="yes"/>
      <point x="251" y="157"/>
      <point x="220" y="93"/>
      <point x="171" y="65" type="curve" smooth="yes"/>
      <point x="101" y="25" type="line"/>
      <point x="116" y="-10" type="line"/>
      <point x="431" y="155" type="line"/>
      <point x="431" y="0" type="line"/>
      <point x="561" y="0" type="line"/>
      <point x="561" y="200" type="line"/>
      <point x="641" y="250" type="line"/>
      <point x="712" y="209"/>
      <point x="756" y="160"/>
      <point x="756" y="120" type="curve" smooth="yes"/>
      <point x="756" y="71"/>
      <point x="708" y="30"/>
      <point x="651" y="30" type="curve"/>
      <point x="671" y="0" type="line"/>
      <point x="794" y="0"/>
      <point x="892" y="58"/>
      <point x="892" y="130" type="curve" smooth="yes"/>
      <point x="892" y="185"/>
      <point x="842" y="248"/>
      <point x="761" y="295" type="curve"/>
      <point x="786" y="310"/>
      <point x="801" y="330"/>
      <point x="801" y="350" type="curve" smooth="yes"/>
      <point x="801" y="386"/>
      <point x="763" y="415"/>
      <point x="716" y="415" type="curve" smooth="yes"/>
      <point x="659" y="415"/>
      <point x="611" y="374"/>
      <point x="611" y="325" type="curve" smooth="yes"/>
      <point x="611" y="310"/>
      <point x="614" y="296"/>
      <point x="621" y="285" type="curve"/>
      <point x="561" y="250" type="line"/>
      <point x="561" y="470" type="line"/>
      <point x="924" y="470" type="line"/>
      <point x="924" y="500" type="line"/>
    </contour>
    <contour>
      <point x="496" y="500" type="move" name="top"/>
    </contour>
    <contour>
      <point x="496" y="0" type="move" name="bottom"/>
    </contour>
  </outline>
</glyph>
<glyph name="e-deva" format="1">
  <advance width="510"/>
  <unicode hex="090F"/>
  <outline>
    <contour>
      <point x="-10" y="500" type="line"/>
      <point x="-10" y="470" type="line"/>
      <point x="42" y="470" type="line"/>
      <point x="42" y="250" type="line" smooth="yes"/>
      <point x="42" y="123"/>
      <point x="407" y="19"/>
      <point x="407" y="-100" type="curve" smooth="yes"/>
      <point x="407" y="-161"/>
      <point x="366" y="-190"/>
      <point x="317" y="-190" type="curve" smooth="yes"/>
      <point x="270" y="-190"/>
      <point x="222" y="-137"/>
      <point x="202" y="-60" type="curve"/>
      <point x="82" y="-120" type="line"/>
      <point x="106" y="-187"/>
      <point x="194" y="-230"/>
      <point x="302" y="-230" type="curve" smooth="yes"/>
      <point x="410" y="-230"/>
      <point x="497" y="-157"/>
      <point x="497" y="-68" type="curve" smooth="yes"/>
      <point x="497" y="118"/>
      <point x="172" y="175"/>
      <point x="172" y="280" type="curve" smooth="yes"/>
      <point x="172" y="470" type="line"/>
      <point x="242" y="470" type="line"/>
      <point x="303" y="434"/>
      <point x="342" y="364"/>
      <point x="342" y="285" type="curve" smooth="yes"/>
      <point x="342" y="241"/>
      <point x="322" y="199"/>
      <point x="287" y="170" type="curve"/>
      <point x="392" y="170"/>
      <point x="478" y="226"/>
      <point x="478" y="295" type="curve" smooth="yes"/>
      <point x="478" y="360"/>
      <point x="447" y="425"/>
      <point x="392" y="470" type="curve"/>
      <point x="520" y="470" type="line"/>
      <point x="520" y="500" type="line"/>
    </contour>
    <contour>
      <point x="310" y="500" type="move" name="top"/>
    </contour>
  </outline>
</glyph>
<glyph name="au-deva" format="1">
  <advance width="988"/>
  <unicode hex="0914"/>
  <outline>
    <component base="aa-deva"/>
    <component base="aiMatra-deva" xOffset="859"/>
    <contour>
      <point x="1024" y="650" type="move" name="top"/>
    </contour>
  </outline>
</glyph>
<glyph name="ka-deva" format="1">
  <advance width="854"/>
  <unicode hex="0915"/>
  <outline>
    <contour>
      <point x="-10" y="500" type="line"/>
      <point x="-10" y="470" type="line"/>
      <point x="362" y="470" type="line"/>
      <point x="362" y="330" type="line"/>
      <point x="345" y="383"/>
      <point x="286" y="420"/>
      <point x="217" y="420" type="curve" smooth="yes"/>
      <point x="114" y="420"/>
      <point x="32" y="334"/>
      <point x="32" y="227" type="curve" smooth="yes"/>
      <point x="32" y="120"/>
      <point x="114" y="35"/>
      <point x="217" y="35" type="curve" smooth="yes"/>
      <point x="274" y="35"/>
      <point x="330" y="69"/>
      <point x="362" y="125" type="curve"/>
      <point x="362" y="0" type="line"/>
      <point x="492" y="0" type="line"/>
      <point x="492" y="205" type="line" smooth="yes"/>
      <point x="492" y="282"/>
      <point x="533" y="345"/>
      <point x="582" y="345" type="curve" smooth="yes"/>
      <point x="639" y="345"/>
      <point x="687" y="282"/>
      <point x="687" y="205" type="curve" smooth="yes"/>
      <point x="687" y="134"/>
      <point x="636" y="75"/>
      <point x="572" y="75" type="curve" smooth="yes"/>
      <point x="547" y="75"/>
      <point x="525" y="81"/>
      <point x="512" y="90" type="curve"/>
      <point x="524" y="57"/>
      <point x="567" y="35"/>
      <point x="622" y="35" type="curve" smooth="yes"/>
      <point x="730" y="36"/>
      <point x="817" y="118"/>
      <point x="817" y="220" type="curve" smooth="yes"/>
      <point x="817" y="328"/>
      <point x="732" y="415"/>
      <point x="627" y="415" type="curve" smooth="yes"/>
      <point x="572" y="415"/>
      <point x="519" y="377"/>
      <point x="492" y="320" type="curve"/>
      <point x="492" y="470" type="line"/>
      <point x="864" y="470" type="line"/>
      <point x="864" y="500" type="line"/>
    </contour>
    <contour>
      <point x="240" y="375"/>
      <point x="247" y="303"/>
      <point x="247" y="260" type="curve"/>
      <point x="362" y="308" type="line"/>
      <point x="362" y="205" type="line"/>
      <point x="346" y="144"/>
      <point x="300" y="100"/>
      <point x="252" y="100" type="curve" smooth="yes"/>
      <point x="203" y="100"/>
      <point x="162" y="172"/>
      <point x="162" y="260" type="curve" smooth="yes"/>
      <point x="162" y="324"/>
      <point x="186" y="375"/>
      <point x="217" y="375" type="curve" smooth="yes"/>
    </contour>
    <contour>
      <point x="189" y="-83" type="move" name="nukta"/>
    </contour>
    <contour>
      <point x="427" y="0" type="move" name="bottom"/>
    </contour>
    <contour>
      <point x="427" y="500" type="move" name="top"/>
    </contour>
  </outline>
</glyph>
<glyph name="gha-deva" format="1">
  <advance width="569"/>
  <unicode hex="0918"/>
  <outline>
    <contour>
      <point x="-10" y="500" type="line"/>
      <point x="-10" y="470" type="line"/>
      <point x="79" y="470" type="line"/>
      <point x="67" y="461"/>
      <point x="59" y="443"/>
      <point x="59" y="420" type="curve" smooth="yes"/>
      <point x="59" y="379"/>
      <point x="98" y="340"/>
      <point x="154" y="325" type="curve"/>
      <point x="86" y="309"/>
      <point x="34" y="261"/>
      <point x="34" y="190" type="curve" smooth="yes"/>
      <point x="34" y="110"/>
      <point x="111" y="45"/>
      <point x="204" y="45" type="curve" smooth="yes"/>
      <point x="277" y="45"/>
      <point x="341" y="72"/>
      <point x="369" y="125" type="curve"/>
      <point x="369" y="0" type="line"/>
      <point x="499" y="0" type="line"/>
      <point x="499" y="470" type="line"/>
      <point x="579" y="470" type="line"/>
      <point x="579" y="500" type="line"/>
    </contour>
    <contour>
      <point x="369" y="225" type="line"/>
      <point x="356" y="153"/>
      <point x="315" y="106"/>
      <point x="259" y="106" type="curve" smooth="yes"/>
      <point x="195" y="106"/>
      <point x="170" y="153"/>
      <point x="170" y="210" type="curve" smooth="yes"/>
      <point x="170" y="264"/>
      <point x="212" y="305"/>
      <point x="264" y="305" type="curve" smooth="yes"/>
      <point x="304" y="305" type="line"/>
      <point x="304" y="340" type="line"/>
      <point x="254" y="340" type="line" smooth="yes"/>
      <point x="222" y="340"/>
      <point x="195" y="371"/>
      <point x="195" y="410" type="curve" smooth="yes"/>
      <point x="195" y="441"/>
      <point x="214" y="466"/>
      <point x="239" y="470" type="curve"/>
      <point x="369" y="470" type="line"/>
    </contour>
    <contour>
      <point x="177" y="-65" type="move" name="nukta"/>
    </contour>
    <contour>
      <point x="434" y="0" type="move" name="bottom"/>
    </contour>
    <contour>
      <point x="434" y="500" type="move" name="top"/>
    </contour>
  </outline>
</glyph>
<glyph name="cha-deva" format="1">
  <advance width="613"/>
  <unicode hex="091B"/>
  <outline>
    <contour>
      <point x="407" y="400" type="line"/>
      <point x="537" y="400" type="line"/>
      <point x="537" y="479" type="line"/>
      <point x="407" y="479" type="line"/>
    </contour>
    <contour>
      <point x="-10" y="500" type="line"/>
      <point x="-10" y="470" type="line"/>
      <point x="87" y="470" type="line"/>
      <point x="66" y="454"/>
      <point x="52" y="430"/>
      <point x="52" y="405" type="curve" smooth="yes"/>
      <point x="52" y="368"/>
      <point x="87" y="330"/>
      <point x="142" y="310" type="curve"/>
      <point x="81" y="294"/>
      <point x="37" y="238"/>
      <point x="37" y="175" type="curve" smooth="yes"/>
      <point x="37" y="79"/>
      <point x="162" y="0"/>
      <point x="317" y="0" type="curve" smooth="yes"/>
      <point x="480" y="0"/>
      <point x="612" y="103"/>
      <point x="612" y="230" type="curve" smooth="yes"/>
      <point x="612" y="354"/>
      <point x="554" y="419"/>
      <point x="442" y="419" type="curve"/>
      <point x="347" y="419"/>
      <point x="297" y="346"/>
      <point x="297" y="285" type="curve" smooth="yes"/>
      <point x="297" y="187"/>
      <point x="383" y="104"/>
      <point x="496" y="107" type="curve"/>
      <point x="496" y="130" type="line"/>
      <point x="444" y="155"/>
      <point x="417" y="214"/>
      <point x="417" y="285" type="curve" smooth="yes"/>
      <point x="417" y="318"/>
      <point x="427" y="370"/>
      <point x="447" y="370" type="curve" smooth="yes"/>
      <point x="467" y="370"/>
      <point x="477" y="319"/>
      <point x="477" y="280" type="curve"/>
      <point x="477" y="89"/>
      <point x="411" y="35"/>
      <point x="317" y="35" type="curve" smooth="yes"/>
      <point x="237" y="35"/>
      <point x="173" y="98"/>
      <point x="173" y="175" type="curve" smooth="yes"/>
      <point x="173" y="240"/>
      <point x="211" y="287"/>
      <point x="267" y="295" type="curve"/>
      <point x="267" y="325" type="line"/>
      <point x="219" y="334"/>
      <point x="188" y="364"/>
      <point x="188" y="405" type="curve" smooth="yes"/>
      <point x="188" y="434"/>
      <point x="201" y="461"/>
      <point x="222" y="470" type="curve"/>
      <point x="623" y="470" type="line"/>
      <point x="623" y="500" type="line"/>
    </contour>
    <contour>
      <point x="472" y="500" type="move" name="top"/>
    </contour>
    <contour>
      <point x="317" y="0" type="move" name="bottom"/>
    </contour>
  </outline>
</glyph>
<glyph name="nya-deva" format="1">
  <advance width="686"/>
  <unicode hex="091E"/>
  <outline>
    <contour>
      <point x="-10" y="500" type="line"/>
      <point x="-10" y="470" type="line"/>
      <point x="486" y="470" type="line"/>
      <point x="486" y="300" type="line"/>
      <point x="480" y="290"/>
      <point x="473" y="285"/>
      <point x="465" y="285" type="curve" smooth="yes"/>
      <point x="455" y="285"/>
      <point x="443" y="294"/>
      <point x="431" y="315" type="curve" smooth="yes"/>
      <point x="394" y="380"/>
      <point x="324" y="420"/>
      <point x="251" y="420" type="curve" smooth="yes"/>
      <point x="216" y="420"/>
      <point x="204" y="417"/>
      <point x="186" y="410" type="curve"/>
      <point x="141" y="340" type="line"/>
      <point x="282" y="340"/>
      <point x="341" y="284"/>
      <point x="341" y="200" type="curve" smooth="yes"/>
      <point x="341" y="133"/>
      <point x="298" y="80"/>
      <point x="246" y="80" type="curve" smooth="yes"/>
      <point x="182" y="80"/>
      <point x="131" y="157"/>
      <point x="131" y="250" type="curve"/>
      <point x="16" y="185" type="line"/>
      <point x="26" y="100"/>
      <point x="102" y="30"/>
      <point x="221" y="30" type="curve" smooth="yes"/>
      <point x="337" y="30"/>
      <point x="441" y="110"/>
      <point x="441" y="250" type="curve"/>
      <point x="448" y="244"/>
      <point x="456" y="241"/>
      <point x="464" y="241" type="curve" smooth="yes"/>
      <point x="473" y="241"/>
      <point x="481" y="245"/>
      <point x="486" y="250" type="curve"/>
      <point x="486" y="0" type="line"/>
      <point x="616" y="0" type="line"/>
      <point x="616" y="470" type="line"/>
      <point x="696" y="470" type="line"/>
      <point x="696" y="500" type="line"/>
    </contour>
    <contour>
      <point x="246" y="-100" type="move" name="nukta"/>
    </contour>
    <contour>
      <point x="551" y="0" type="move" name="bottom"/>
    </contour>
    <contour>
      <point x="551" y="500" type="move" name="top"/>
    </contour>
  </outline>
</glyph>
<glyph name="tta-deva" format="1">
  <advance width="541"/>
  <unicode hex="091F"/>
  <outline>
    <contour>
      <point x="-10" y="500" type="line"/>
      <point x="-10" y="470" type="line"/>
      <point x="317" y="470" type="line"/>
      <point x="317" y="390" type="line"/>
      <point x="303" y="397"/>
      <point x="281" y="400"/>
      <point x="252" y="400" type="curve" smooth="yes"/>
      <point x="119" y="400"/>
      <point x="32" y="322"/>
      <point x="32" y="205" type="curve" smooth="yes"/>
      <point x="32" y="81"/>
      <point x="132" y="0"/>
      <point x="287" y="0" type="curve" smooth="yes"/>
      <point x="418" y="0"/>
      <point x="523" y="72"/>
      <point x="523" y="160" type="curve" smooth="yes"/>
      <point x="523" y="211"/>
      <point x="485" y="241"/>
      <point x="430" y="241" type="curve" smooth="yes"/>
      <point x="411" y="241"/>
      <point x="389" y="238"/>
      <point x="367" y="230" type="curve"/>
      <point x="380" y="207"/>
      <point x="387" y="183"/>
      <point x="387" y="160" type="curve" smooth="yes"/>
      <point x="387" y="93"/>
      <point x="344" y="40"/>
      <point x="292" y="40" type="curve" smooth="yes"/>
      <point x="224" y="40"/>
      <point x="168" y="114"/>
      <point x="168" y="205" type="curve" smooth="yes"/>
      <point x="168" y="290"/>
      <point x="219" y="360"/>
      <point x="282" y="360" type="curve" smooth="yes"/>
      <point x="314" y="360"/>
      <point x="343" y="349"/>
      <point x="362" y="330" type="curve"/>
      <point x="447" y="365" type="line"/>
      <point x="447" y="470" type="line"/>
      <point x="551" y="470" type="line"/>
      <point x="551" y="500" type="line"/>
    </contour>
    <contour>
      <point x="287" y="-100" type="move" name="nukta"/>
    </contour>
    <contour>
      <point x="382" y="0" type="move" name="bottom"/>
    </contour>
    <contour>
      <point x="382" y="500" type="move" name="top"/>
    </contour>
  </outline>
</glyph>
<glyph name="dda-deva" format="1">
  <advance width="532"/>
  <unicode hex="0921"/>
  <outline>
    <contour>
      <point x="-10" y="500" type="line"/>
      <point x="-10" y="470" type="line"/>
      <point x="299" y="470" type="line"/>
      <point x="299" y="410" type="line"/>
      <point x="281" y="417"/>
      <point x="256" y="420"/>
      <point x="229" y="420" type="curve" smooth="yes"/>
      <point x="156" y="420"/>
      <point x="69" y="393"/>
      <point x="69" y="330" type="curve" smooth="yes"/>
      <point x="69" y="190"/>
      <point x="374" y="242"/>
      <point x="374" y="135" type="curve" smooth="yes"/>
      <point x="374" y="78"/>
      <point x="326" y="40"/>
      <point x="269" y="40" type="curve" smooth="yes"/>
      <point x="206" y="40"/>
      <point x="155" y="83"/>
      <point x="155" y="150" type="curve" smooth="yes"/>
      <point x="155" y="181"/>
      <point x="159" y="202"/>
      <point x="164" y="210" type="curve"/>
      <point x="150" y="213"/>
      <point x="137" y="214"/>
      <point x="124" y="214" type="curve" smooth="yes"/>
      <point x="61" y="214"/>
      <point x="19" y="182"/>
      <point x="19" y="130" type="curve" smooth="yes"/>
      <point x="19" y="58"/>
      <point x="130" y="0"/>
      <point x="269" y="0" type="curve" smooth="yes"/>
      <point x="402" y="0"/>
      <point x="510" y="70"/>
      <point x="510" y="155" type="curve" smooth="yes"/>
      <point x="510" y="314"/>
      <point x="205" y="290"/>
      <point x="205" y="350" type="curve" smooth="yes"/>
      <point x="205" y="367"/>
      <point x="229" y="376"/>
      <point x="258" y="376" type="curve" smooth="yes"/>
      <point x="287" y="376"/>
      <point x="322" y="367"/>
      <point x="344" y="350" type="curve"/>
      <point x="429" y="395" type="line"/>
      <point x="429" y="470" type="line"/>
      <point x="542" y="470" type="line"/>
      <point x="542" y="500" type="line"/>
    </contour>
    <contour>
      <point x="269" y="-100" type="move" name="nukta"/>
    </contour>
    <contour>
      <point x="364" y="0" type="move" name="bottom"/>
    </contour>
    <contour>
      <point x="364" y="500" type="move" name="top"/>
    </contour>
  </outline>
</glyph>
<glyph name="ddha-deva" format="1">
  <advance width="584"/>
  <unicode hex="0922"/>
  <outline>
    <contour>
      <point x="-10" y="500" type="line"/>
      <point x="-10" y="470" type="line"/>
      <point x="327" y="470" type="line" smooth="yes"/>
      <point x="327" y="395" type="line"/>
      <point x="313" y="402"/>
      <point x="295" y="405"/>
      <point x="272" y="405" type="curve" smooth="yes"/>
      <point x="127" y="405"/>
      <point x="32" y="326"/>
      <point x="32" y="205" type="curve" smooth="yes"/>
      <point x="32" y="81"/>
      <point x="135" y="0"/>
      <point x="292" y="0" type="curve" smooth="yes"/>
      <point x="441" y="0"/>
      <point x="563" y="72"/>
      <point x="563" y="160" type="curve" smooth="yes"/>
      <point x="563" y="221"/>
      <point x="487" y="270"/>
      <point x="392" y="270" type="curve" smooth="yes"/>
      <point x="307" y="270"/>
      <point x="237" y="217"/>
      <point x="237" y="150" type="curve" smooth="yes"/>
      <point x="237" y="106"/>
      <point x="268" y="63"/>
      <point x="317" y="40" type="curve"/>
      <point x="307" y="37"/>
      <point x="296" y="36"/>
      <point x="285" y="36" type="curve" smooth="yes"/>
      <point x="228" y="36"/>
      <point x="168" y="77"/>
      <point x="168" y="205" type="curve" smooth="yes"/>
      <point x="168" y="296"/>
      <point x="224" y="370"/>
      <point x="292" y="370" type="curve" smooth="yes"/>
      <point x="312" y="370"/>
      <point x="331" y="363"/>
      <point x="347" y="350" type="curve"/>
      <point x="457" y="390" type="line"/>
      <point x="457" y="470" type="line"/>
      <point x="594" y="470" type="line"/>
      <point x="594" y="500" type="line"/>
    </contour>
    <contour>
      <point x="411" y="230"/>
      <point x="427" y="192"/>
      <point x="427" y="147" type="curve" smooth="yes"/>
      <point x="427" y="102"/>
      <point x="411" y="65"/>
      <point x="392" y="65" type="curve" smooth="yes"/>
      <point x="373" y="65"/>
      <point x="357" y="102"/>
      <point x="357" y="147" type="curve" smooth="yes"/>
      <point x="357" y="192"/>
      <point x="373" y="230"/>
      <point x="392" y="230" type="curve" smooth="yes"/>
    </contour>
    <contour>
      <point x="292" y="-100" type="move" name="nukta"/>
    </contour>
    <contour>
      <point x="392" y="0" type="move" name="bottom"/>
    </contour>
    <contour>
      <point x="392" y="500" type="move" name="top"/>
    </contour>
  </outline>
</glyph>
<glyph name="ba-deva" format="1">
  <advance width="581"/>
  <unicode hex="092C"/>
  <outline>
    <contour>
      <point x="119" y="355" type="line"/>
      <point x="299" y="87" type="line"/>
      <point x="350" y="121" type="line"/>
      <point x="170" y="389" type="line"/>
    </contour>
    <component base="va-deva"/>
    <contour>
      <point x="101" y="-65" type="move" name="nukta"/>
    </contour>
    <contour>
      <point x="446" y="0" type="move" name="bottom"/>
    </contour>
    <contour>
      <point x="446" y="500" type="move" name="top"/>
    </contour>
  </outline>
</glyph>
<glyph name="bha-deva" format="1">
  <advance width="652"/>
  <unicode hex="092D"/>
  <outline>
    <contour>
      <point x="106" y="530"/>
      <point x="32" y="492"/>
      <point x="32" y="445" type="curve" smooth="yes"/>
      <point x="32" y="398"/>
      <point x="97" y="360"/>
      <point x="177" y="360" type="curve"/>
      <point x="212" y="395" type="line"/>
      <point x="188" y="395"/>
      <point x="168" y="415"/>
      <point x="168" y="440" type="curve" smooth="yes"/>
      <point x="168" y="468"/>
      <point x="186" y="490"/>
      <point x="207" y="490" type="curve" smooth="yes"/>
      <point x="226" y="490"/>
      <point x="242" y="468"/>
      <point x="242" y="440" type="curve" smooth="yes"/>
      <point x="242" y="300" type="line"/>
      <point x="202" y="300" type="line" smooth="yes"/>
      <point x="109" y="300"/>
      <point x="32" y="247"/>
      <point x="32" y="180" type="curve" smooth="yes"/>
      <point x="32" y="108"/>
      <point x="111" y="50"/>
      <point x="207" y="50" type="curve" smooth="yes"/>
      <point x="298" y="50"/>
      <point x="372" y="101"/>
      <point x="372" y="165" type="curve" smooth="yes"/>
      <point x="372" y="260" type="line"/>
      <point x="452" y="260" type="line"/>
      <point x="452" y="0" type="line"/>
      <point x="582" y="0" type="line"/>
      <point x="582" y="470" type="line"/>
      <point x="662" y="470" type="line"/>
      <point x="662" y="500" type="line"/>
      <point x="392" y="500" type="line"/>
      <point x="392" y="470" type="line"/>
      <point x="452" y="470" type="line"/>
      <point x="452" y="300" type="line"/>
      <point x="372" y="300" type="line"/>
      <point x="372" y="430" type="line" smooth="yes"/>
      <point x="372" y="485"/>
      <point x="293" y="530"/>
      <point x="197" y="530" type="curve" smooth="yes"/>
    </contour>
    <contour>
      <point x="242" y="135" type="line" smooth="yes"/>
      <point x="242" y="110"/>
      <point x="228" y="90"/>
      <point x="212" y="90" type="curve" smooth="yes"/>
      <point x="188" y="90"/>
      <point x="168" y="135"/>
      <point x="168" y="190" type="curve" smooth="yes"/>
      <point x="168" y="236"/>
      <point x="190" y="260"/>
      <point x="242" y="260" type="curve"/>
    </contour>
    <contour>
      <point x="212" y="-65" type="move" name="nukta"/>
    </contour>
    <contour>
      <point x="517" y="0" type="move" name="bottom"/>
    </contour>
    <contour>
      <point x="517" y="500" type="move" name="top"/>
    </contour>
  </outline>
</glyph>
<glyph name="ya-deva" format="1">
  <advance width="583"/>
  <unicode hex="092F"/>
  <outline>
    <contour>
      <point x="-10" y="500" type="line"/>
      <point x="-10" y="470" type="line"/>
      <point x="148" y="470" type="line"/>
      <point x="179" y="453"/>
      <point x="198" y="422"/>
      <point x="198" y="390" type="curve" smooth="yes"/>
      <point x="198" y="346"/>
      <point x="160" y="310"/>
      <point x="113" y="310" type="curve"/>
      <point x="58" y="315" type="line"/>
      <point x="39" y="315"/>
      <point x="23" y="286"/>
      <point x="23" y="250" type="curve" smooth="yes"/>
      <point x="23" y="150"/>
      <point x="110" y="70"/>
      <point x="218" y="70" type="curve" smooth="yes"/>
      <point x="286" y="70"/>
      <point x="348" y="99"/>
      <point x="383" y="150" type="curve"/>
      <point x="383" y="0" type="line"/>
      <point x="513" y="0" type="line"/>
      <point x="513" y="470" type="line"/>
      <point x="593" y="470" type="line"/>
      <point x="593" y="500" type="line"/>
    </contour>
    <contour>
      <point x="383" y="225" type="line"/>
      <point x="367" y="166"/>
      <point x="318" y="125"/>
      <point x="263" y="125" type="curve" smooth="yes"/>
      <point x="206" y="125"/>
      <point x="159" y="178"/>
      <point x="159" y="245" type="curve" smooth="yes"/>
      <point x="159" y="264"/>
      <point x="167" y="280"/>
      <point x="178" y="280" type="curve" smooth="yes"/>
      <point x="265" y="280"/>
      <point x="334" y="329"/>
      <point x="334" y="390" type="curve" smooth="yes"/>
      <point x="334" y="411"/>
      <point x="327" y="451"/>
      <point x="288" y="470" type="curve"/>
      <point x="383" y="470" type="line"/>
    </contour>
    <contour>
      <point x="113" y="-65" type="move" name="nukta"/>
    </contour>
    <contour>
      <point x="448" y="0" type="move" name="bottom"/>
    </contour>
    <contour>
      <point x="448" y="500" type="move" name="top"/>
    </contour>
  </outline>
</glyph>
<glyph name="rra-deva" format="1">
  <advance width="403"/>
  <unicode hex="0931"/>
  <outline>
    <component base="ra-deva"/>
    <component base="nukta-deva" xOffset="205"/>
    <contour>
      <point x="70" y="0" type="move" name="nukta"/>
    </contour>
    <contour>
      <point x="276" y="0" type="move" name="bottom"/>
    </contour>
    <contour>
      <point x="241" y="500" type="move" name="top"/>
    </contour>
  </outline>
</glyph>
<glyph name="la-deva" format="1">
  <advance width="693"/>
  <unicode hex="0932"/>
  <outline>
    <contour>
      <point x="-10" y="500" type="line"/>
      <point x="-10" y="470" type="line"/>
      <point x="493" y="470" type="line"/>
      <point x="493" y="395" type="line"/>
      <point x="436" y="384"/>
      <point x="390" y="362"/>
      <point x="363" y="330" type="curve"/>
      <point x="340" y="379"/>
      <point x="282" y="410"/>
      <point x="213" y="410" type="curve" smooth="yes"/>
      <point x="113" y="410"/>
      <point x="33" y="321"/>
      <point x="33" y="210" type="curve" smooth="yes"/>
      <point x="33" y="109"/>
      <point x="115" y="20"/>
      <point x="228" y="0" type="curve"/>
      <point x="323" y="58" type="line"/>
      <point x="231" y="73"/>
      <point x="163" y="157"/>
      <point x="163" y="255" type="curve" smooth="yes"/>
      <point x="163" y="316"/>
      <point x="185" y="365"/>
      <point x="213" y="365" type="curve" smooth="yes"/>
      <point x="253" y="365"/>
      <point x="277" y="269"/>
      <point x="283" y="200" type="curve"/>
      <point x="398" y="200" type="line"/>
      <point x="398" y="277"/>
      <point x="438" y="341"/>
      <point x="493" y="350" type="curve"/>
      <point x="493" y="0" type="line"/>
      <point x="623" y="0" type="line"/>
      <point x="623" y="470" type="line"/>
      <point x="703" y="470" type="line"/>
      <point x="703" y="500" type="line"/>
    </contour>
    <contour>
      <point x="102" y="-80" type="move" name="nukta"/>
    </contour>
    <contour>
      <point x="558" y="0" type="move" name="bottom"/>
    </contour>
    <contour>
      <point x="558" y="500" type="move" name="top"/>
    </contour>
  </outline>
</glyph>
<glyph name="ssa-deva" format="1">
  <advance width="561"/>
  <unicode hex="0937"/>
  <outline>
    <contour>
      <point x="134" y="426" type="line"/>
      <point x="341" y="178" type="line"/>
      <point x="388" y="217" type="line"/>
      <point x="181" y="465" type="line"/>
    </contour>
    <component base="pa-deva"/>
    <contour>
      <point x="181" y="-65" type="move" name="nukta"/>
    </contour>
    <contour>
      <point x="426" y="0" type="move" name="bottom"/>
    </contour>
    <contour>
      <point x="426" y="500" type="move" name="top"/>
    </contour>
  </outline>
</glyph>
<glyph name="sa-deva" format="1">
  <advance width="680"/>
  <unicode hex="0938"/>
  <outline>
    <contour>
      <point x="472" y="312"/>
      <point x="450" y="305"/>
      <point x="423" y="305" type="curve" smooth="yes"/>
      <point x="405" y="305"/>
      <point x="387" y="309"/>
      <point x="370" y="318" type="curve"/>
      <point x="347" y="269" type="line"/>
      <point x="369" y="260"/>
      <point x="394" y="255"/>
      <point x="423" y="255" type="curve" smooth="yes"/>
      <point x="456" y="255"/>
      <point x="476" y="263"/>
      <point x="488" y="270" type="curve"/>
      <point x="488" y="325" type="line"/>
    </contour>
    <contour>
      <point x="400" y="500" type="line"/>
      <point x="400" y="470" type="line"/>
      <point x="480" y="470" type="line"/>
      <point x="480" y="0" type="line"/>
      <point x="610" y="0" type="line"/>
      <point x="610" y="470" type="line"/>
      <point x="690" y="470" type="line"/>
      <point x="690" y="500" type="line"/>
    </contour>
    <contour>
      <point x="-8" y="500" type="line"/>
      <point x="-8" y="470" type="line"/>
      <point x="196" y="470" type="line"/>
      <point x="231" y="446"/>
      <point x="253" y="400"/>
      <point x="253" y="355" type="curve" smooth="yes"/>
      <point x="253" y="295"/>
      <point x="228" y="260"/>
      <point x="177" y="260" type="curve" smooth="yes"/>
      <point x="142" y="260"/>
      <point x="122" y="290"/>
      <point x="84" y="290" type="curve" smooth="yes"/>
      <point x="42" y="290"/>
      <point x="10" y="273"/>
      <point x="-10" y="245" type="curve"/>
      <point x="84" y="203"/>
      <point x="166" y="-9"/>
      <point x="276" y="-9" type="curve" smooth="yes"/>
      <point x="315" y="-9"/>
      <point x="356" y="3"/>
      <point x="383" y="50" type="curve"/>
      <point x="360" y="50"/>
      <point x="340" y="57"/>
      <point x="301" y="104" type="curve" smooth="yes"/>
      <point x="208" y="215" type="line"/>
      <point x="220" y="212"/>
      <point x="230" y="210"/>
      <point x="241" y="210" type="curve" smooth="yes"/>
      <point x="312" y="210"/>
      <point x="381" y="249"/>
      <point x="381" y="345" type="curve" smooth="yes"/>
      <point x="381" y="394"/>
      <point x="356" y="443"/>
      <point x="319" y="470" type="curve"/>
      <point x="413" y="470" type="line"/>
      <point x="413" y="500" type="line"/>
    </contour>
    <contour>
      <point x="70" y="0" type="move" name="nukta"/>
    </contour>
    <contour>
      <point x="545" y="0" type="move" name="bottom"/>
    </contour>
    <contour>
      <point x="545" y="500" type="move" name="top"/>
    </contour>
  </outline>
</glyph>
<glyph name="nukta-deva" format="1">
  <advance width="0"/>
  <unicode hex="093C"/>
  <outline>
    <contour>
      <point x="-171" y="65"/>
      <point x="-200" y="36"/>
      <point x="-200" y="0" type="curve" smooth="yes"/>
      <point x="-200" y="-36"/>
      <point x="-171" y="-65"/>
      <point x="-135" y="-65" type="curve" smooth="yes"/>
      <point x="-99" y="-65"/>
      <point x="-70" y="-36"/>
      <point x="-70" y="0" type="curve" smooth="yes"/>
      <point x="-70" y="36"/>
      <point x="-99" y="65"/>
      <point x="-135" y="65" type="curve" smooth="yes"/>
    </contour>
    <contour>
      <point x="-135" y="0" type="move" name="_nukta"/>
    </contour>
  </outline>
</glyph>
<glyph name="iiMatra-deva" format="1">
  <advance width="270"/>
  <unicode hex="0940"/>
  <outline>
    <contour>
      <point x="-10" y="500" type="line"/>
      <point x="-10" y="470" type="line"/>
      <point x="70" y="470" type="line"/>
      <point x="70" y="0" type="line"/>
      <point x="200" y="0" type="line"/>
      <point x="200" y="470" type="line"/>
      <point x="280" y="470" type="line"/>
      <point x="280" y="500" type="line"/>
    </contour>
    <contour>
      <point x="-172" y="750"/>
      <point x="-250" y="702"/>
      <point x="-250" y="620" type="curve" smooth="yes"/>
      <point x="-250" y="571"/>
      <point x="-223" y="526"/>
      <point x="-190" y="505" type="curve"/>
      <point x="-70" y="535" type="line"/>
      <point x="-106" y="558"/>
      <point x="-130" y="588"/>
      <point x="-130" y="635" type="curve" smooth="yes"/>
      <point x="-130" y="679"/>
      <point x="-108" y="715"/>
      <point x="-60" y="715" type="curve" smooth="yes"/>
      <point x="12" y="715"/>
      <point x="70" y="621"/>
      <point x="70" y="505" type="curve"/>
      <point x="205" y="530" type="line"/>
      <point x="205" y="651"/>
      <point x="80" y="750"/>
      <point x="-75" y="750" type="curve" smooth="yes"/>
    </contour>
    <contour>
      <point x="-130" y="500" type="move" name="iimatra"/>
    </contour>
    <contour>
      <point x="280" y="500" type="move" name="top"/>
    </contour>
  </outline>
</glyph>
<glyph name="uMatra-deva" format="1">
  <advance width="0"/>
  <unicode hex="0941"/>
  <outline>
    <contour>
      <point x="-192" y="-50"/>
      <point x="-238" y="-89"/>
      <point x="-247" y="-141" type="curve"/>
      <point x="-214" y="-155" type="line"/>
      <point x="-203" y="-126"/>
      <point x="-188" y="-105"/>
      <point x="-156" y="-105" type="curve" smooth="yes"/>
      <point x="-123" y="-105"/>
      <point x="-102" y="-129"/>
      <point x="-102" y="-159" type="curve" smooth="yes"/>
      <point x="-102" y="-215"/>
      <point x="-152" y="-245"/>
      <point x="-206" y="-245" type="curve" smooth="yes"/>
      <point x="-272" y="-245"/>
      <point x="-312" y="-182"/>
      <point x="-318" y="-118" type="curve"/>
      <point x="-427" y="-159" type="line"/>
      <point x="-407" y="-220"/>
      <point x="-323" y="-277"/>
      <point x="-210" y="-277" type="curve" smooth="yes"/>
      <point x="-107" y="-277"/>
      <point x="-22" y="-220"/>
      <point x="-22" y="-150" type="curve" smooth="yes"/>
      <point x="-22" y="-95"/>
      <point x="-73" y="-50"/>
      <point x="-135" y="-50" type="curve" smooth="yes"/>
    </contour>
    <contour>
      <point x="-135" y="0" type="move" name="_bottom"/>
    </contour>
  </outline>
</glyph>
<glyph name="acute-deva" format="1">
  <advance width="0"/>
  <unicode hex="0954"/>
  <outline>
    <contour>
      <point x="-173" y="729" type="line"/>
      <point x="-224" y="502" type="line"/>
      <point x="-170" y="502" type="line"/>
      <point x="-46" y="729" type="line"/>
    </contour>
  </outline>
</glyph>
<glyph name="qa-deva" format="1">
  <advance width="854"/>
  <unicode hex="0958"/>
  <outline>
    <component base="ka-deva"/>
    <component base="nukta-deva" xOffset="324" yOffset="-83"/>
    <contour>
      <point x="427" y="500" type="move" name="top"/>
    </contour>
    <contour>
      <point x="427" y="0" type="move" name="bottom"/>
    </contour>
  </outline>
</glyph>
<glyph name="khha-deva" format="1">
  <advance width="1017"/>
  <unicode hex="0959"/>
  <outline>
    <component base="nukta-deva" xOffset="251" yOffset="-65"/>
    <component base="kha-deva"/>
    <contour>
      <point x="882" y="500" type="move" name="top"/>
    </contour>
    <contour>
      <point x="882" y="0" type="move" name="bottom"/>
    </contour>
  </outline>
</glyph>
<glyph name="ghha-deva" format="1">
  <advance width="693"/>
  <unicode hex="095A"/>
  <outline>
    <component base="nukta-deva" xOffset="353" yOffset="-64"/>
    <component base="ga-deva"/>
    <contour>
      <point x="567" y="500" type="move" name="top"/>
    </contour>
    <contour>
      <point x="567" y="0" type="move" name="bottom"/>
    </contour>
  </outline>
</glyph>
<glyph name="yya-deva" format="1">
  <advance width="583"/>
  <unicode hex="095F"/>
  <outline>
    <component base="nukta-deva" xOffset="248" yOffset="-65"/>
    <component base="ya-deva"/>
    <contour>
      <point x="448" y="500" type="move" name="top"/>
    </contour>
    <contour>
      <point x="448" y="0" type="move" name="bottom"/>
    </contour>
  </outline>
</glyph>
<glyph name="rrVocalic-deva" format="1">
  <advance width="837"/>
  <unicode hex="0960"/>
  <outline>
    <contour>
      <point x="-10" y="500" type="line"/>
      <point x="-10" y="470" type="line"/>
      <point x="378" y="470" type="line"/>
      <point x="378" y="215" type="line"/>
      <point x="293" y="170" type="line"/>
      <point x="332" y="202"/>
      <point x="354" y="243"/>
      <point x="354" y="280" type="curve" smooth="yes"/>
      <point x="354" y="352"/>
      <point x="278" y="410"/>
      <point x="183" y="410" type="curve" smooth="yes"/>
      <point x="111" y="410"/>
      <point x="49" y="377"/>
      <point x="18" y="325" type="curve"/>
      <point x="33" y="285" type="line"/>
      <point x="60" y="332"/>
      <point x="99" y="360"/>
      <point x="138" y="360" type="curve" smooth="yes"/>
      <point x="182" y="360"/>
      <point x="218" y="311"/>
      <point x="218" y="250" type="curve" smooth="yes"/>
      <point x="218" y="191"/>
      <point x="145" y="113"/>
      <point x="28" y="45" type="curve"/>
      <point x="48" y="10" type="line"/>
      <point x="378" y="170" type="line"/>
      <point x="378" y="0" type="line"/>
      <point x="508" y="0" type="line"/>
      <point x="508" y="240" type="line"/>
      <point x="598" y="290" type="line"/>
      <point x="628" y="235" type="line"/>
      <point x="587" y="207"/>
      <point x="563" y="165"/>
      <point x="563" y="125" type="curve" smooth="yes"/>
      <point x="563" y="64"/>
      <point x="621" y="15"/>
      <point x="693" y="15" type="curve" smooth="yes"/>
      <point x="746" y="15"/>
      <point x="796" y="36"/>
      <point x="828" y="75" type="curve"/>
      <point x="803" y="115" type="line"/>
      <point x="787" y="87"/>
      <point x="762" y="70"/>
      <point x="738" y="70" type="curve" smooth="yes"/>
      <point x="702" y="70"/>
      <point x="673" y="106"/>
      <point x="673" y="150" type="curve" smooth="yes"/>
      <point x="673" y="195"/>
      <point x="699" y="235"/>
      <point x="738" y="250" type="curve"/>
      <point x="698" y="320" type="line"/>
      <point x="709" y="329"/>
      <point x="718" y="338"/>
      <point x="724" y="346" type="curve" smooth="yes"/>
      <point x="730" y="354"/>
      <point x="733" y="360"/>
      <point x="733" y="365" type="curve" smooth="yes"/>
      <point x="733" y="398"/>
      <point x="695" y="425"/>
      <point x="648" y="425" type="curve" smooth="yes"/>
      <point x="599" y="425"/>
      <point x="558" y="396"/>
      <point x="558" y="360" type="curve" smooth="yes"/>
      <point x="558" y="357"/>
      <point x="560" y="353"/>
      <point x="565" y="346" type="curve"/>
      <point x="570" y="338"/>
      <point x="575" y="331"/>
      <point x="578" y="325" type="curve"/>
      <point x="508" y="290" type="line"/>
      <point x="508" y="470" type="line"/>
      <point x="847" y="470" type="line"/>
      <point x="847" y="500" type="line"/>
    </contour>
    <contour>
      <point x="443" y="500" type="move" name="top"/>
    </contour>
    <contour>
      <point x="443" y="0" type="move" name="bottom"/>
    </contour>
  </outline>
</glyph>
<glyph name="llVocalic-deva" format="1">
  <advance width="692"/>
  <unicode hex="0961"/>
  <outline>
    <contour>
      <point x="659" y="299"/>
      <point x="626" y="358"/>
      <point x="573" y="385" type="curve"/>
      <point x="573" y="470" type="line"/>
      <point x="702" y="470" type="line"/>
      <point x="702" y="500" type="line"/>
      <point x="-10" y="500" type="line"/>
      <point x="-10" y="470" type="line"/>
      <point x="443" y="470" type="line"/>
      <point x="443" y="400" type="line"/>
      <point x="406" y="393"/>
      <point x="373" y="370"/>
      <point x="353" y="335" type="curve"/>
      <point x="330" y="375"/>
      <point x="278" y="400"/>
      <point x="218" y="400" type="curve" smooth="yes"/>
      <point x="115" y="400"/>
      <point x="33" y="313"/>
      <point x="33" y="205" type="curve" smooth="yes"/>
      <point x="33" y="92"/>
      <point x="122" y="0"/>
      <point x="233" y="0" type="curve"/>
      <point x="298" y="50" type="line"/>
      <point x="221" y="50"/>
      <point x="158" y="135"/>
      <point x="158" y="240" type="curve" smooth="yes"/>
      <point x="158" y="304"/>
      <point x="185" y="355"/>
      <point x="218" y="355" type="curve" smooth="yes"/>
      <point x="257" y="355"/>
      <point x="301" y="295"/>
      <point x="301" y="220" type="curve"/>
      <point x="391" y="220" type="line"/>
      <point x="391" y="295"/>
      <point x="427" y="355"/>
      <point x="458" y="355" type="curve" smooth="yes"/>
      <point x="499" y="355"/>
      <point x="532" y="292"/>
      <point x="533" y="215" type="curve"/>
      <point x="533" y="83"/>
      <point x="366" y="117"/>
      <point x="366" y="55" type="curve" smooth="yes"/>
      <point x="366" y="30"/>
      <point x="413" y="-4"/>
      <point x="464" y="-4" type="curve"/>
      <point x="464" y="-9" type="line"/>
      <point x="410" y="-22"/>
      <point x="366" y="-49"/>
      <point x="366" y="-75" type="curve" smooth="yes"/>
      <point x="366" y="-127"/>
      <point x="458" y="-155"/>
      <point x="526" y="-155" type="curve" smooth="yes"/>
      <point x="626" y="-155"/>
      <point x="678" y="-131"/>
      <point x="721" y="-95" type="curve"/>
      <point x="666" y="-40" type="line"/>
      <point x="630" y="-80"/>
      <point x="598" y="-105"/>
      <point x="546" y="-105" type="curve" smooth="yes"/>
      <point x="520" y="-105"/>
      <point x="501" y="-94"/>
      <point x="501" y="-73" type="curve" smooth="yes"/>
      <point x="501" y="-45"/>
      <point x="563" y="-23"/>
      <point x="611" y="-15" type="curve"/>
      <point x="591" y="15" type="line"/>
      <point x="519" y="15"/>
      <point x="498" y="30"/>
      <point x="498" y="45" type="curve" smooth="yes"/>
      <point x="498" y="67"/>
      <point x="659" y="95"/>
      <point x="659" y="230" type="curve"/>
    </contour>
    <contour>
      <point x="508" y="500" type="move" name="top"/>
    </contour>
    <contour>
      <point x="391" y="0" type="move" name="bottom"/>
    </contour>
  </outline>
</glyph>
<glyph name="lVocalicMatra-deva" format="1">
  <advance width="0"/>
  <unicode hex="0962"/>
  <outline>
    <contour>
      <point x="73" y="-19"/>
      <point x="24" y="13"/>
      <point x="-50" y="13" type="curve"/>
      <point x="-90" y="13"/>
      <point x="-118" y="-8"/>
      <point x="-135" y="-34" type="curve"/>
      <point x="-147" y="-5"/>
      <point x="-183" y="13"/>
      <point x="-229" y="13" type="curve" smooth="yes"/>
      <point x="-296" y="13"/>
      <point x="-354" y="-34"/>
      <point x="-354" y="-92" type="curve" smooth="yes"/>
      <point x="-354" y="-159"/>
      <point x="-294" y="-213"/>
      <point x="-222" y="-213" type="curve"/>
      <point x="-167" y="-177" type="line"/>
      <point x="-212" y="-177"/>
      <point x="-249" y="-133"/>
      <point x="-249" y="-77" type="curve" smooth="yes"/>
      <point x="-249" y="-38"/>
      <point x="-234" y="-27"/>
      <point x="-220" y="-27" type="curve" smooth="yes"/>
      <point x="-197" y="-27"/>
      <point x="-173" y="-58"/>
      <point x="-173" y="-99" type="curve"/>
      <point x="-104" y="-99" type="line"/>
      <point x="-104" y="-58"/>
      <point x="-79" y="-27"/>
      <point x="-63" y="-27" type="curve" smooth="yes"/>
      <point x="-51" y="-27"/>
      <point x="-33" y="-42"/>
      <point x="-33" y="-86" type="curve"/>
      <point x="-33" y="-177"/>
      <point x="-117" y="-189"/>
      <point x="-117" y="-248" type="curve" smooth="yes"/>
      <point x="-117" y="-300"/>
      <point x="-71" y="-319"/>
      <point x="-22" y="-319" type="curve" smooth="yes"/>
      <point x="24" y="-319"/>
      <point x="73" y="-303"/>
      <point x="93" y="-283" type="curve"/>
      <point x="59" y="-230" type="line"/>
      <point x="49" y="-246"/>
      <point x="29" y="-255"/>
      <point x="13" y="-255" type="curve" smooth="yes"/>
      <point x="-2" y="-255"/>
      <point x="-14" y="-247"/>
      <point x="-14" y="-230" type="curve" smooth="yes"/>
      <point x="-14" y="-170"/>
      <point x="73" y="-155"/>
      <point x="73" y="-74" type="curve"/>
    </contour>
  </outline>
</glyph>
<glyph name="zero-deva" format="1">
  <advance width="550"/>
  <unicode hex="0966"/>
  <outline>
    <contour>
      <point x="127" y="505"/>
      <point x="43" y="371"/>
      <point x="43" y="241" type="curve" smooth="yes"/>
      <point x="43" y="116"/>
      <point x="119" y="-5"/>
      <point x="275" y="-5" type="curve" smooth="yes"/>
      <point x="429" y="-5"/>
      <point x="508" y="130"/>
      <point x="508" y="261" type="curve" smooth="yes"/>
      <point x="508" y="384"/>
      <point x="437" y="505"/>
      <point x="295" y="505" type="curve" smooth="yes"/>
    </contour>
    <contour>
      <point x="338" y="464"/>
      <point x="384" y="324"/>
      <point x="384" y="204" type="curve" smooth="yes"/>
      <point x="384" y="115"/>
      <point x="357" y="36"/>
      <point x="300" y="36" type="curve" smooth="yes"/>
      <point x="218" y="36"/>
      <point x="167" y="176"/>
      <point x="167" y="294" type="curve" smooth="yes"/>
      <point x="167" y="385"/>
      <point x="193" y="464"/>
      <point x="255" y="464" type="curve" smooth="yes"/>
    </contour>
  </outline>
</glyph>
<glyph name="one-deva" format="1">
  <advance width="550"/>
  <unicode hex="0967"/>
  <outline>
    <contour>
      <point x="439" y="474"/>
      <point x="361" y="505"/>
      <point x="281" y="505" type="curve" smooth="yes"/>
      <point x="197" y="505"/>
      <point x="111" y="471"/>
      <point x="111" y="403" type="curve" smooth="yes"/>
      <point x="111" y="335"/>
      <point x="179" y="311"/>
      <point x="250" y="311" type="curve"/>
      <point x="167" y="259" type="line" smooth="yes"/>
      <point x="147" y="246"/>
      <point x="136" y="224"/>
      <point x="136" y="201" type="curve" smooth="yes"/>
      <point x="136" y="178"/>
      <point x="147" y="154"/>
      <point x="170" y="138" type="curve" smooth="yes"/>
      <point x="277" y="65" type="line" smooth="yes"/>
      <point x="305" y="50"/>
      <point x="321" y="37"/>
      <point x="321" y="24" type="curve" smooth="yes"/>
      <point x="321" y="16"/>
      <point x="316" y="9"/>
      <point x="305" y="0" type="curve"/>
      <point x="425" y="0" type="line"/>
      <point x="437" y="15"/>
      <point x="445" y="28"/>
      <point x="445" y="40" type="curve" smooth="yes"/>
      <point x="445" y="57"/>
      <point x="433" y="73"/>
      <point x="405" y="94" type="curve"/>
      <point x="278" y="181" type="line"/>
      <point x="266" y="190"/>
      <point x="255" y="203"/>
      <point x="255" y="217" type="curve" smooth="yes"/>
      <point x="255" y="226"/>
      <point x="261" y="235"/>
      <point x="274" y="243" type="curve" smooth="yes"/>
      <point x="362" y="298" type="line" smooth="yes"/>
      <point x="420" y="334"/>
      <point x="439" y="369"/>
      <point x="439" y="413" type="curve" smooth="yes"/>
    </contour>
    <contour>
      <point x="298" y="464"/>
      <point x="315" y="436"/>
      <point x="315" y="403" type="curve" smooth="yes"/>
      <point x="315" y="379"/>
      <point x="304" y="353"/>
      <point x="285" y="338" type="curve"/>
      <point x="254" y="351"/>
      <point x="235" y="380"/>
      <point x="235" y="413" type="curve" smooth="yes"/>
      <point x="235" y="441"/>
      <point x="252" y="464"/>
      <point x="275" y="464" type="curve" smooth="yes"/>
    </contour>
  </outline>
</glyph>
<glyph name="two-deva" format="1">
  <advance width="549"/>
  <unicode hex="0968"/>
  <outline>
    <contour>
      <point x="187" y="505"/>
      <point x="98" y="452"/>
      <point x="98" y="385" type="curve" smooth="yes"/>
      <point x="98" y="360"/>
      <point x="112" y="333"/>
      <point x="158" y="320" type="curve"/>
      <point x="292" y="360" type="line"/>
      <point x="253" y="360"/>
      <point x="222" y="387"/>
      <point x="222" y="420" type="curve" smooth="yes"/>
      <point x="222" y="445"/>
      <point x="246" y="465"/>
      <point x="277" y="465" type="curve" smooth="yes"/>
      <point x="324" y="465"/>
      <point x="362" y="417"/>
      <point x="362" y="355" type="curve" smooth="yes"/>
      <point x="362" y="262"/>
      <point x="316" y="205"/>
      <point x="238" y="205" type="curve" smooth="yes"/>
      <point x="178" y="205"/>
      <point x="150" y="227"/>
      <point x="115" y="227" type="curve"/>
      <point x="47" y="155" type="line"/>
      <point x="86" y="155"/>
      <point x="114" y="142"/>
      <point x="158" y="115" type="curve" smooth="yes"/>
      <point x="308" y="24" type="line" smooth="yes"/>
      <point x="343" y="3"/>
      <point x="376" y="-10"/>
      <point x="397" y="-10" type="curve" smooth="yes"/>
      <point x="445" y="-10"/>
      <point x="487" y="28"/>
      <point x="507" y="75" type="curve"/>
      <point x="473" y="48"/>
      <point x="426" y="71"/>
      <point x="377" y="99" type="curve"/>
      <point x="270" y="164" type="line"/>
      <point x="407" y="186"/>
      <point x="486" y="265"/>
      <point x="486" y="355" type="curve" smooth="yes"/>
      <point x="486" y="440"/>
      <point x="402" y="505"/>
      <point x="297" y="505" type="curve" smooth="yes"/>
    </contour>
  </outline>
</glyph>
<glyph name="three-deva" format="1">
  <advance width="549"/>
  <unicode hex="0969"/>
  <outline>
    <contour>
      <point x="152" y="510"/>
      <point x="58" y="461"/>
      <point x="58" y="400" type="curve" smooth="yes"/>
      <point x="58" y="367"/>
      <point x="96" y="340"/>
      <point x="143" y="340" type="curve" smooth="yes"/>
      <point x="164" y="340"/>
      <point x="190" y="350"/>
      <point x="218" y="370" type="curve"/>
      <point x="203" y="383"/>
      <point x="194" y="399"/>
      <point x="194" y="415" type="curve" smooth="yes"/>
      <point x="194" y="446"/>
      <point x="224" y="470"/>
      <point x="263" y="470" type="curve" smooth="yes"/>
      <point x="305" y="470"/>
      <point x="340" y="443"/>
      <point x="340" y="410" type="curve" smooth="yes"/>
      <point x="340" y="344"/>
      <point x="305" y="310"/>
      <point x="203" y="310" type="curve"/>
      <point x="168" y="250" type="line"/>
      <point x="186" y="257"/>
      <point x="208" y="260"/>
      <point x="233" y="260" type="curve" smooth="yes"/>
      <point x="311" y="260"/>
      <point x="375" y="207"/>
      <point x="375" y="140" type="curve" smooth="yes"/>
      <point x="375" y="83"/>
      <point x="328" y="35"/>
      <point x="273" y="35" type="curve" smooth="yes"/>
      <point x="224" y="35"/>
      <point x="184" y="78"/>
      <point x="184" y="130" type="curve" smooth="yes"/>
      <point x="184" y="153"/>
      <point x="187" y="169"/>
      <point x="193" y="180" type="curve"/>
      <point x="113" y="180"/>
      <point x="48" y="149"/>
      <point x="48" y="110" type="curve" smooth="yes"/>
      <point x="48" y="43"/>
      <point x="149" y="-10"/>
      <point x="273" y="-10" type="curve" smooth="yes"/>
      <point x="398" y="-10"/>
      <point x="499" y="57"/>
      <point x="499" y="140" type="curve" smooth="yes"/>
      <point x="499" y="228"/>
      <point x="439" y="275"/>
      <point x="343" y="300" type="curve"/>
      <point x="415" y="319"/>
      <point x="464" y="365"/>
      <point x="464" y="410" type="curve" smooth="yes"/>
      <point x="464" y="465"/>
      <point x="376" y="510"/>
      <point x="268" y="510" type="curve" smooth="yes"/>
    </contour>
  </outline>
</glyph>
<glyph name="four-deva" format="1">
  <advance width="550"/>
  <unicode hex="096A"/>
  <outline>
    <contour>
      <point x="265" y="328" type="line"/>
      <point x="213" y="359"/>
      <point x="180" y="427"/>
      <point x="180" y="510" type="curve"/>
      <point x="50" y="495" type="line"/>
      <point x="50" y="419"/>
      <point x="111" y="336"/>
      <point x="210" y="279" type="curve"/>
      <point x="142" y="223"/>
      <point x="101" y="167"/>
      <point x="101" y="127" type="curve" smooth="yes"/>
      <point x="101" y="32"/>
      <point x="194" y="-14"/>
      <point x="285" y="-14" type="curve" smooth="yes"/>
      <point x="370" y="-14"/>
      <point x="454" y="27"/>
      <point x="454" y="108" type="curve" smooth="yes"/>
      <point x="454" y="168"/>
      <point x="399" y="238"/>
      <point x="310" y="294" type="curve"/>
      <point x="500" y="470" type="line"/>
      <point x="465" y="510" type="line"/>
    </contour>
    <contour>
      <point x="309" y="213"/>
      <point x="330" y="165"/>
      <point x="330" y="118" type="curve" smooth="yes"/>
      <point x="330" y="64"/>
      <point x="309" y="39"/>
      <point x="285" y="39" type="curve" smooth="yes"/>
      <point x="257" y="39"/>
      <point x="225" y="76"/>
      <point x="225" y="142" type="curve" smooth="yes"/>
      <point x="225" y="178"/>
      <point x="241" y="217"/>
      <point x="270" y="250" type="curve"/>
    </contour>
  </outline>
</glyph>
<glyph name="five-deva" format="1">
  <advance width="550"/>
  <unicode hex="096B"/>
  <outline>
    <contour>
      <point x="150" y="500" type="line"/>
      <point x="81" y="441"/>
      <point x="40" y="368"/>
      <point x="40" y="300" type="curve" smooth="yes"/>
      <point x="40" y="207"/>
      <point x="117" y="150"/>
      <point x="210" y="150" type="curve" smooth="yes"/>
      <point x="273" y="150"/>
      <point x="326" y="184"/>
      <point x="345" y="235" type="curve"/>
      <point x="372" y="189"/>
      <point x="385" y="147"/>
      <point x="385" y="110" type="curve" smooth="yes"/>
      <point x="385" y="83"/>
      <point x="367" y="52"/>
      <point x="335" y="25" type="curve"/>
      <point x="419" y="-10" type="line"/>
      <point x="474" y="10"/>
      <point x="509" y="66"/>
      <point x="509" y="130" type="curve" smooth="yes"/>
      <point x="509" y="161"/>
      <point x="449" y="297"/>
      <point x="449" y="340" type="curve" smooth="yes"/>
      <point x="449" y="363"/>
      <point x="456" y="387"/>
      <point x="469" y="410" type="curve"/>
      <point x="340" y="370" type="line"/>
      <point x="331" y="358"/>
      <point x="325" y="336"/>
      <point x="325" y="305" type="curve" smooth="yes"/>
      <point x="325" y="261"/>
      <point x="297" y="225"/>
      <point x="260" y="225" type="curve" smooth="yes"/>
      <point x="207" y="225"/>
      <point x="164" y="276"/>
      <point x="164" y="340" type="curve" smooth="yes"/>
      <point x="164" y="415"/>
      <point x="206" y="459"/>
      <point x="270" y="500" type="curve"/>
    </contour>
  </outline>
</glyph>
<glyph name="eight-deva" format="1">
  <advance width="550"/>
  <unicode hex="096E"/>
  <outline>
    <contour>
      <point x="189" y="388"/>
      <point x="71" y="253"/>
      <point x="71" y="155" type="curve" smooth="yes"/>
      <point x="71" y="35"/>
      <point x="174" y="-15"/>
      <point x="283" y="-15" type="curve" smooth="yes"/>
      <point x="356" y="-15"/>
      <point x="431" y="14"/>
      <point x="479" y="75" type="curve"/>
      <point x="383" y="120" type="line"/>
      <point x="359" y="58"/>
      <point x="315" y="27"/>
      <point x="276" y="27" type="curve" smooth="yes"/>
      <point x="233" y="27"/>
      <point x="195" y="64"/>
      <point x="195" y="135" type="curve" smooth="yes"/>
      <point x="195" y="225"/>
      <point x="289" y="341"/>
      <point x="442" y="445" type="curve"/>
      <point x="385" y="511" type="line"/>
    </contour>
  </outline>
</glyph>
<glyph name="nine-deva" format="1">
  <advance width="549"/>
  <unicode hex="096F"/>
  <outline>
    <contour>
      <point x="129" y="510"/>
      <point x="52" y="457"/>
      <point x="52" y="393" type="curve" smooth="yes"/>
      <point x="52" y="364"/>
      <point x="76" y="327"/>
      <point x="117" y="291" type="curve" smooth="yes"/>
      <point x="351" y="78" type="line" smooth="yes"/>
      <point x="378" y="54"/>
      <point x="382" y="35"/>
      <point x="382" y="20" type="curve" smooth="yes"/>
      <point x="382" y="12"/>
      <point x="379" y="-7"/>
      <point x="372" y="-15" type="curve"/>
      <point x="444" y="-15"/>
      <point x="497" y="-2"/>
      <point x="497" y="47" type="curve" smooth="yes"/>
      <point x="497" y="62"/>
      <point x="485" y="95"/>
      <point x="436" y="142" type="curve" smooth="yes"/>
      <point x="252" y="316" type="line"/>
      <point x="261" y="315"/>
      <point x="269" y="315"/>
      <point x="277" y="315" type="curve" smooth="yes"/>
      <point x="370" y="315"/>
      <point x="401" y="358"/>
      <point x="401" y="408" type="curve" smooth="yes"/>
      <point x="401" y="465"/>
      <point x="322" y="510"/>
      <point x="227" y="510" type="curve" smooth="yes"/>
    </contour>
    <contour>
      <point x="253" y="469"/>
      <point x="277" y="441"/>
      <point x="277" y="408" type="curve" smooth="yes"/>
      <point x="277" y="377"/>
      <point x="255" y="352"/>
      <point x="227" y="352" type="curve" smooth="yes"/>
      <point x="196" y="352"/>
      <point x="172" y="377"/>
      <point x="172" y="408" type="curve" smooth="yes"/>
      <point x="172" y="441"/>
      <point x="194" y="469"/>
      <point x="222" y="469" type="curve" smooth="yes"/>
    </contour>
  </outline>
</glyph>
<glyph name="abbreviation-deva" format="1">
  <advance width="470"/>
  <unicode hex="0970"/>
  <outline>
    <contour>
      <point x="144" y="180"/>
      <point x="70" y="139"/>
      <point x="70" y="90" type="curve" smooth="yes"/>
      <point x="70" y="41"/>
      <point x="144" y="0"/>
      <point x="235" y="0" type="curve" smooth="yes"/>
      <point x="326" y="0"/>
      <point x="400" y="41"/>
      <point x="400" y="90" type="curve" smooth="yes"/>
      <point x="400" y="139"/>
      <point x="326" y="180"/>
      <point x="235" y="180" type="curve" smooth="yes"/>
    </contour>
    <contour>
      <point x="260" y="145"/>
      <point x="280" y="121"/>
      <point x="280" y="90" type="curve" smooth="yes"/>
      <point x="280" y="59"/>
      <point x="260" y="35"/>
      <point x="235" y="35" type="curve" smooth="yes"/>
      <point x="210" y="35"/>
      <point x="190" y="59"/>
      <point x="190" y="90" type="curve" smooth="yes"/>
      <point x="190" y="121"/>
      <point x="210" y="145"/>
      <point x="235" y="145" type="curve" smooth="yes"/>
    </contour>
  </outline>
</glyph>
<glyph name="highspacingdot-deva" format="1">
  <advance width="140"/>
  <unicode hex="0971"/>
  <outline>
    <contour>
      <point x="-176" y="755"/>
      <point x="-212" y="719"/>
      <point x="-212" y="676" type="curve" smooth="yes"/>
      <point x="-212" y="628"/>
      <point x="-176" y="590"/>
      <point x="-130" y="590" type="curve" smooth="yes"/>
      <point x="-84" y="590"/>
      <point x="-47" y="628"/>
      <point x="-47" y="676" type="curve" smooth="yes"/>
      <point x="-47" y="719"/>
      <point x="-84" y="755"/>
      <point x="-130" y="755" type="curve" smooth="yes"/>
    </contour>
  </outline>
</glyph>
<glyph name="gga-deva" format="1">
  <advance width="693"/>
  <unicode hex="097B"/>
  <outline>
    <contour>
      <point x="66" y="-35" type="line"/>
      <point x="66" y="-75" type="line"/>
      <point x="376" y="-75" type="line"/>
      <point x="376" y="-35" type="line"/>
    </contour>
    <component base="ga-deva"/>
    <contour>
      <point x="423" y="500" type="move" name="top"/>
    </contour>
  </outline>
</glyph>
<glyph name="jja-deva" format="1">
  <advance width="735"/>
  <unicode hex="097C"/>
  <outline>
    <contour>
      <point x="82" y="-35" type="line"/>
      <point x="82" y="-75" type="line"/>
      <point x="392" y="-75" type="line"/>
      <point x="392" y="-35" type="line"/>
    </contour>
    <component base="ja-deva"/>
    <contour>
      <point x="533" y="500" type="move" name="top"/>
    </contour>
  </outline>
</glyph>
<glyph name="glottalstop-deva" format="1">
  <advance width="488"/>
  <unicode hex="097D"/>
  <outline>
    <contour>
      <point x="144" y="500"/>
      <point x="31" y="451"/>
      <point x="31" y="375" type="curve"/>
      <point x="31" y="315"/>
      <point x="87" y="299"/>
      <point x="155" y="299" type="curve"/>
      <point x="155" y="409"/>
      <point x="194" y="455"/>
      <point x="246" y="455" type="curve" smooth="yes"/>
      <point x="293" y="455"/>
      <point x="319" y="414"/>
      <point x="319" y="363" type="curve" smooth="yes"/>
      <point x="319" y="251"/>
      <point x="167" y="219"/>
      <point x="167" y="80" type="curve" smooth="yes"/>
      <point x="167" y="33"/>
      <point x="203" y="0"/>
      <point x="247" y="0" type="curve"/>
      <point x="247" y="195"/>
      <point x="453" y="173"/>
      <point x="453" y="363" type="curve" smooth="yes"/>
      <point x="453" y="440"/>
      <point x="358" y="500"/>
      <point x="237" y="500" type="curve" smooth="yes"/>
    </contour>
  </outline>
</glyph>
<glyph name="ddda-deva" format="1">
  <advance width="532"/>
  <unicode hex="097E"/>
  <outline>
    <contour>
      <point x="112" y="-35" type="line"/>
      <point x="112" y="-75" type="line"/>
      <point x="422" y="-75" type="line"/>
      <point x="422" y="-35" type="line"/>
    </contour>
    <component base="dda-deva"/>
  </outline>
</glyph>
<glyph name="bba-deva" format="1">
  <advance width="581"/>
  <unicode hex="097F"/>
  <outline>
    <contour>
      <point x="62" y="-35" type="line"/>
      <point x="62" y="-75" type="line"/>
      <point x="372" y="-75" type="line"/>
      <point x="372" y="-35" type="line"/>
    </contour>
    <component base="ba-deva"/>
    <contour>
      <point x="446" y="500" type="move" name="top"/>
    </contour>
  </outline>
</glyph>
<glyph name="emdash" format="1">
  <advance width="619"/>
  <unicode hex="2014"/>
  <outline>
    <contour>
      <point x="39" y="182" type="line"/>
      <point x="580" y="182" type="line"/>
      <point x="580" y="264" type="line"/>
      <point x="39" y="264" type="line"/>
    </contour>
  </outline>
</glyph>
<glyph name="guilsinglleft" format="1">
  <advance width="203"/>
  <unicode hex="2039"/>
  <outline>
    <contour>
      <point x="188" y="326" type="line"/>
      <point x="149" y="367" type="line"/>
      <point x="15" y="242" type="line"/>
      <point x="15" y="199" type="line"/>
      <point x="149" y="74" type="line"/>
      <point x="188" y="115" type="line"/>
      <point x="114" y="221" type="line"/>
    </contour>
  </outline>
</glyph>
<glyph name="zerosuperior" format="1">
  <advance width="321"/>
  <unicode hex="2070"/>
  <outline>
    <contour>
      <point x="262" y="274"/>
      <point x="288" y="336"/>
      <point x="288" y="421" type="curve" smooth="yes"/>
      <point x="288" y="504"/>
      <point x="262" y="567"/>
      <point x="160" y="567" type="curve" smooth="yes"/>
      <point x="58" y="567"/>
      <point x="34" y="504"/>
      <point x="34" y="421" type="curve" smooth="yes"/>
      <point x="34" y="336"/>
      <point x="58" y="274"/>
      <point x="160" y="274" type="curve" smooth="yes"/>
    </contour>
    <contour>
      <point x="134" y="311"/>
      <point x="130" y="368"/>
      <point x="130" y="421" type="curve" smooth="yes"/>
      <point x="130" y="502"/>
      <point x="134" y="531"/>
      <point x="160" y="531" type="curve" smooth="yes"/>
      <point x="186" y="531"/>
      <point x="192" y="502"/>
      <point x="192" y="421" type="curve" smooth="yes"/>
      <point x="192" y="368"/>
      <point x="186" y="311"/>
      <point x="160" y="311" type="curve" smooth="yes"/>
    </contour>
  </outline>
</glyph>
<glyph name="fivesuperior" format="1">
  <advance width="321"/>
  <unicode hex="2075"/>
  <outline>
    <contour>
      <point x="41" y="373" type="line"/>
      <point x="45" y="311"/>
      <point x="76" y="274"/>
      <point x="153" y="274" type="curve" smooth="yes"/>
      <point x="237" y="274"/>
      <point x="276" y="322"/>
      <point x="276" y="361" type="curve" smooth="yes"/>
      <point x="276" y="409"/>
      <point x="237" y="453"/>
      <point x="150" y="453" type="curve" smooth="yes"/>
      <point x="97" y="453" type="line"/>
      <point x="100" y="490" type="line"/>
      <point x="253" y="490" type="line"/>
      <point x="253" y="561" type="line"/>
      <point x="67" y="561" type="line"/>
      <point x="57" y="416" type="line"/>
      <point x="100" y="416" type="line" smooth="yes"/>
      <point x="167" y="416"/>
      <point x="181" y="391"/>
      <point x="181" y="361" type="curve" smooth="yes"/>
      <point x="181" y="337"/>
      <point x="173" y="311"/>
      <point x="153" y="311" type="curve" smooth="yes"/>
      <point x="134" y="311"/>
      <point x="124" y="335"/>
      <point x="124" y="380" type="curve"/>
    </contour>
  </outline>
</glyph>
<glyph name="sevensuperior" format="1">
  <advance width="321"/>
  <unicode hex="2077"/>
  <outline>
    <contour>
      <point x="147" y="280" type="line"/>
      <point x="270" y="502" type="line"/>
      <point x="270" y="561" type="line"/>
      <point x="39" y="561" type="line"/>
      <point x="39" y="489" type="line"/>
      <point x="197" y="489" type="line"/>
      <point x="64" y="280" type="line"/>
    </contour>
  </outline>
</glyph>
<glyph name="eightsuperior" format="1">
  <advance width="321"/>
  <unicode hex="2078"/>
  <outline>
    <contour>
      <point x="152" y="433" type="line"/>
      <point x="78" y="424"/>
      <point x="35" y="404"/>
      <point x="35" y="357" type="curve" smooth="yes"/>
      <point x="35" y="311"/>
      <point x="83" y="274"/>
      <point x="161" y="274" type="curve" smooth="yes"/>
      <point x="239" y="274"/>
      <point x="287" y="311"/>
      <point x="287" y="357" type="curve" smooth="yes"/>
      <point x="287" y="406"/>
      <point x="241" y="436"/>
      <point x="172" y="442" type="curve" smooth="yes"/>
      <point x="167" y="442" type="line" smooth="yes"/>
      <point x="148" y="442"/>
      <point x="134" y="452"/>
      <point x="134" y="486" type="curve" smooth="yes"/>
      <point x="134" y="510"/>
      <point x="142" y="530"/>
      <point x="161" y="530" type="curve" smooth="yes"/>
      <point x="180" y="530"/>
      <point x="186" y="510"/>
      <point x="186" y="486" type="curve" smooth="yes"/>
      <point x="186" y="462"/>
      <point x="182" y="440"/>
      <point x="162" y="436" type="curve"/>
      <point x="165" y="407" type="line"/>
      <point x="240" y="415"/>
      <point x="283" y="435"/>
      <point x="283" y="486" type="curve" smooth="yes"/>
      <point x="283" y="530"/>
      <point x="244" y="566"/>
      <point x="161" y="566" type="curve" smooth="yes"/>
      <point x="78" y="566"/>
      <point x="39" y="530"/>
      <point x="39" y="486" type="curve" smooth="yes"/>
      <point x="39" y="436"/>
      <point x="81" y="415"/>
      <point x="157" y="406" type="curve" smooth="yes"/>
      <point x="159" y="406" type="line" smooth="yes"/>
      <point x="173" y="406"/>
      <point x="190" y="392"/>
      <point x="190" y="357" type="curve" smooth="yes"/>
      <point x="190" y="320"/>
      <point x="182" y="311"/>
      <point x="161" y="311" type="curve" smooth="yes"/>
      <point x="141" y="311"/>
      <point x="131" y="330"/>
      <point x="131" y="357" type="curve" smooth="yes"/>
      <point x="131" y="384"/>
      <point x="136" y="406"/>
      <point x="156" y="408" type="curve"/>
    </contour>
  </outline>
</glyph>
<glyph name="ninesuperior" format="1">
  <advance width="321"/>
  <unicode hex="2079"/>
  <outline>
    <contour>
      <point x="40" y="363" type="line"/>
      <point x="43" y="299"/>
      <point x="85" y="274"/>
      <point x="155" y="274" type="curve" smooth="yes"/>
      <point x="251" y="274"/>
      <point x="286" y="319"/>
      <point x="286" y="446" type="curve" smooth="yes"/>
      <point x="286" y="512"/>
      <point x="250" y="566"/>
      <point x="164" y="566" type="curve" smooth="yes"/>
      <point x="80" y="566"/>
      <point x="33" y="526"/>
      <point x="33" y="467" type="curve" smooth="yes"/>
      <point x="33" y="417"/>
      <point x="62" y="387"/>
      <point x="140" y="387" type="curve" smooth="yes"/>
      <point x="162" y="387"/>
      <point x="184" y="385"/>
      <point x="220" y="406" type="curve"/>
      <point x="220" y="442" type="line"/>
      <point x="205" y="429"/>
      <point x="185" y="423"/>
      <point x="171" y="423" type="curve" smooth="yes"/>
      <point x="138" y="423"/>
      <point x="129" y="450"/>
      <point x="129" y="474" type="curve" smooth="yes"/>
      <point x="129" y="507"/>
      <point x="140" y="530"/>
      <point x="164" y="530" type="curve" smooth="yes"/>
      <point x="187" y="530"/>
      <point x="190" y="479"/>
      <point x="190" y="419" type="curve" smooth="yes"/>
      <point x="190" y="350"/>
      <point x="191" y="311"/>
      <point x="155" y="311" type="curve" smooth="yes"/>
      <point x="128" y="311"/>
      <point x="122" y="334"/>
      <point x="123" y="373" type="curve"/>
    </contour>
  </outline>
</glyph>
<glyph name="lira" format="1">
  <advance width="441"/>
  <unicode hex="20A4"/>
  <outline>
    <contour>
      <point x="38" y="136" type="line"/>
      <point x="336" y="136" type="line"/>
      <point x="336" y="212" type="line"/>
      <point x="38" y="212" type="line"/>
    </contour>
    <contour>
      <point x="38" y="248" type="line"/>
      <point x="336" y="248" type="line"/>
      <point x="336" y="324" type="line"/>
      <point x="38" y="324" type="line"/>
    </contour>
    <contour>
      <point x="34" y="0" type="line"/>
      <point x="423" y="0" type="line"/>
      <point x="423" y="100" type="line"/>
      <point x="172" y="100" type="line"/>
      <point x="196" y="118"/>
      <point x="211" y="133"/>
      <point x="211" y="170" type="curve" smooth="yes"/>
      <point x="211" y="362" type="line" smooth="yes"/>
      <point x="211" y="425"/>
      <point x="219" y="470"/>
      <point x="259" y="470" type="curve" smooth="yes"/>
      <point x="296" y="470"/>
      <point x="307" y="414"/>
      <point x="307" y="350" type="curve"/>
      <point x="420" y="359" type="line"/>
      <point x="420" y="459"/>
      <point x="384" y="521"/>
      <point x="259" y="521" type="curve" smooth="yes"/>
      <point x="124" y="521"/>
      <point x="80" y="456"/>
      <point x="80" y="362" type="curve" smooth="yes"/>
      <point x="80" y="147" type="line" smooth="yes"/>
      <point x="80" y="124"/>
      <point x="65" y="90"/>
      <point x="34" y="74" type="curve"/>
    </contour>
  </outline>
</glyph>
<glyph name="rupeeIndian" format="1">
  <advance width="664"/>
  <unicode hex="20B9"/>
  <outline>
    <contour>
      <point x="65" y="500" type="line"/>
      <point x="65" y="470" type="line"/>
      <point x="309" y="470" type="line"/>
      <point x="347" y="453"/>
      <point x="375" y="420"/>
      <point x="384" y="377" type="curve"/>
      <point x="65" y="377" type="line"/>
      <point x="65" y="347" type="line"/>
      <point x="386" y="347" type="line"/>
      <point x="389" y="301"/>
      <point x="356" y="253"/>
      <point x="297" y="253" type="curve" smooth="yes"/>
      <point x="240" y="253"/>
      <point x="204" y="288"/>
      <point x="166" y="288" type="curve" smooth="yes"/>
      <point x="120" y="288"/>
      <point x="102" y="271"/>
      <point x="75" y="240" type="curve"/>
      <point x="226" y="159"/>
      <point x="304" y="-7"/>
      <point x="418" y="-7" type="curve" smooth="yes"/>
      <point x="477" y="-7"/>
      <point x="518" y="22"/>
      <point x="526" y="50" type="curve"/>
      <point x="445" y="50"/>
      <point x="347" y="105"/>
      <point x="256" y="214" type="curve"/>
      <point x="289" y="207"/>
      <point x="319" y="205"/>
      <point x="345" y="205" type="curve" smooth="yes"/>
      <point x="463" y="205"/>
      <point x="510" y="282"/>
      <point x="516" y="347" type="curve"/>
      <point x="596" y="347" type="line"/>
      <point x="596" y="377" type="line"/>
      <point x="515" y="377" type="line"/>
      <point x="508" y="419"/>
      <point x="486" y="452"/>
      <point x="457" y="470" type="curve"/>
      <point x="599" y="470" type="line"/>
      <point x="599" y="500" type="line"/>
    </contour>
  </outline>
</glyph>
<glyph name="uni2113" format="1">
  <advance width="262"/>
  <unicode hex="2113"/>
  <outline>
    <contour>
      <point x="260" y="73" type="line"/>
      <point x="247" y="66"/>
      <point x="232" y="61"/>
      <point x="215" y="61" type="curve" smooth="yes"/>
      <point x="199" y="61"/>
      <point x="187" y="68"/>
      <point x="187" y="99" type="curve" smooth="yes"/>
      <point x="187" y="511" type="line"/>
      <point x="58" y="511" type="line"/>
      <point x="58" y="124" type="line" smooth="yes"/>
      <point x="58" y="71"/>
      <point x="59" y="-10"/>
      <point x="179" y="-10" type="curve" smooth="yes"/>
      <point x="201" y="-10"/>
      <point x="241" y="-4"/>
      <point x="276" y="14" type="curve"/>
    </contour>
  </outline>
</glyph>
<glyph name="estimated" format="1">
  <advance width="420"/>
  <unicode hex="212E"/>
  <outline>
    <contour>
      <point x="110" y="181" type="line"/>
      <point x="110" y="55" type="line"/>
      <point x="139" y="27"/>
      <point x="173" y="13"/>
      <point x="211" y="13" type="curve" smooth="yes"/>
      <point x="270" y="13"/>
      <point x="314" y="41"/>
      <point x="347" y="97" type="curve"/>
      <point x="371" y="83" type="line"/>
      <point x="323" y="18"/>
      <point x="286" y="-12"/>
      <point x="211" y="-12" type="curve" smooth="yes"/>
      <point x="97" y="-12"/>
      <point x="31" y="75"/>
      <point x="31" y="181" type="curve" smooth="yes"/>
      <point x="31" y="295"/>
      <point x="99" y="375"/>
      <point x="211" y="375" type="curve" smooth="yes"/>
      <point x="331" y="375"/>
      <point x="388" y="289"/>
      <point x="393" y="181" type="curve"/>
    </contour>
    <contour>
      <point x="314" y="207" type="line"/>
      <point x="314" y="308" type="line"/>
      <point x="284" y="336"/>
      <point x="250" y="350"/>
      <point x="211" y="350" type="curve" smooth="yes"/>
      <point x="171" y="350"/>
      <point x="137" y="336"/>
      <point x="110" y="308" type="curve"/>
      <point x="110" y="207" type="line"/>
    </contour>
  </outline>
</glyph>
<glyph name="partialdiff" format="1">
  <advance width="410"/>
  <unicode hex="2202"/>
  <outline>
    <contour>
      <point x="398" y="417"/>
      <point x="320" y="493"/>
      <point x="280" y="535" type="curve"/>
      <point x="208" y="463" type="line"/>
      <point x="245" y="421"/>
      <point x="270" y="395"/>
      <point x="285" y="336" type="curve"/>
      <point x="276" y="348"/>
      <point x="241" y="354"/>
      <point x="212" y="354" type="curve" smooth="yes"/>
      <point x="93" y="354"/>
      <point x="12" y="270"/>
      <point x="12" y="140" type="curve" smooth="yes"/>
      <point x="12" y="49"/>
      <point x="77" y="-10"/>
      <point x="174" y="-10" type="curve" smooth="yes"/>
      <point x="308" y="-10"/>
      <point x="398" y="98"/>
      <point x="398" y="258" type="curve" smooth="yes"/>
    </contour>
    <contour>
      <point x="163" y="83"/>
      <point x="142" y="105"/>
      <point x="142" y="140" type="curve" smooth="yes"/>
      <point x="142" y="216"/>
      <point x="171" y="262"/>
      <point x="216" y="262" type="curve" smooth="yes"/>
      <point x="246" y="262"/>
      <point x="264" y="236"/>
      <point x="264" y="197" type="curve" smooth="yes"/>
      <point x="264" y="129"/>
      <point x="238" y="83"/>
      <point x="192" y="83" type="curve" smooth="yes"/>
    </contour>
  </outline>
</glyph>
<glyph name="increment" format="1">
  <advance width="491"/>
  <unicode hex="2206"/>
  <outline>
    <contour>
      <point x="197" y="511" type="line"/>
      <point x="361" y="0" type="line"/>
      <point x="491" y="0" type="line"/>
      <point x="317" y="511" type="line"/>
    </contour>
    <contour>
      <point x="174" y="511" type="line"/>
      <point x="-1" y="0" type="line"/>
      <point x="77" y="0" type="line"/>
      <point x="241" y="511" type="line"/>
    </contour>
    <contour>
      <point x="51" y="0" type="line"/>
      <point x="441" y="0" type="line"/>
      <point x="441" y="82" type="line"/>
      <point x="51" y="82" type="line"/>
    </contour>
  </outline>
</glyph>
<glyph name="summation" format="1">
  <advance width="413"/>
  <unicode hex="2211"/>
  <outline>
    <contour>
      <point x="19" y="429" type="line"/>
      <point x="402" y="429" type="line"/>
      <point x="402" y="511" type="line"/>
      <point x="19" y="511" type="line"/>
    </contour>
    <contour>
      <point x="19" y="-110" type="line"/>
      <point x="402" y="-110" type="line"/>
      <point x="402" y="-28" type="line"/>
      <point x="19" y="-28" type="line"/>
    </contour>
    <contour>
      <point x="157" y="-28" type="line"/>
      <point x="311" y="190" type="line"/>
      <point x="172" y="190" type="line"/>
      <point x="19" y="-28" type="line"/>
    </contour>
    <contour>
      <point x="19" y="429" type="line"/>
      <point x="172" y="190" type="line"/>
      <point x="311" y="190" type="line"/>
      <point x="152" y="429" type="line"/>
    </contour>
  </outline>
</glyph>
<glyph name="radical" format="1">
  <advance width="413"/>
  <unicode hex="221A"/>
  <outline>
    <contour>
      <point x="237" y="0" type="line"/>
      <point x="384" y="511" type="line"/>
      <point x="254" y="511" type="line"/>
      <point x="117" y="0" type="line"/>
    </contour>
    <contour>
      <point x="214" y="0" type="line"/>
      <point x="120" y="306" type="line"/>
      <point x="-10" y="306" type="line"/>
      <point x="94" y="0" type="line"/>
    </contour>
    <contour>
      <point x="458" y="511" type="line"/>
      <point x="272" y="511" type="line"/>
      <point x="272" y="430" type="line"/>
      <point x="458" y="430" type="line"/>
    </contour>
  </outline>
</glyph>
<glyph name="integral" format="1">
  <advance width="324"/>
  <unicode hex="222B"/>
  <outline>
    <contour>
      <point x="103" y="-20" type="line" smooth="yes"/>
      <point x="103" y="-51"/>
      <point x="96" y="-82"/>
      <point x="49" y="-82" type="curve" smooth="yes"/>
      <point x="26" y="-82"/>
      <point x="7" y="-74"/>
      <point x="-6" y="-65" type="curve"/>
      <point x="-40" y="-152" type="line"/>
      <point x="-14" y="-171"/>
      <point x="23" y="-183"/>
      <point x="71" y="-183" type="curve" smooth="yes"/>
      <point x="188" y="-183"/>
      <point x="235" y="-127"/>
      <point x="235" y="-20" type="curve" smooth="yes"/>
      <point x="235" y="356" type="line" smooth="yes"/>
      <point x="235" y="389"/>
      <point x="243" y="420"/>
      <point x="288" y="420" type="curve" smooth="yes"/>
      <point x="312" y="420"/>
      <point x="331" y="413"/>
      <point x="343" y="403" type="curve"/>
      <point x="378" y="490" type="line"/>
      <point x="351" y="509"/>
      <point x="315" y="521"/>
      <point x="268" y="521" type="curve" smooth="yes"/>
      <point x="151" y="521"/>
      <point x="103" y="465"/>
      <point x="103" y="356" type="curve" smooth="yes"/>
    </contour>
  </outline>
</glyph>
<glyph name="approxequal" format="1">
  <advance width="406"/>
  <unicode hex="2248"/>
  <outline>
    <contour>
      <point x="56" y="252" type="line"/>
      <point x="75" y="240"/>
      <point x="104" y="236"/>
      <point x="123" y="236" type="curve" smooth="yes"/>
      <point x="176" y="236"/>
      <point x="230" y="266"/>
      <point x="283" y="266" type="curve" smooth="yes"/>
      <point x="302" y="266"/>
      <point x="331" y="262"/>
      <point x="350" y="252" type="curve"/>
      <point x="350" y="334" type="line"/>
      <point x="331" y="343"/>
      <point x="302" y="347"/>
      <point x="283" y="347" type="curve" smooth="yes"/>
      <point x="230" y="347"/>
      <point x="176" y="317"/>
      <point x="123" y="317" type="curve" smooth="yes"/>
      <point x="104" y="317"/>
      <point x="75" y="320"/>
      <point x="56" y="334" type="curve"/>
    </contour>
    <contour>
      <point x="56" y="112" type="line"/>
      <point x="75" y="100"/>
      <point x="104" y="96"/>
      <point x="123" y="96" type="curve" smooth="yes"/>
      <point x="176" y="96"/>
      <point x="230" y="126"/>
      <point x="283" y="126" type="curve" smooth="yes"/>
      <point x="302" y="126"/>
      <point x="331" y="122"/>
      <point x="350" y="112" type="curve"/>
      <point x="350" y="194" type="line"/>
      <point x="331" y="203"/>
      <point x="302" y="207"/>
      <point x="283" y="207" type="curve" smooth="yes"/>
      <point x="230" y="207"/>
      <point x="176" y="177"/>
      <point x="123" y="177" type="curve" smooth="yes"/>
      <point x="104" y="177"/>
      <point x="75" y="180"/>
      <point x="56" y="194" type="curve"/>
    </contour>
  </outline>
</glyph>
<glyph name="dottedCircle" format="1">
  <advance width="678"/>
  <unicode hex="25CC"/>
  <outline>
    <contour>
      <point x="70" y="237"/>
      <point x="75" y="225"/>
      <point x="84" y="216" type="curve" smooth="yes"/>
      <point x="93" y="207"/>
      <point x="105" y="202"/>
      <point x="118" y="202" type="curve" smooth="yes"/>
      <point x="131" y="202"/>
      <point x="143" y="207"/>
      <point x="153" y="216" type="curve" smooth="yes"/>
      <point x="162" y="225"/>
      <point x="167" y="237"/>
      <point x="167" y="250" type="curve" smooth="yes"/>
      <point x="167" y="263"/>
      <point x="162" y="275"/>
      <point x="153" y="284" type="curve" smooth="yes"/>
      <point x="143" y="293"/>
      <point x="131" y="298"/>
      <point x="118" y="298" type="curve" smooth="yes"/>
      <point x="105" y="298"/>
      <point x="93" y="293"/>
      <point x="84" y="284" type="curve" smooth="yes"/>
      <point x="75" y="275"/>
      <point x="70" y="263"/>
      <point x="70" y="250" type="curve" smooth="yes"/>
    </contour>
    <contour>
      <point x="291" y="458"/>
      <point x="296" y="446"/>
      <point x="305" y="437" type="curve" smooth="yes"/>
      <point x="314" y="428"/>
      <point x="326" y="423"/>
      <point x="339" y="423" type="curve" smooth="yes"/>
      <point x="352" y="423"/>
      <point x="364" y="428"/>
      <point x="373" y="437" type="curve" smooth="yes"/>
      <point x="382" y="446"/>
      <point x="387" y="458"/>
      <point x="387" y="471" type="curve" smooth="yes"/>
      <point x="387" y="484"/>
      <point x="382" y="496"/>
      <point x="373" y="505" type="curve" smooth="yes"/>
      <point x="364" y="514"/>
      <point x="352" y="519"/>
      <point x="339" y="519" type="curve" smooth="yes"/>
      <point x="326" y="519"/>
      <point x="314" y="514"/>
      <point x="305" y="505" type="curve" smooth="yes"/>
      <point x="296" y="496"/>
      <point x="291" y="484"/>
      <point x="291" y="471" type="curve" smooth="yes"/>
    </contour>
    <contour>
      <point x="291" y="16"/>
      <point x="296" y="4"/>
      <point x="305" y="-5" type="curve" smooth="yes"/>
      <point x="314" y="-14"/>
      <point x="326" y="-19"/>
      <point x="339" y="-19" type="curve" smooth="yes"/>
      <point x="352" y="-19"/>
      <point x="364" y="-14"/>
      <point x="373" y="-5" type="curve" smooth="yes"/>
      <point x="382" y="4"/>
      <point x="387" y="16"/>
      <point x="387" y="29" type="curve" smooth="yes"/>
      <point x="387" y="42"/>
      <point x="382" y="54"/>
      <point x="373" y="63" type="curve" smooth="yes"/>
      <point x="364" y="72"/>
      <point x="352" y="77"/>
      <point x="339" y="77" type="curve" smooth="yes"/>
      <point x="326" y="77"/>
      <point x="314" y="72"/>
      <point x="305" y="63" type="curve" smooth="yes"/>
      <point x="296" y="54"/>
      <point x="291" y="42"/>
      <point x="291" y="29" type="curve" smooth="yes"/>
    </contour>
    <contour>
      <point x="512" y="237"/>
      <point x="517" y="225"/>
      <point x="526" y="216" type="curve" smooth="yes"/>
      <point x="535" y="207"/>
      <point x="547" y="202"/>
      <point x="560" y="202" type="curve" smooth="yes"/>
      <point x="573" y="202"/>
      <point x="585" y="207"/>
      <point x="594" y="216" type="curve" smooth="yes"/>
      <point x="603" y="225"/>
      <point x="608" y="237"/>
      <point x="608" y="250" type="curve" smooth="yes"/>
      <point x="608" y="263"/>
      <point x="603" y="275"/>
      <point x="594" y="284" type="curve" smooth="yes"/>
      <point x="585" y="293"/>
      <point x="573" y="298"/>
      <point x="560" y="298" type="curve" smooth="yes"/>
      <point x="547" y="298"/>
      <point x="535" y="293"/>
      <point x="526" y="284" type="curve" smooth="yes"/>
      <point x="517" y="275"/>
      <point x="512" y="263"/>
      <point x="512" y="250" type="curve" smooth="yes"/>
    </contour>
    <contour>
      <point x="101" y="127"/>
      <point x="106" y="115"/>
      <point x="115" y="106" type="curve" smooth="yes"/>
      <point x="124" y="97"/>
      <point x="136" y="92"/>
      <point x="149" y="92" type="curve" smooth="yes"/>
      <point x="162" y="92"/>
      <point x="174" y="97"/>
      <point x="183" y="106" type="curve" smooth="yes"/>
      <point x="192" y="115"/>
      <point x="197" y="127"/>
      <point x="197" y="140" type="curve" smooth="yes"/>
      <point x="197" y="153"/>
      <point x="192" y="165"/>
      <point x="183" y="174" type="curve" smooth="yes"/>
      <point x="174" y="183"/>
      <point x="162" y="188"/>
      <point x="149" y="188" type="curve" smooth="yes"/>
      <point x="136" y="188"/>
      <point x="124" y="183"/>
      <point x="115" y="174" type="curve" smooth="yes"/>
      <point x="106" y="165"/>
      <point x="101" y="153"/>
      <point x="101" y="140" type="curve" smooth="yes"/>
    </contour>
    <contour>
      <point x="483" y="347"/>
      <point x="488" y="335"/>
      <point x="497" y="326" type="curve" smooth="yes"/>
      <point x="506" y="317"/>
      <point x="518" y="312"/>
      <point x="531" y="312" type="curve" smooth="yes"/>
      <point x="544" y="312"/>
      <point x="556" y="317"/>
      <point x="565" y="326" type="curve" smooth="yes"/>
      <point x="574" y="335"/>
      <point x="579" y="347"/>
      <point x="579" y="360" type="curve" smooth="yes"/>
      <point x="579" y="373"/>
      <point x="574" y="385"/>
      <point x="565" y="394" type="curve" smooth="yes"/>
      <point x="556" y="403"/>
      <point x="544" y="408"/>
      <point x="531" y="408" type="curve" smooth="yes"/>
      <point x="518" y="408"/>
      <point x="506" y="403"/>
      <point x="497" y="394" type="curve" smooth="yes"/>
      <point x="488" y="385"/>
      <point x="483" y="373"/>
      <point x="483" y="360" type="curve" smooth="yes"/>
    </contour>
    <contour>
      <point x="401" y="429"/>
      <point x="406" y="417"/>
      <point x="415" y="407" type="curve"/>
      <point x="425" y="398"/>
      <point x="437" y="393"/>
      <point x="450" y="393" type="curve" smooth="yes"/>
      <point x="463" y="393"/>
      <point x="475" y="398"/>
      <point x="484" y="407" type="curve" smooth="yes"/>
      <point x="493" y="417"/>
      <point x="498" y="429"/>
      <point x="498" y="442" type="curve" smooth="yes"/>
      <point x="498" y="455"/>
      <point x="493" y="467"/>
      <point x="484" y="476" type="curve" smooth="yes"/>
      <point x="475" y="485"/>
      <point x="463" y="490"/>
      <point x="450" y="490" type="curve" smooth="yes"/>
      <point x="437" y="490"/>
      <point x="425" y="485"/>
      <point x="415" y="476" type="curve" smooth="yes"/>
      <point x="406" y="467"/>
      <point x="401" y="455"/>
      <point x="401" y="442" type="curve" smooth="yes"/>
    </contour>
    <contour>
      <point x="181" y="46"/>
      <point x="186" y="34"/>
      <point x="195" y="24" type="curve" smooth="yes"/>
      <point x="204" y="15"/>
      <point x="216" y="10"/>
      <point x="229" y="10" type="curve" smooth="yes"/>
      <point x="242" y="10"/>
      <point x="254" y="15"/>
      <point x="263" y="24" type="curve" smooth="yes"/>
      <point x="272" y="34"/>
      <point x="277" y="46"/>
      <point x="277" y="59" type="curve" smooth="yes"/>
      <point x="277" y="72"/>
      <point x="272" y="84"/>
      <point x="263" y="94" type="curve" smooth="yes"/>
      <point x="254" y="103"/>
      <point x="242" y="108"/>
      <point x="229" y="108" type="curve" smooth="yes"/>
      <point x="216" y="108"/>
      <point x="204" y="103"/>
      <point x="195" y="94" type="curve" smooth="yes"/>
      <point x="186" y="84"/>
      <point x="181" y="72"/>
      <point x="181" y="59" type="curve" smooth="yes"/>
    </contour>
    <contour>
      <point x="101" y="347"/>
      <point x="106" y="335"/>
      <point x="115" y="326" type="curve" smooth="yes"/>
      <point x="124" y="317"/>
      <point x="136" y="312"/>
      <point x="149" y="312" type="curve" smooth="yes"/>
      <point x="162" y="312"/>
      <point x="174" y="317"/>
      <point x="183" y="326" type="curve" smooth="yes"/>
      <point x="192" y="335"/>
      <point x="197" y="347"/>
      <point x="197" y="360" type="curve" smooth="yes"/>
      <point x="197" y="373"/>
      <point x="192" y="385"/>
      <point x="183" y="394" type="curve" smooth="yes"/>
      <point x="174" y="403"/>
      <point x="162" y="408"/>
      <point x="149" y="408" type="curve" smooth="yes"/>
      <point x="136" y="408"/>
      <point x="124" y="403"/>
      <point x="115" y="394" type="curve" smooth="yes"/>
      <point x="106" y="385"/>
      <point x="101" y="373"/>
      <point x="101" y="360" type="curve" smooth="yes"/>
    </contour>
    <contour>
      <point x="483" y="127"/>
      <point x="488" y="115"/>
      <point x="497" y="106" type="curve" smooth="yes"/>
      <point x="506" y="97"/>
      <point x="518" y="92"/>
      <point x="531" y="92" type="curve" smooth="yes"/>
      <point x="544" y="92"/>
      <point x="556" y="97"/>
      <point x="565" y="106" type="curve" smooth="yes"/>
      <point x="574" y="115"/>
      <point x="579" y="127"/>
      <point x="579" y="140" type="curve" smooth="yes"/>
      <point x="579" y="153"/>
      <point x="574" y="165"/>
      <point x="565" y="174" type="curve" smooth="yes"/>
      <point x="556" y="183"/>
      <point x="544" y="188"/>
      <point x="531" y="188" type="curve" smooth="yes"/>
      <point x="518" y="188"/>
      <point x="506" y="183"/>
      <point x="497" y="174" type="curve" smooth="yes"/>
      <point x="488" y="165"/>
      <point x="483" y="153"/>
      <point x="483" y="140" type="curve" smooth="yes"/>
    </contour>
    <contour>
      <point x="181" y="429"/>
      <point x="186" y="417"/>
      <point x="195" y="407" type="curve" smooth="yes"/>
      <point x="204" y="398"/>
      <point x="216" y="393"/>
      <point x="229" y="393" type="curve" smooth="yes"/>
      <point x="242" y="393"/>
      <point x="254" y="398"/>
      <point x="263" y="407" type="curve" smooth="yes"/>
      <point x="272" y="417"/>
      <point x="277" y="429"/>
      <point x="277" y="442" type="curve" smooth="yes"/>
      <point x="277" y="455"/>
      <point x="272" y="467"/>
      <point x="263" y="476" type="curve" smooth="yes"/>
      <point x="254" y="485"/>
      <point x="242" y="490"/>
      <point x="229" y="490" type="curve" smooth="yes"/>
      <point x="216" y="490"/>
      <point x="204" y="485"/>
      <point x="195" y="476" type="curve" smooth="yes"/>
      <point x="186" y="467"/>
      <point x="181" y="455"/>
      <point x="181" y="442" type="curve" smooth="yes"/>
    </contour>
    <contour>
      <point x="401" y="46"/>
      <point x="406" y="34"/>
      <point x="415" y="24" type="curve"/>
      <point x="425" y="15"/>
      <point x="437" y="10"/>
      <point x="450" y="10" type="curve" smooth="yes"/>
      <point x="463" y="10"/>
      <point x="475" y="15"/>
      <point x="484" y="24" type="curve" smooth="yes"/>
      <point x="493" y="34"/>
      <point x="498" y="46"/>
      <point x="498" y="59" type="curve" smooth="yes"/>
      <point x="498" y="72"/>
      <point x="493" y="84"/>
      <point x="484" y="94" type="curve" smooth="yes"/>
      <point x="475" y="103"/>
      <point x="463" y="108"/>
      <point x="450" y="108" type="curve" smooth="yes"/>
      <point x="437" y="108"/>
      <point x="425" y="103"/>
      <point x="415" y="94" type="curve"/>
      <point x="406" y="84"/>
      <point x="401" y="72"/>
      <point x="401" y="59" type="curve" smooth="yes"/>
    </contour>
  </outline>
</glyph>
<glyph name="apple" format="1">
  <advance width="626"/>
  <unicode hex="F8FF"/>
  <outline>
    <contour>
      <point x="381" y="-62"/>
      <point x="384" y="-62"/>
      <point x="386" y="-62" type="curve" smooth="yes"/>
      <point x="392" y="-62"/>
      <point x="397" y="-62"/>
      <point x="402" y="-62" type="curve" smooth="yes"/>
      <point x="421" y="-62"/>
      <point x="422" y="-49"/>
      <point x="434" y="-42" type="curve" smooth="yes"/>
      <point x="444" y="-36"/>
      <point x="459" y="-36"/>
      <point x="468" y="-29" type="curve" smooth="yes"/>
      <point x="477" y="-23"/>
      <point x="481" y="-8"/>
      <point x="489" y="1" type="curve" smooth="yes"/>
      <point x="496" y="8"/>
      <point x="507" y="8"/>
      <point x="514" y="16" type="curve" smooth="yes"/>
      <point x="521" y="25"/>
      <point x="521" y="42"/>
      <point x="526" y="52" type="curve" smooth="yes"/>
      <point x="533" y="64"/>
      <point x="550" y="64"/>
      <point x="550" y="84" type="curve" smooth="yes"/>
      <point x="550" y="91"/>
      <point x="549" y="99"/>
      <point x="549" y="106" type="curve" smooth="yes"/>
      <point x="549" y="124"/>
      <point x="564" y="126"/>
      <point x="566" y="140" type="curve"/>
      <point x="566" y="150"/>
      <point x="558" y="160"/>
      <point x="558" y="171" type="curve" smooth="yes"/>
      <point x="558" y="180"/>
      <point x="566" y="188"/>
      <point x="566" y="198" type="curve" smooth="yes"/>
      <point x="566" y="214"/>
      <point x="549" y="223"/>
      <point x="549" y="241" type="curve" smooth="yes"/>
      <point x="549" y="246"/>
      <point x="550" y="252"/>
      <point x="550" y="258" type="curve" smooth="yes"/>
      <point x="550" y="278"/>
      <point x="533" y="280"/>
      <point x="525" y="293" type="curve" smooth="yes"/>
      <point x="521" y="300"/>
      <point x="524" y="315"/>
      <point x="520" y="322" type="curve" smooth="yes"/>
      <point x="512" y="335"/>
      <point x="494" y="338"/>
      <point x="484" y="347" type="curve" smooth="yes"/>
      <point x="476" y="356"/>
      <point x="477" y="368"/>
      <point x="468" y="375" type="curve" smooth="yes"/>
      <point x="458" y="382"/>
      <point x="447" y="379"/>
      <point x="437" y="385" type="curve" smooth="yes"/>
      <point x="423" y="392"/>
      <point x="422" y="410"/>
      <point x="403" y="410" type="curve" smooth="yes"/>
      <point x="396" y="410"/>
      <point x="389" y="408"/>
      <point x="383" y="408" type="curve" smooth="yes"/>
      <point x="367" y="408"/>
      <point x="362" y="426"/>
      <point x="344" y="426" type="curve" smooth="yes"/>
      <point x="334" y="426"/>
      <point x="322" y="417"/>
      <point x="312" y="417" type="curve" smooth="yes"/>
      <point x="303" y="417"/>
      <point x="290" y="426"/>
      <point x="281" y="426" type="curve" smooth="yes"/>
      <point x="266" y="426"/>
      <point x="260" y="410"/>
      <point x="243" y="410" type="curve" smooth="yes"/>
      <point x="236" y="410"/>
      <point x="230" y="411"/>
      <point x="224" y="411" type="curve" smooth="yes"/>
      <point x="207" y="410"/>
      <point x="202" y="391"/>
      <point x="190" y="384" type="curve" smooth="yes"/>
      <point x="179" y="379"/>
      <point x="164" y="380"/>
      <point x="155" y="372" type="curve" smooth="yes"/>
      <point x="147" y="365"/>
      <point x="144" y="351"/>
      <point x="137" y="344" type="curve" smooth="yes"/>
      <point x="129" y="336"/>
      <point x="115" y="336"/>
      <point x="109" y="327" type="curve" smooth="yes"/>
      <point x="104" y="319"/>
      <point x="106" y="305"/>
      <point x="101" y="297" type="curve" smooth="yes"/>
      <point x="94" y="285"/>
      <point x="77" y="281"/>
      <point x="77" y="263" type="curve" smooth="yes"/>
      <point x="77" y="258"/>
      <point x="78" y="251"/>
      <point x="78" y="246" type="curve" smooth="yes"/>
      <point x="78" y="232"/>
      <point x="60" y="218"/>
      <point x="60" y="203" type="curve" smooth="yes"/>
      <point x="60" y="193"/>
      <point x="68" y="186"/>
      <point x="68" y="174" type="curve" smooth="yes"/>
      <point x="68" y="163"/>
      <point x="60" y="153"/>
      <point x="60" y="143" type="curve" smooth="yes"/>
      <point x="60" y="128"/>
      <point x="78" y="118"/>
      <point x="78" y="104" type="curve" smooth="yes"/>
      <point x="78" y="99"/>
      <point x="75" y="93"/>
      <point x="75" y="87" type="curve" smooth="yes"/>
      <point x="75" y="69"/>
      <point x="94" y="61"/>
      <point x="99" y="53" type="curve" smooth="yes"/>
      <point x="107" y="40"/>
      <point x="102" y="32"/>
      <point x="110" y="20" type="curve" smooth="yes"/>
      <point x="117" y="8"/>
      <point x="128" y="11"/>
      <point x="137" y="3" type="curve" smooth="yes"/>
      <point x="146" y="-5"/>
      <point x="145" y="-22"/>
      <point x="158" y="-29" type="curve" smooth="yes"/>
      <point x="169" y="-36"/>
      <point x="174" y="-30"/>
      <point x="190" y="-39" type="curve" smooth="yes"/>
      <point x="199" y="-43"/>
      <point x="208" y="-64"/>
      <point x="226" y="-64" type="curve" smooth="yes"/>
      <point x="231" y="-64"/>
      <point x="237" y="-62"/>
      <point x="243" y="-62" type="curve" smooth="yes"/>
      <point x="260" y="-62"/>
      <point x="267" y="-80"/>
      <point x="281" y="-80" type="curve" smooth="yes"/>
      <point x="292" y="-80"/>
      <point x="302" y="-71"/>
      <point x="313" y="-71" type="curve" smooth="yes"/>
      <point x="324" y="-71"/>
      <point x="335" y="-78"/>
      <point x="346" y="-78" type="curve" smooth="yes"/>
      <point x="358" y="-78"/>
      <point x="367" y="-66"/>
      <point x="379" y="-62" type="curve" smooth="yes"/>
    </contour>
    <contour>
      <point x="352" y="0"/>
      <point x="345" y="-9"/>
      <point x="337" y="-9" type="curve" smooth="yes"/>
      <point x="329" y="-9"/>
      <point x="321" y="-4"/>
      <point x="313" y="-4" type="curve" smooth="yes"/>
      <point x="305" y="-4"/>
      <point x="297" y="-11"/>
      <point x="288" y="-11" type="curve"/>
      <point x="278" y="-9"/>
      <point x="274" y="2"/>
      <point x="260" y="2" type="curve" smooth="yes"/>
      <point x="257" y="2"/>
      <point x="253" y="1"/>
      <point x="250" y="1" type="curve" smooth="yes"/>
      <point x="236" y="1"/>
      <point x="231" y="16"/>
      <point x="224" y="20" type="curve" smooth="yes"/>
      <point x="212" y="26"/>
      <point x="208" y="20"/>
      <point x="201" y="26" type="curve" smooth="yes"/>
      <point x="192" y="31"/>
      <point x="192" y="44"/>
      <point x="185" y="50" type="curve" smooth="yes"/>
      <point x="179" y="55"/>
      <point x="171" y="54"/>
      <point x="166" y="62" type="curve" smooth="yes"/>
      <point x="160" y="71"/>
      <point x="164" y="77"/>
      <point x="158" y="86" type="curve" smooth="yes"/>
      <point x="155" y="92"/>
      <point x="141" y="97"/>
      <point x="141" y="111" type="curve" smooth="yes"/>
      <point x="141" y="114"/>
      <point x="142" y="118"/>
      <point x="142" y="122" type="curve" smooth="yes"/>
      <point x="142" y="132"/>
      <point x="130" y="140"/>
      <point x="130" y="151" type="curve" smooth="yes"/>
      <point x="130" y="158"/>
      <point x="136" y="166"/>
      <point x="136" y="174" type="curve" smooth="yes"/>
      <point x="136" y="182"/>
      <point x="130" y="187"/>
      <point x="130" y="195" type="curve" smooth="yes"/>
      <point x="130" y="206"/>
      <point x="142" y="216"/>
      <point x="142" y="227" type="curve" smooth="yes"/>
      <point x="142" y="230"/>
      <point x="141" y="234"/>
      <point x="141" y="238" type="curve" smooth="yes"/>
      <point x="141" y="251"/>
      <point x="155" y="254"/>
      <point x="159" y="263" type="curve" smooth="yes"/>
      <point x="163" y="269"/>
      <point x="162" y="279"/>
      <point x="165" y="285" type="curve" smooth="yes"/>
      <point x="170" y="291"/>
      <point x="180" y="291"/>
      <point x="185" y="297" type="curve" smooth="yes"/>
      <point x="191" y="302"/>
      <point x="192" y="313"/>
      <point x="199" y="318" type="curve" smooth="yes"/>
      <point x="205" y="323"/>
      <point x="216" y="322"/>
      <point x="224" y="326" type="curve" smooth="yes"/>
      <point x="233" y="330"/>
      <point x="236" y="345"/>
      <point x="249" y="345" type="curve" smooth="yes"/>
      <point x="253" y="345"/>
      <point x="257" y="344"/>
      <point x="261" y="344" type="curve" smooth="yes"/>
      <point x="274" y="344"/>
      <point x="279" y="356"/>
      <point x="290" y="356" type="curve" smooth="yes"/>
      <point x="297" y="356"/>
      <point x="306" y="350"/>
      <point x="313" y="350" type="curve" smooth="yes"/>
      <point x="320" y="350"/>
      <point x="328" y="356"/>
      <point x="336" y="356" type="curve" smooth="yes"/>
      <point x="349" y="356"/>
      <point x="351" y="344"/>
      <point x="365" y="344" type="curve" smooth="yes"/>
      <point x="369" y="344"/>
      <point x="374" y="345"/>
      <point x="379" y="345" type="curve" smooth="yes"/>
      <point x="393" y="345"/>
      <point x="393" y="332"/>
      <point x="402" y="327" type="curve" smooth="yes"/>
      <point x="411" y="322"/>
      <point x="418" y="325"/>
      <point x="425" y="319" type="curve" smooth="yes"/>
      <point x="432" y="314"/>
      <point x="431" y="305"/>
      <point x="437" y="300" type="curve" smooth="yes"/>
      <point x="444" y="293"/>
      <point x="458" y="291"/>
      <point x="463" y="281" type="curve" smooth="yes"/>
      <point x="466" y="276"/>
      <point x="464" y="265"/>
      <point x="467" y="260" type="curve" smooth="yes"/>
      <point x="472" y="250"/>
      <point x="485" y="249"/>
      <point x="485" y="234" type="curve" smooth="yes"/>
      <point x="485" y="230"/>
      <point x="484" y="226"/>
      <point x="484" y="223" type="curve" smooth="yes"/>
      <point x="484" y="210"/>
      <point x="497" y="202"/>
      <point x="497" y="191" type="curve" smooth="yes"/>
      <point x="497" y="185"/>
      <point x="491" y="178"/>
      <point x="491" y="172" type="curve" smooth="yes"/>
      <point x="491" y="164"/>
      <point x="497" y="156"/>
      <point x="497" y="149" type="curve"/>
      <point x="495" y="139"/>
      <point x="484" y="137"/>
      <point x="484" y="124" type="curve" smooth="yes"/>
      <point x="484" y="120"/>
      <point x="485" y="115"/>
      <point x="485" y="110" type="curve" smooth="yes"/>
      <point x="485" y="93"/>
      <point x="474" y="95"/>
      <point x="468" y="85" type="curve" smooth="yes"/>
      <point x="464" y="78"/>
      <point x="464" y="66"/>
      <point x="459" y="59" type="curve" smooth="yes"/>
      <point x="454" y="53"/>
      <point x="446" y="53"/>
      <point x="441" y="48" type="curve" smooth="yes"/>
      <point x="435" y="42"/>
      <point x="432" y="31"/>
      <point x="425" y="27" type="curve" smooth="yes"/>
      <point x="419" y="22"/>
      <point x="408" y="21"/>
      <point x="401" y="17" type="curve"/>
      <point x="393" y="13"/>
      <point x="392" y="2"/>
      <point x="378" y="2" type="curve" smooth="yes"/>
      <point x="374" y="2"/>
      <point x="371" y="3"/>
      <point x="367" y="3" type="curve" smooth="yes"/>
      <point x="365" y="3"/>
      <point x="363" y="3"/>
      <point x="361" y="2" type="curve" smooth="yes"/>
    </contour>
    <contour>
      <point x="248" y="292"/>
      <point x="194" y="239"/>
      <point x="194" y="173" type="curve" smooth="yes"/>
      <point x="194" y="107"/>
      <point x="248" y="54"/>
      <point x="313" y="54" type="curve" smooth="yes"/>
      <point x="379" y="54"/>
      <point x="432" y="107"/>
      <point x="432" y="173" type="curve" smooth="yes"/>
      <point x="432" y="239"/>
      <point x="379" y="292"/>
      <point x="313" y="292" type="curve" smooth="yes"/>
    </contour>
    <contour>
      <point x="344" y="204" type="line"/>
      <point x="344" y="82" type="line"/>
      <point x="284" y="82" type="line"/>
      <point x="284" y="204" type="line"/>
      <point x="246" y="204" type="line"/>
      <point x="246" y="252" type="line"/>
      <point x="380" y="252" type="line"/>
      <point x="380" y="204" type="line"/>
    </contour>
  </outline>
</glyph>
<glyph name="fi" format="1">
  <advance width="499"/>
  <unicode hex="FB01"/>
  <outline>
    <contour>
      <point x="244" y="335" type="line"/>
      <point x="326" y="335" type="line"/>
      <point x="326" y="400" type="line"/>
      <point x="244" y="400" type="line"/>
    </contour>
    <component base="f.alt"/>
    <component base="dotlessi" xOffset="256"/>
  </outline>
</glyph>
<glyph name="aiMatra_reph-deva" format="1">
  <advance width="0"/>
  <outline>
    <contour>
      <point x="-388" y="695" type="line"/>
      <point x="-212" y="695"/>
      <point x="-183" y="593"/>
      <point x="-168" y="528" type="curve"/>
      <point x="-172" y="528" type="line"/>
      <point x="-229" y="621"/>
      <point x="-273" y="667"/>
      <point x="-362" y="667" type="curve"/>
      <point x="-443" y="604" type="line"/>
      <point x="-268" y="604"/>
      <point x="-271" y="494"/>
      <point x="-135" y="494" type="curve"/>
      <point x="-96" y="540" type="line"/>
      <point x="-142" y="579"/>
      <point x="-145" y="738"/>
      <point x="-307" y="758" type="curve"/>
    </contour>
    <contour>
      <point x="-119" y="749"/>
      <point x="-182" y="726"/>
      <point x="-216" y="664" type="curve"/>
      <point x="-135" y="494" type="line"/>
      <point x="-35" y="529" type="line"/>
      <point x="-106" y="551"/>
      <point x="-132" y="594"/>
      <point x="-132" y="639" type="curve" smooth="yes"/>
      <point x="-132" y="678"/>
      <point x="-104" y="709"/>
      <point x="-72" y="709" type="curve" smooth="yes"/>
      <point x="-35" y="709"/>
      <point x="0" y="669"/>
      <point x="33" y="669" type="curve"/>
      <point x="88" y="714" type="line"/>
      <point x="46" y="714"/>
      <point x="-9" y="749"/>
      <point x="-47" y="749" type="curve" smooth="yes"/>
    </contour>
    <contour>
      <point x="-141" y="500" type="move" name="_top"/>
    </contour>
  </outline>
</glyph>
<glyph name="bh-deva" format="1">
  <advance width="431"/>
  <outline>
    <contour>
      <point x="105" y="530"/>
      <point x="31" y="492"/>
      <point x="31" y="445" type="curve" smooth="yes"/>
      <point x="31" y="398"/>
      <point x="96" y="360"/>
      <point x="176" y="360" type="curve"/>
      <point x="211" y="395" type="line"/>
      <point x="187" y="395"/>
      <point x="167" y="415"/>
      <point x="167" y="440" type="curve" smooth="yes"/>
      <point x="167" y="468"/>
      <point x="185" y="490"/>
      <point x="206" y="490" type="curve" smooth="yes"/>
      <point x="225" y="490"/>
      <point x="241" y="468"/>
      <point x="241" y="440" type="curve" smooth="yes"/>
      <point x="241" y="300" type="line"/>
      <point x="201" y="300" type="line" smooth="yes"/>
      <point x="108" y="300"/>
      <point x="31" y="247"/>
      <point x="31" y="180" type="curve" smooth="yes"/>
      <point x="31" y="108"/>
      <point x="111" y="50"/>
      <point x="211" y="50" type="curve" smooth="yes"/>
      <point x="299" y="50"/>
      <point x="371" y="101"/>
      <point x="371" y="165" type="curve" smooth="yes"/>
      <point x="371" y="260" type="line"/>
      <point x="451" y="260" type="line"/>
      <point x="451" y="300" type="line"/>
      <point x="371" y="300" type="line"/>
      <point x="371" y="430" type="line" smooth="yes"/>
      <point x="371" y="485"/>
      <point x="292" y="530"/>
      <point x="196" y="530" type="curve" smooth="yes"/>
    </contour>
    <contour>
      <point x="241" y="135" type="line" smooth="yes"/>
      <point x="241" y="110"/>
      <point x="227" y="90"/>
      <point x="211" y="90" type="curve" smooth="yes"/>
      <point x="187" y="90"/>
      <point x="167" y="135"/>
      <point x="167" y="190" type="curve" smooth="yes"/>
      <point x="167" y="229"/>
      <point x="192" y="260"/>
      <point x="221" y="260" type="curve" smooth="yes"/>
      <point x="241" y="260" type="line"/>
    </contour>
    <contour>
      <point x="391" y="500" type="line"/>
      <point x="391" y="470" type="line"/>
      <point x="441" y="470" type="line"/>
      <point x="441" y="500" type="line"/>
    </contour>
  </outline>
</glyph>
<glyph name="bh_ra-deva" format="1">
  <advance width="652"/>
  <outline>
    <component base="bha-deva"/>
    <component base="ra-deva.post" xOffset="652"/>
    <contour>
      <point x="212" y="-65" type="move" name="nukta"/>
    </contour>
    <contour>
      <point x="517" y="0" type="move" name="bottom"/>
    </contour>
    <contour>
      <point x="517" y="500" type="move" name="top"/>
    </contour>
  </outline>
</glyph>
<glyph name="breve.case" format="1">
  <advance width="278"/>
  <outline>
    <contour>
      <point x="198" y="687" type="line"/>
      <point x="198" y="650"/>
      <point x="180" y="629"/>
      <point x="138" y="629" type="curve" smooth="yes"/>
      <point x="97" y="629"/>
      <point x="77" y="650"/>
      <point x="77" y="687" type="curve"/>
      <point x="26" y="687" type="line"/>
      <point x="26" y="623"/>
      <point x="45" y="553"/>
      <point x="138" y="553" type="curve" smooth="yes"/>
      <point x="233" y="553"/>
      <point x="252" y="623"/>
      <point x="252" y="687" type="curve"/>
    </contour>
    <contour>
      <point x="140" y="512" type="move" name="_top"/>
    </contour>
  </outline>
</glyph>
<glyph name="ch_ra-deva" format="1">
  <advance width="646"/>
  <outline>
    <component base="rakar-deva" xOffset="491"/>
    <component base="cha-deva"/>
    <contour>
      <point x="472" y="500" type="move" name="top"/>
    </contour>
    <contour>
      <point x="317" y="0" type="move" name="bottom"/>
    </contour>
  </outline>
</glyph>
<glyph name="circumflex.case" format="1">
  <advance width="265"/>
  <outline>
    <contour>
      <point x="57" y="546" type="line"/>
      <point x="132" y="613" type="line"/>
      <point x="209" y="546" type="line"/>
      <point x="243" y="575" type="line"/>
      <point x="163" y="709" type="line"/>
      <point x="103" y="709" type="line"/>
      <point x="22" y="575" type="line"/>
    </contour>
    <contour>
      <point x="133" y="512" type="move" name="_top"/>
    </contour>
  </outline>
</glyph>
<glyph name="d_bha-deva" format="1">
  <advance width="731"/>
  <note>
    g250
  </note>
  <outline>
    <contour>
      <point x="250" y="5" type="line"/>
      <point x="220" y="100" type="line"/>
      <point x="212" y="129"/>
      <point x="173" y="150"/>
      <point x="125" y="150" type="curve" smooth="yes"/>
      <point x="46" y="150"/>
      <point x="9" y="112"/>
      <point x="9" y="76" type="curve" smooth="yes"/>
      <point x="9" y="45"/>
      <point x="38" y="15"/>
      <point x="95" y="15" type="curve"/>
      <point x="95" y="50" type="line"/>
      <point x="76" y="50"/>
      <point x="67" y="62"/>
      <point x="67" y="73" type="curve" smooth="yes"/>
      <point x="67" y="84"/>
      <point x="75" y="95"/>
      <point x="88" y="95" type="curve" smooth="yes"/>
      <point x="100" y="95"/>
      <point x="109" y="87"/>
      <point x="116" y="66" type="curve" smooth="yes"/>
      <point x="140" y="-10" type="line"/>
      <point x="107" y="-22"/>
      <point x="85" y="-46"/>
      <point x="85" y="-70" type="curve" smooth="yes"/>
      <point x="85" y="-110"/>
      <point x="129" y="-129"/>
      <point x="173" y="-129" type="curve" smooth="yes"/>
      <point x="219" y="-129"/>
      <point x="265" y="-109"/>
      <point x="265" y="-70" type="curve" smooth="yes"/>
      <point x="265" y="-53"/>
      <point x="263" y="-39"/>
      <point x="260" y="-30" type="curve"/>
      <point x="605" y="50" type="line"/>
      <point x="585" y="83" type="line"/>
    </contour>
    <contour>
      <point x="-10" y="500" type="line"/>
      <point x="-10" y="470" type="line"/>
      <point x="505" y="470" type="line"/>
      <point x="505" y="390" type="line"/>
      <point x="485" y="398"/>
      <point x="462" y="402"/>
      <point x="437" y="402" type="curve" smooth="yes"/>
      <point x="341" y="402"/>
      <point x="225" y="342"/>
      <point x="225" y="220" type="curve" smooth="yes"/>
      <point x="225" y="105"/>
      <point x="308" y="30"/>
      <point x="435" y="30" type="curve" smooth="yes"/>
      <point x="480" y="30" type="line"/>
      <point x="495" y="-1"/>
      <point x="520" y="-35"/>
      <point x="555" y="-70" type="curve"/>
      <point x="670" y="-30" type="line"/>
      <point x="646" y="-9"/>
      <point x="624" y="17"/>
      <point x="605" y="50" type="curve"/>
      <point x="668" y="73"/>
      <point x="710" y="123"/>
      <point x="710" y="175" type="curve" smooth="yes"/>
      <point x="710" y="230"/>
      <point x="647" y="275"/>
      <point x="570" y="275" type="curve" smooth="yes"/>
      <point x="490" y="275"/>
      <point x="425" y="226"/>
      <point x="425" y="165" type="curve" smooth="yes"/>
      <point x="425" y="132"/>
      <point x="437" y="98"/>
      <point x="460" y="65" type="curve"/>
      <point x="405" y="65"/>
      <point x="361" y="135"/>
      <point x="361" y="220" type="curve" smooth="yes"/>
      <point x="361" y="297"/>
      <point x="412" y="360"/>
      <point x="475" y="360" type="curve" smooth="yes"/>
      <point x="498" y="360"/>
      <point x="517" y="353"/>
      <point x="530" y="340" type="curve"/>
      <point x="635" y="365" type="line"/>
      <point x="635" y="470" type="line"/>
      <point x="741" y="470" type="line"/>
      <point x="741" y="500" type="line"/>
    </contour>
    <contour>
      <point x="583" y="225"/>
      <point x="595" y="201"/>
      <point x="595" y="170" type="curve" smooth="yes"/>
      <point x="595" y="127"/>
      <point x="587" y="107"/>
      <point x="575" y="90" type="curve"/>
      <point x="566" y="106"/>
      <point x="551" y="127"/>
      <point x="551" y="170" type="curve" smooth="yes"/>
      <point x="551" y="210"/>
      <point x="562" y="225"/>
      <point x="570" y="225" type="curve" smooth="yes"/>
    </contour>
    <contour>
      <point x="306" y="-80" type="move" name="nukta"/>
    </contour>
    <contour>
      <point x="570" y="-65" type="move" name="bottom"/>
    </contour>
    <contour>
      <point x="570" y="500" type="move" name="top"/>
    </contour>
  </outline>
</glyph>
<glyph name="d_ga-deva" format="1">
  <advance width="537"/>
  <outline>
    <contour>
      <point x="92" y="83" type="line"/>
      <point x="115" y="69"/>
      <point x="147" y="33"/>
      <point x="147" y="-2" type="curve"/>
      <point x="138" y="5"/>
      <point x="125" y="8"/>
      <point x="112" y="8" type="curve" smooth="yes"/>
      <point x="69" y="8"/>
      <point x="32" y="-26"/>
      <point x="32" y="-67" type="curve" smooth="yes"/>
      <point x="32" y="-106"/>
      <point x="71" y="-137"/>
      <point x="117" y="-137" type="curve" smooth="yes"/>
      <point x="193" y="-137"/>
      <point x="236" y="-95"/>
      <point x="236" y="-38" type="curve" smooth="yes"/>
      <point x="236" y="-2"/>
      <point x="219" y="41"/>
      <point x="181" y="83" type="curve"/>
    </contour>
    <contour>
      <point x="141" y="-33"/>
      <point x="151" y="-47"/>
      <point x="151" y="-64" type="curve" smooth="yes"/>
      <point x="151" y="-82"/>
      <point x="141" y="-96"/>
      <point x="129" y="-96" type="curve"/>
      <point x="117" y="-96"/>
      <point x="107" y="-82"/>
      <point x="107" y="-65" type="curve" smooth="yes"/>
      <point x="107" y="-47"/>
      <point x="117" y="-33"/>
      <point x="129" y="-33" type="curve"/>
    </contour>
    <component base="da-deva"/>
    <contour>
      <point x="112" y="-80" type="move" name="nukta"/>
    </contour>
    <contour>
      <point x="376" y="-65" type="move" name="bottom"/>
    </contour>
    <contour>
      <point x="376" y="500" type="move" name="top"/>
    </contour>
  </outline>
</glyph>
<glyph name="d_gha-deva" format="1">
  <advance width="657"/>
  <outline>
    <contour>
      <point x="80" y="205"/>
      <point x="21" y="157"/>
      <point x="21" y="100" type="curve" smooth="yes"/>
      <point x="21" y="44"/>
      <point x="57" y="-1"/>
      <point x="112" y="-1" type="curve" smooth="yes"/>
      <point x="125" y="-1"/>
      <point x="140" y="1"/>
      <point x="156" y="5" type="curve"/>
      <point x="153" y="-5"/>
      <point x="152" y="-15"/>
      <point x="152" y="-25" type="curve" smooth="yes"/>
      <point x="152" y="-79"/>
      <point x="193" y="-115"/>
      <point x="276" y="-115" type="curve" smooth="yes"/>
      <point x="370" y="-115"/>
      <point x="421" y="-70"/>
      <point x="448" y="-7" type="curve"/>
      <point x="448" y="67" type="line"/>
      <point x="398" y="33" type="line"/>
      <point x="398" y="-16"/>
      <point x="356" y="-60"/>
      <point x="306" y="-60" type="curve" smooth="yes"/>
      <point x="275" y="-60"/>
      <point x="251" y="-36"/>
      <point x="251" y="-5" type="curve" smooth="yes"/>
      <point x="251" y="15"/>
      <point x="260" y="33"/>
      <point x="276" y="43" type="curve"/>
      <point x="216" y="75" type="line"/>
      <point x="205" y="62"/>
      <point x="188" y="55"/>
      <point x="171" y="55" type="curve" smooth="yes"/>
      <point x="140" y="55"/>
      <point x="116" y="79"/>
      <point x="116" y="110" type="curve" smooth="yes"/>
      <point x="116" y="145"/>
      <point x="138" y="172"/>
      <point x="167" y="175" type="curve"/>
      <point x="161" y="214" type="line"/>
    </contour>
    <contour>
      <point x="-10" y="500" type="line"/>
      <point x="-10" y="470" type="line"/>
      <point x="431" y="470" type="line"/>
      <point x="431" y="390" type="line"/>
      <point x="411" y="398"/>
      <point x="388" y="402"/>
      <point x="363" y="402" type="curve" smooth="yes"/>
      <point x="267" y="402"/>
      <point x="151" y="342"/>
      <point x="151" y="220" type="curve" smooth="yes"/>
      <point x="151" y="105"/>
      <point x="234" y="30"/>
      <point x="361" y="30" type="curve" smooth="yes"/>
      <point x="406" y="30" type="line"/>
      <point x="421" y="-1"/>
      <point x="446" y="-35"/>
      <point x="481" y="-70" type="curve"/>
      <point x="596" y="-30" type="line"/>
      <point x="572" y="-9"/>
      <point x="550" y="17"/>
      <point x="531" y="50" type="curve"/>
      <point x="594" y="73"/>
      <point x="636" y="123"/>
      <point x="636" y="175" type="curve" smooth="yes"/>
      <point x="636" y="230"/>
      <point x="573" y="275"/>
      <point x="496" y="275" type="curve" smooth="yes"/>
      <point x="416" y="275"/>
      <point x="351" y="226"/>
      <point x="351" y="165" type="curve" smooth="yes"/>
      <point x="351" y="132"/>
      <point x="363" y="98"/>
      <point x="386" y="65" type="curve"/>
      <point x="331" y="65"/>
      <point x="287" y="135"/>
      <point x="287" y="220" type="curve" smooth="yes"/>
      <point x="287" y="297"/>
      <point x="338" y="360"/>
      <point x="401" y="360" type="curve" smooth="yes"/>
      <point x="424" y="360"/>
      <point x="443" y="353"/>
      <point x="456" y="340" type="curve"/>
      <point x="561" y="365" type="line"/>
      <point x="561" y="470" type="line"/>
      <point x="667" y="470" type="line"/>
      <point x="667" y="500" type="line"/>
    </contour>
    <contour>
      <point x="509" y="225"/>
      <point x="521" y="201"/>
      <point x="521" y="170" type="curve" smooth="yes"/>
      <point x="521" y="127"/>
      <point x="513" y="107"/>
      <point x="501" y="90" type="curve"/>
      <point x="492" y="106"/>
      <point x="477" y="127"/>
      <point x="477" y="170" type="curve" smooth="yes"/>
      <point x="477" y="210"/>
      <point x="488" y="225"/>
      <point x="496" y="225" type="curve" smooth="yes"/>
    </contour>
    <contour>
      <point x="232" y="-80" type="move" name="nukta"/>
    </contour>
    <contour>
      <point x="496" y="-65" type="move" name="bottom"/>
    </contour>
    <contour>
      <point x="496" y="500" type="move" name="top"/>
    </contour>
  </outline>
</glyph>
<glyph name="d_na-deva" format="1">
  <advance width="537"/>
  <outline>
    <contour>
      <point x="150" y="-51"/>
      <point x="167" y="-76"/>
      <point x="167" y="-107" type="curve" smooth="yes"/>
      <point x="167" y="-144"/>
      <point x="152" y="-172"/>
      <point x="131" y="-172" type="curve"/>
      <point x="114" y="-172"/>
      <point x="97" y="-146"/>
      <point x="97" y="-116" type="curve" smooth="yes"/>
      <point x="97" y="-79"/>
      <point x="112" y="-51"/>
      <point x="134" y="-51" type="curve"/>
    </contour>
    <contour>
      <point x="302" y="62" type="line"/>
      <point x="110" y="-10" type="line" smooth="yes"/>
      <point x="37" y="-37"/>
      <point x="2" y="-76"/>
      <point x="2" y="-123" type="curve" smooth="yes"/>
      <point x="2" y="-170"/>
      <point x="57" y="-209"/>
      <point x="123" y="-209" type="curve" smooth="yes"/>
      <point x="197" y="-209"/>
      <point x="262" y="-168"/>
      <point x="262" y="-115" type="curve" smooth="yes"/>
      <point x="262" y="-77"/>
      <point x="239" y="-42"/>
      <point x="198" y="-30" type="curve"/>
      <point x="298" y="8" type="line"/>
    </contour>
    <component base="da-deva"/>
    <contour>
      <point x="112" y="-80" type="move" name="nukta"/>
    </contour>
    <contour>
      <point x="376" y="-65" type="move" name="bottom"/>
    </contour>
    <contour>
      <point x="376" y="500" type="move" name="top"/>
    </contour>
  </outline>
</glyph>
<glyph name="d_ra-deva" format="1">
  <advance width="537"/>
  <outline>
    <contour>
      <point x="60" y="-51" type="line"/>
      <point x="90" y="-103" type="line"/>
      <point x="366" y="31" type="line"/>
      <point x="378" y="90" type="line"/>
    </contour>
    <component base="da-deva"/>
    <contour>
      <point x="112" y="-80" type="move" name="nukta"/>
    </contour>
    <contour>
      <point x="376" y="-65" type="move" name="bottom"/>
    </contour>
    <contour>
      <point x="376" y="500" type="move" name="top"/>
    </contour>
  </outline>
</glyph>
<glyph name="d_ya-deva" format="1">
  <advance width="569"/>
  <outline>
    <contour>
      <point x="-10" y="500" type="line"/>
      <point x="-10" y="470" type="line"/>
      <point x="181" y="470" type="line"/>
      <point x="181" y="430" type="line"/>
      <point x="140" y="430"/>
      <point x="26" y="418"/>
      <point x="26" y="340" type="curve" smooth="yes"/>
      <point x="26" y="289"/>
      <point x="73" y="245"/>
      <point x="136" y="240" type="curve"/>
      <point x="91" y="219"/>
      <point x="61" y="178"/>
      <point x="61" y="135" type="curve" smooth="yes"/>
      <point x="61" y="64"/>
      <point x="146" y="22"/>
      <point x="231" y="22" type="curve" smooth="yes"/>
      <point x="290" y="22"/>
      <point x="349" y="42"/>
      <point x="381" y="85" type="curve"/>
      <point x="381" y="0" type="line"/>
      <point x="511" y="0" type="line"/>
      <point x="511" y="470" type="line"/>
      <point x="591" y="470" type="line"/>
      <point x="591" y="500" type="line"/>
    </contour>
    <contour>
      <point x="381" y="149" type="line"/>
      <point x="364" y="97"/>
      <point x="314" y="74"/>
      <point x="270" y="74" type="curve" smooth="yes"/>
      <point x="231" y="74"/>
      <point x="197" y="96"/>
      <point x="197" y="144" type="curve" smooth="yes"/>
      <point x="197" y="191"/>
      <point x="241" y="229"/>
      <point x="301" y="240" type="curve"/>
      <point x="291" y="280" type="line"/>
      <point x="275" y="274"/>
      <point x="256" y="270"/>
      <point x="239" y="270" type="curve" smooth="yes"/>
      <point x="198" y="270"/>
      <point x="162" y="289"/>
      <point x="162" y="340" type="curve" smooth="yes"/>
      <point x="162" y="381"/>
      <point x="202" y="400"/>
      <point x="249" y="400" type="curve" smooth="yes"/>
      <point x="269" y="400"/>
      <point x="291" y="397"/>
      <point x="311" y="390" type="curve"/>
      <point x="311" y="470" type="line"/>
      <point x="381" y="470" type="line"/>
    </contour>
    <contour>
      <point x="132" y="-80" type="move" name="nukta"/>
    </contour>
    <contour>
      <point x="446" y="0" type="move" name="bottom"/>
    </contour>
    <contour>
      <point x="446" y="500" type="move" name="top"/>
    </contour>
  </outline>
</glyph>
